<svg xmlns="http://www.w3.org/2000/svg" width="466.75" height="512" viewBox="0 0 466.75 512">
  <g id="radiologist" transform="translate(-22.624)">
    <g id="Group_6" data-name="Group 6">
      <path id="Path_5" data-name="Path 5" d="M258.874,150.408a7.5,7.5,0,0,0-7.5,7.5v21.463a7.5,7.5,0,0,0,15,0V157.908A7.5,7.5,0,0,0,258.874,150.408Z" fill="#02367c"/>
      <path id="Path_6" data-name="Path 6" d="M348.874,186.871a7.5,7.5,0,0,0,7.5-7.5V157.908a7.5,7.5,0,0,0-15,0v21.463A7.5,7.5,0,0,0,348.874,186.871Z" fill="#02367c"/>
      <path id="Path_7" data-name="Path 7" d="M298.227,208.333h11.3a7.5,7.5,0,0,0,0-15h-.784l7.876-22.893a7.5,7.5,0,1,0-14.183-4.88l-11.3,32.832a7.5,7.5,0,0,0,7.091,9.941Z" fill="#02367c"/>
      <path id="Path_8" data-name="Path 8" d="M333.939,238.33a7.5,7.5,0,0,0-10.607-10.607,27.544,27.544,0,0,1-38.915,0A7.5,7.5,0,1,0,273.81,238.33a42.566,42.566,0,0,0,60.129,0Z" fill="#02367c"/>
      <path id="Path_9" data-name="Path 9" d="M110.626,348.5a7.5,7.5,0,0,0,0-15h-18.5v-4.257a7.5,7.5,0,0,0-15,0V333.5h-18.5a7.5,7.5,0,0,0,0,15h18.5v7.243h-16.5a7.5,7.5,0,0,0,0,15h16.5v7.244h-11.5a7.5,7.5,0,0,0,0,15h11.5v3.256a7.5,7.5,0,0,0,15,0v-3.256h11.5a7.5,7.5,0,0,0,0-15h-11.5v-7.244h16.5a7.5,7.5,0,0,0,0-15h-16.5V348.5Z" fill="#02367c"/>
      <circle id="Ellipse_1" data-name="Ellipse 1" cx="7.5" cy="7.5" r="7.5" transform="translate(134.625 331.827)" fill="#02367c"/>
      <circle id="Ellipse_2" data-name="Ellipse 2" cx="7.5" cy="7.5" r="7.5" transform="translate(155.625 331.827)" fill="#02367c"/>
      <path id="Path_10" data-name="Path 10" d="M212.625,346.827a7.5,7.5,0,0,0,0-15h-27a7.5,7.5,0,0,0,0,15Z" fill="#02367c"/>
      <circle id="Ellipse_3" data-name="Ellipse 3" cx="7.5" cy="7.5" r="7.5" transform="translate(134.625 358.994)" fill="#02367c"/>
      <path id="Path_11" data-name="Path 11" d="M212.626,358.994h-47a7.5,7.5,0,0,0,0,15h47a7.5,7.5,0,1,0,0-15Z" fill="#02367c"/>
      <path id="Path_12" data-name="Path 12" d="M141.625,401.16h71a7.5,7.5,0,0,0,0-15h-71a7.5,7.5,0,0,0,0,15Z" fill="#02367c"/>
      <path id="Path_13" data-name="Path 13" d="M431.875,297.491H416a7.5,7.5,0,0,0,0,15h15.875a42.548,42.548,0,0,1,42.5,42.5V494.5a2.5,2.5,0,0,1-2.5,2.5H217.626v-7.5a17.521,17.521,0,0,0-17.5-17.5h-36.5V437.5h67.5a17.521,17.521,0,0,0,17.5-17.5V403a7.5,7.5,0,0,0-15,0v17a2.5,2.5,0,0,1-2.5,2.5h-191a2.5,2.5,0,0,1-2.5-2.5V305.487a2.5,2.5,0,0,1,2.5-2.5h191a2.5,2.5,0,0,1,2.5,2.5V368a7.5,7.5,0,0,0,15,0V314.36l44.426,76.9a12.5,12.5,0,0,0,21.647,0L360.2,312.49H381a7.5,7.5,0,0,0,0-15H338.375V286.567A91.18,91.18,0,0,0,368.05,272.5h45.08a22.526,22.526,0,0,0,22.5-22.5V222.565A37.423,37.423,0,0,0,448.874,194V182.834a37.423,37.423,0,0,0-13.244-28.566V106.893a106.244,106.244,0,0,0-19.241-61.188A7.5,7.5,0,1,0,404.1,54.3a91.322,91.322,0,0,1,16.534,52.592v39.6a37.43,37.43,0,0,0-9.256-1.158h-5.113V132.39a47.555,47.555,0,0,0-47.5-47.5l-38.683.1a12.568,12.568,0,0,0-12.421,10.778,24.008,24.008,0,0,1-36.493,17.093,12.436,12.436,0,0,0-17.386,4.431,23.992,23.992,0,0,1-33.308,8.751,12.494,12.494,0,0,0-18.98,10.681v8.612h-5.114a37.47,37.47,0,0,0-9.255,1.158v-39.6A92,92,0,0,1,279.016,15h49.722a91.328,91.328,0,0,1,52.447,16.434,7.5,7.5,0,1,0,8.572-12.308A106.281,106.281,0,0,0,328.735,0H279.013A107.017,107.017,0,0,0,172.118,106.895v47.374a37.424,37.424,0,0,0-13.245,28.567V194a37.426,37.426,0,0,0,13.245,28.567V250a22.526,22.526,0,0,0,22.5,22.5H239.7a91.187,91.187,0,0,0,29.676,14.069v10.922h-22.7a17.507,17.507,0,0,0-15.548-9.5h-191a17.521,17.521,0,0,0-17.5,17.5V420a17.521,17.521,0,0,0,17.5,17.5h67.5V472h-36.5a17.521,17.521,0,0,0-17.5,17.5v5a17.521,17.521,0,0,0,17.5,17.5H471.874a17.521,17.521,0,0,0,17.5-17.5V354.991A57.563,57.563,0,0,0,431.875,297.491Zm-128,82.517-21.807-37.746a107.362,107.362,0,0,0,43.614,0ZM406.261,198.164V160.335h5.113a22.526,22.526,0,0,1,22.5,22.5V194a22.526,22.526,0,0,1-22.5,22.5h-6.96A91.581,91.581,0,0,0,406.261,198.164ZM399.973,231.5h11.4a37.478,37.478,0,0,0,9.256-1.158V250a7.508,7.508,0,0,1-7.5,7.5H384.353A91.622,91.622,0,0,0,399.973,231.5ZM173.874,194V182.835a22.526,22.526,0,0,1,22.5-22.5h5.114v37.829a91.507,91.507,0,0,0,1.847,18.336h-6.961A22.526,22.526,0,0,1,173.874,194Zm20.745,63.5a7.508,7.508,0,0,1-7.5-7.5V230.342a37.416,37.416,0,0,0,9.255,1.158h11.4a91.623,91.623,0,0,0,15.62,26Zm21.869-59.336V140.892a39,39,0,0,0,48.992-14,39.016,39.016,0,0,0,56.677-26.912l36.62-.092a32.537,32.537,0,0,1,32.483,32.5v65.772a76.586,76.586,0,0,1-76.5,76.5H292.988a76.585,76.585,0,0,1-76.5-76.5Zm60.387,114.327a7.5,7.5,0,0,0,7.5-7.5V289.255c2.836.266,5.708.408,8.613.408H314.76c2.9,0,5.777-.142,8.614-.408v15.736a7.5,7.5,0,0,0,7.5,7.5H342.88l-6.39,11.061a92.4,92.4,0,0,1-65.233,0l-6.39-11.06h12.008ZM122.626,437.5h26V472h-26Zm80,59.5H71.126a2.5,2.5,0,0,1-2.5-2.5v-5a2.5,2.5,0,0,1,2.5-2.5h129a2.5,2.5,0,0,1,2.5,2.5Z" fill="#02367c"/>
      <path id="Path_14" data-name="Path 14" d="M408.877,355.5h-19a10.512,10.512,0,0,0-10.5,10.5v12h-12a10.512,10.512,0,0,0-10.5,10.5v19a10.512,10.512,0,0,0,10.5,10.5h12v12a10.512,10.512,0,0,0,10.5,10.5h19a10.512,10.512,0,0,0,10.5-10.5V418h12a10.512,10.512,0,0,0,10.5-10.5v-19a10.512,10.512,0,0,0-10.5-10.5h-12V366A10.512,10.512,0,0,0,408.877,355.5Zm18,37.5v10h-12a10.512,10.512,0,0,0-10.5,10.5v12h-10v-12a10.512,10.512,0,0,0-10.5-10.5h-12V393h12a10.512,10.512,0,0,0,10.5-10.5v-12h10v12a10.512,10.512,0,0,0,10.5,10.5Z" fill="#02367c"/>
      <path id="Path_15" data-name="Path 15" d="M367.877,452.5a7.5,7.5,0,1,0,0,15h63a7.5,7.5,0,0,0,0-15Z" fill="#02367c"/>
    </g>
  </g>
</svg>
