<svg version="1.1" preserveAspectRatio="none" xmlns="http://www.w3.org/2000/svg" width="500" height="500" viewBox="0 0 500 500"><rect width="100%" height="100%" fill="#F8EEFF" fill-opacity="1"/><svg viewBox="621.0919 362.9219 294.6952 294" width="333" height="332.21443715404934" x="83.5px" y="83.8928px" xmlns="http://www.w3.org/2000/svg" xmlns:xlink="http://www.w3.org/1999/xlink" preserveAspectRatio="none"><defs></defs><style>.aIptOCySncolors-3 {fill:#FF9E69;fill-opacity:1;}.aIptOCySncolors-4 {fill:#FEEAA3;fill-opacity:1;}.aIptOCySncolors-5 {fill:#885BAA;fill-opacity:1;}.aIptOCySncolors-6 {fill:#270D5D;fill-opacity:1;}.aIptOCySncolors-7 {fill:#000000;fill-opacity:1;}.companyName {fill:#BB90DB;fill-opacity:1;}.icon1 {fill:#BB90DB;fill-opacity:1;}.icon2 {fill:#FF5F08;fill-opacity:1;}.icon3 {fill:#FFD649;fill-opacity:1;}.icon3-str {stroke:#FFD649;stroke-opacity:1;}.text {fill:#BB90DB;fill-opacity:1;}</style><g opacity="1" transform="rotate(0 726.6818 362.9219)">
<svg width="83.5153" height="100" x="726.6818" y="362.9219" version="1.1" preserveAspectRatio="none" viewBox="11.097821235656738 4.313446044921875 75.30362701416016 90.16747283935547">
  <g transform="matrix(1 0 0 1 0 0)" class="icon1"><g><path d="m62.199 7.8008c-0.30078 1.1016-0.69922 2.1016-1.1016 3.1016-1.5 3.1992-3.8984 5.6016-6.6992 7.6016-3.6992 2.6016-7.8008 4.3008-12.102 5.5-2.1016 0.60156-4.1992 1.1016-6.3984 1.5 0.5-0.5 1.1016-0.89844 1.6016-1.3008 2.5-1.6992 5.1992-3.1016 7.8984-4.6016 3.1992-1.6992 6.3984-3.6016 9.3984-5.8008 1.1992-0.89844 2.3984-2 3.5-3.1016-0.10156 0-0.10156-0.10156-0.10156-0.10156-3.6016 2.3008-7.5 3.8984-11.398 5.3984-3.3008 1.3008-6.5 2.6992-9.5 4.6016-0.80078 0.5-1.5 1.1016-2.3008 1.8008 0-0.89844-0.10156-1.6992 0-2.6016 0.69922-5.8008 3.8008-10.102 8.8008-12.898 4.9023-2.6992 10.102-3.1992 15.504-1.8984 4.3984 1.1016 8 3.3984 10.898 6.8984 2.5 3.1992 3.8008 6.8008 3.3984 10.801-0.19922 1.8008-0.60156 3.5-1.5 5 0 0.10156-0.10156 0.10156-0.19922 0.30078 0.30078-2.1992 0.19922-4.1992-0.69922-6.1016-0.60156 2.6992-1.3984 5.3008-0.69922 8 0.5 1.8008 0.19922 3.5-0.19922 5.3008-0.80078 3.6016-2.1992 7-3.8008 10.301-1.1016 2.1992-2.3008 2.6992-5 2.5-3.1992-0.30078-6.1016-1.6992-8.8984-3.3008-2.3008-1.3008-4.3984-2.8008-6.5-4.5 0.10156 0.69922 0.39844 1.3008 0.69922 1.8008 1.3008 2.6016 3.1016 4.6992 5.5 6.5 2.1992 1.6016 4.6016 2.8984 7.1992 3.6992 0.30078 0.10156 0.39844 0.19922 0.39844 0.5 0.19922 2.1992 0.89844 4.3984 1.6016 6.5 0.60156 1.6992 0.10156 2.6992-1.6016 3.3008-1.6992 0.60156-3.3984 0.5-5.1992 0.19922-3.5-0.5-6.6016-2.1016-9.6016-3.6992-0.19922-0.10156-0.30078-0.30078-0.39844-0.5-1-1.6016-2-3.1992-3-4.8008-0.19922-0.30078-0.10156-0.60156 0-0.89844 0.89844-1.8984 1.6016-3.8984 2-5.8984 0.69922-3.1992 0.80078-6.3984-0.10156-9.6016-0.10156-0.39844-0.19922-0.60156-0.69922-0.69922-1.1992-0.30078-2.3008-1-3.1992-1.8984-1.6016-1.6992-2.6016-3.6016-3.3984-5.8008-0.19922-0.5 0-0.60156 0.39844-0.60156 4.5-0.30078 8.8984-1.3008 13-3.1992 4.1992-1.8984 7.8008-4.6016 10.398-8.5 1.6016-2.5 2.5-5.1992 2.3008-8.3008-0.097657 0 0-0.19922-0.19922-0.5z"></path><path d="m35.199 57c-4.1016 2.3984-8.1016 4.6016-11.898 7-2.1016 1.3008-3.6016 3.1016-4.6016 5.3984-0.10156 0.30078-0.19922 0.39844-0.5 0.30078-2.6016-0.69922-4.6992-1.8984-6.3008-4.1016-0.30078-0.39844-0.60156-0.89844-0.80078-1.5 1.3008 0.69922 2.6016 0.89844 3.8984 0.60156 2.1016-0.5 3.3008-1.8984 4.1992-3.6992 1.1992-2.3008 1.6016-4.6992 1.8984-7.1992 0.39844-3.3008 0.30078-6.6016 0.39844-9.8984 0.10156-3.8008 0.89844-7.3984 2.6016-10.699 1.8984-3.6992 4.8008-6.1992 8.6992-7.8008 0.19922-0.10156 0.39844-0.19922 0.39844 0.19922 0.19922 3 1.1992 5.6992 3.1016 8.1016 0.30078 0.39844 0.30078 0.60156 0.10156 1.1016-0.60156 1.6992-0.69922 3.3984-0.60156 5.1992 0.10156 2.3984 0.5 4.6992 0.60156 7 0.10156 2.5 0 5-0.39844 7.3984v0.10156c1.1016-1.5 2.3984-2.6992 4.1016-3.5 0 0.19922-0.10156 0.39844-0.19922 0.5-0.89844 1.8984-1.8008 3.6992-2.1016 5.8008-0.19922 1.5-0.19922 3 0.10156 4.5 0.10156 0.39844 0.19922 0.5 0.60156 0.39844 2.3984-0.10156 4.5 0.60156 6.3984 2.1016 2.1016 1.6992 3.1992 4 3.5 6.6992 0.10156 0.89844 0.10156 1.8008 0.10156 2.8008 0 0.19922 0 0.39844-0.30078 0.39844s-0.19922 0.19922-0.19922 0.39844c0 1.6992-0.19922 3.3984-0.39844 5.1992-0.5 3.1992-1.3984 6.3008-3.1992 9.1016-0.10156 0.19922-0.10156 0.30078 0.10156 0.5 0.69922 0.39844 1.5 0.69922 2.1992 0.89844 0.30078 0.10156 0.39844-0.10156 0.60156-0.30078 0.80078-0.60156 1.8984-0.5 2.6016 0.10156 0.80078 0.69922 1 1.6992 0.5 2.6016-0.69922 1.3008-2.5 1.5-3.3984 0.39844-0.19922-0.19922-0.39844-0.39844-0.69922-0.39844-1.3008-0.30078-2.3984-0.80078-3.5-1.6016-0.19922-0.19922-0.39844-0.19922-0.60156 0-1 0.69922-2 1.3008-3.1992 1.5-0.30078 0.10156-0.39844 0.19922-0.60156 0.39844-0.80078 0.89844-2.1992 0.89844-3.1016 0.10156-0.80078-0.80078-0.89844-2.1016-0.10156-3 0.69922-0.69922 1.8008-0.89844 2.8008-0.30078 0.39844 0.19922 0.69922 0.30078 1.1016 0.10156 0.39844-0.19922 1-0.39844 1.1016-0.69922 0.10156-0.39844-0.5-0.69922-0.80078-1-2.6992-3-4.8008-6.3984-6.6016-10-0.10156-0.30078-0.10156-0.89844-0.69922-0.5l-0.19922-0.19922c-1.1016-2-2.1016-4.1016-2-6.5 0.10156-3.3984 1.6016-6 4.6016-7.6992 0.5-0.30078 0.60156-0.5 0.5-1-0.19922-0.89844-0.19922-1.8008-0.10156-2.6992-0.10547-0.60547-0.007812-1.5039 0.29297-2.6055zm10.301 18.898v-1.1016c0-0.19922 0-0.39844-0.30078-0.30078-0.39844 0-0.39844-0.19922-0.39844-0.5 0-1 0-2-0.30078-3-0.60156-2.1992-1.8984-3.6992-4.1992-4.1992s-4.1992 0.19922-5.6016 2.1016c-1.1016 1.3984-1.1992 3-0.69922 4.6016 0.30078 1 0.69922 1.8984 1.1016 2.8984 0.10156 0.19922 0.30078 0.39844 0 0.5-0.39844 0.19922-0.19922 0.39844-0.10156 0.60156 0.89844 2 2 3.8984 3.3008 5.6992 1.1016 1.5 2.1992 3 3.6016 4.3008 0.30078 0.30078 0.39844 0.30078 0.60156-0.10156 0.30078-0.60156 0.69922-1.1992 0.89844-1.8008 1.2969-3.0977 1.8984-6.2969 2.0977-9.6992z"></path><path d="m75.102 91.102c0.10156-1 0.19922-1.8984 0.19922-2.8984 0.30078-3.1016 0.19922-6.3008 0.19922-9.3984 0-0.39844-0.19922-0.39844-0.5-0.39844-1.5-0.10156-2.8008-0.69922-3.6992-1.8984-1.3984-1.8984-1.1016-4.5 0.80078-6 0.39844-0.39844 0.5-0.60156 0.30078-1.1992-1.6992-3.8984-3.8984-7.3984-7-10.301-0.80078-0.69922-1.6016-1.5-2.5-2-0.19922-0.10156-0.30078-0.19922-0.30078-0.39844-0.19922-0.69922-0.5-1.3008-0.60156-2.1016 0.19922 0 0.30078 0.10156 0.39844 0.10156 2.3008 1.1016 4.3008 2.6016 6.1016 4.5 0.30078 0.30078 0.60156 0.5 0.89844 0.60156 2 0.80078 4 1.3984 5.8984 2.3984 2.3008 1.1992 4.1016 3 5 5.3984 2 5.1016 4 10.199 6 15.301 0.19922 0.39844 0.10156 0.60156-0.19922 0.89844-3.3008 2.6992-6.6992 5.1992-10.5 7.1016-0.19922 0.19141-0.29688 0.29297-0.49609 0.29297zm3.3984-17.203c0-1.8008-1.3984-3.3984-3.1992-3.3984s-3.3008 1.5-3.3008 3.3008c0 1.8984 1.3984 3.3008 3.3008 3.3984 1.6992 0 3.1992-1.5 3.1992-3.3008z"></path><path d="m47.898 63.301c6 4.6992 11.5 10.199 16.898 15.801-0.10156-6.8008-0.39844-13.5-1.3008-20.102 0.69922 1.3984 1.1992 2.8008 1.8008 4.3008 1.8008 4.6016 3.3008 9.1992 4.3008 14.102 1.1016 5 1.6992 10 1.8008 15 0 0.30078-0.10156 0.5-0.39844 0.60156-1.3008 0.39844-2.5 0.89844-3.6992 1.3984-0.5 0.19922-0.69922 0-0.89844-0.39844-1.3984-2.6992-2.8008-5.3984-4.3008-8.1016-3.8984-6.8984-8.1992-13.602-12.602-20.301-0.60156-0.70312-1.1016-1.5-1.6016-2.3008z"></path></g></g>
</svg>
</g><g opacity="1" transform="rotate(0 622.254 492.9219)">
<svg width="292.3709" height="120" x="622.254" y="492.9219" version="1.1" preserveAspectRatio="none" viewBox="2.28 -28.64 167.16 68.64">
  <g transform="matrix(1 0 0 1 0 0)" class="companyName"><path id="id-D6z1nYkh11" d="M45.16-1.28L49.24 3.52Q47.76 5.28 45.68 6.18Q43.60 7.08 41.08 7.08L41.08 7.08Q38.56 7.08 36.56 6.46Q34.56 5.84 32.56 4.38Q30.56 2.92 28.00 0.24L28.00 0.24Q24.48-0.48 21.80-2.50Q19.12-4.52 17.62-7.48Q16.12-10.44 16.12-14L16.12-14Q16.12-18.20 18.16-21.54Q20.20-24.88 23.80-26.76Q27.40-28.64 31.92-28.64L31.92-28.64Q36.44-28.64 40.04-26.76Q43.64-24.88 45.68-21.54Q47.72-18.20 47.72-14L47.72-14Q47.72-9.40 45.28-5.86Q42.84-2.32 38.68-0.64L38.68-0.64Q39.28 0 39.90 0.26Q40.52 0.52 41.28 0.52L41.28 0.52Q43.36 0.52 45.16-1.28L45.16-1.28ZM31.92-21Q30.16-21 28.74-20.14Q27.32-19.28 26.48-17.70Q25.64-16.12 25.64-14L25.64-14Q25.64-11.88 26.48-10.30Q27.32-8.72 28.74-7.86Q30.16-7 31.92-7L31.92-7Q33.68-7 35.10-7.86Q36.52-8.72 37.36-10.30Q38.20-11.88 38.20-14L38.20-14Q38.20-16.12 37.36-17.70Q36.52-19.28 35.10-20.14Q33.68-21 31.92-21L31.92-21Z M64.56 0.64Q58.12 0.64 54.52-2.84Q50.92-6.32 50.92-12.60L50.92-12.60L50.92-28L60.36-28L60.36-12.88Q60.36-9.80 61.46-8.40Q62.56-7 64.64-7L64.64-7Q66.72-7 67.82-8.40Q68.92-9.80 68.92-12.88L68.92-12.88L68.92-28L78.20-28L78.20-12.60Q78.20-6.32 74.60-2.84Q71 0.64 64.56 0.64L64.56 0.64Z M82.52 0L82.52-28L91.96-28L91.96 0L82.52 0Z M111.00 0.64Q106.56 0.64 103.00-1.22Q99.44-3.08 97.42-6.42Q95.40-9.76 95.40-14L95.40-14Q95.40-18.24 97.42-21.58Q99.44-24.92 103.00-26.78Q106.56-28.64 111.00-28.64L111.00-28.64Q115.08-28.64 118.28-27.20Q121.48-25.76 123.56-23.04L123.56-23.04L117.60-17.72Q115.00-21 111.48-21L111.48-21Q108.52-21 106.72-19.10Q104.92-17.20 104.92-14L104.92-14Q104.92-10.80 106.72-8.90Q108.52-7 111.48-7L111.48-7Q115.00-7 117.60-10.28L117.60-10.28L123.56-4.96Q121.48-2.24 118.28-0.80Q115.08 0.64 111.00 0.64L111.00 0.64Z M144.68 0L137.68-9.28L135.56-6.92L135.56 0L126.28 0L126.28-28L135.56-28L135.56-17.84L144.76-28L155.04-28L143.84-15.68L155.60 0L144.68 0Z M20.44 12L29.88 12L29.88 40L20.44 40L20.44 29.68L11.72 29.68L11.72 40L2.28 40L2.28 12L11.72 12L11.72 21.92L20.44 21.92L20.44 12Z M43.72 32.88L57.72 32.88L57.72 40L34.44 40L34.44 12L57.20 12L57.20 19.12L43.72 19.12L43.72 22.40L55.56 22.40L55.56 29.20L43.72 29.20L43.72 32.88Z M82.32 40L80.44 35.12L69.80 35.12L67.92 40L58.32 40L70.56 12L79.84 12L92.08 40L82.32 40ZM72.40 28.32L77.84 28.32L75.12 21.28L72.40 28.32Z M93.60 40L93.60 12L103.04 12L103.04 32.68L115.68 32.68L115.68 40L93.60 40Z M121.76 40L121.76 19.32L113.56 19.32L113.56 12L139.40 12L139.40 19.32L131.20 19.32L131.20 40L121.76 40Z M160 12L169.44 12L169.44 40L160 40L160 29.68L151.28 29.68L151.28 40L141.84 40L141.84 12L151.28 12L151.28 21.92L160 21.92L160 12Z"/></g>
</svg>
</g><g opacity="1" transform="rotate(0 621.0919 636.9219)">
<svg width="294.6952" height="20" x="621.0919" y="636.9219" version="1.1" preserveAspectRatio="none" viewBox="2.52 -30.28 564.24 38.28">
  <g transform="matrix(1 0 0 1 0 0)" class="text"><path id="id-D-YM9nyY426" d="M2.76-17.20L2.52-28L5.88-28L5.60-17.20L2.76-17.20ZM10-17.20L9.76-28L13.12-28L12.84-17.20L10-17.20Z M48 0.28L49.88 2.56Q48.52 4.16 46.72 5Q44.92 5.84 42.84 5.84L42.84 5.84Q40.20 5.84 37.90 4.58Q35.60 3.32 32.64 0.28L32.64 0.28Q28.68 0.08 25.50-1.84Q22.32-3.76 20.54-6.94Q18.76-10.12 18.76-14L18.76-14Q18.76-18.04 20.70-21.32Q22.64-24.60 26.04-26.46Q29.44-28.32 33.68-28.32L33.68-28.32Q37.88-28.32 41.28-26.46Q44.68-24.60 46.60-21.34Q48.52-18.08 48.52-14L48.52-14Q48.52-10.56 47.14-7.68Q45.76-4.80 43.26-2.84Q40.76-0.88 37.52-0.12L37.52-0.12Q38.92 1.36 40.22 2.02Q41.52 2.68 42.88 2.68L42.88 2.68Q45.84 2.68 48 0.28L48 0.28ZM22.76-14Q22.76-10.96 24.18-8.50Q25.60-6.04 28.10-4.64Q30.60-3.24 33.68-3.24L33.68-3.24Q36.72-3.24 39.20-4.64Q41.68-6.04 43.10-8.50Q44.52-10.96 44.52-14L44.52-14Q44.52-17.04 43.10-19.50Q41.68-21.96 39.20-23.36Q36.72-24.76 33.68-24.76L33.68-24.76Q30.60-24.76 28.10-23.36Q25.60-21.96 24.18-19.50Q22.76-17.04 22.76-14L22.76-14Z M71.20-21.20L75.04-21.20L75.04 0L71.40 0L71.40-3.20Q70.24-1.56 68.34-0.66Q66.44 0.24 64.20 0.24L64.20 0.24Q59.96 0.24 57.52-2.10Q55.08-4.44 55.08-9L55.08-9L55.08-21.20L58.92-21.20L58.92-9.44Q58.92-6.36 60.40-4.78Q61.88-3.20 64.64-3.20L64.64-3.20Q67.68-3.20 69.44-5.04Q71.20-6.88 71.20-10.24L71.20-10.24L71.20-21.20Z M83.56 0L83.56-21.20L87.40-21.20L87.40 0L83.56 0ZM85.48-25.28Q84.36-25.28 83.62-26Q82.88-26.72 82.88-27.76L82.88-27.76Q82.88-28.80 83.62-29.54Q84.36-30.28 85.48-30.28L85.48-30.28Q86.60-30.28 87.34-29.58Q88.08-28.88 88.08-27.84L88.08-27.84Q88.08-26.76 87.34-26.02Q86.60-25.28 85.48-25.28L85.48-25.28Z M105.16 0.24Q101.92 0.24 99.38-1.16Q96.84-2.56 95.40-5.02Q93.96-7.48 93.96-10.60L93.96-10.60Q93.96-13.72 95.40-16.18Q96.84-18.64 99.38-20.02Q101.92-21.40 105.16-21.40L105.16-21.40Q108.04-21.40 110.30-20.24Q112.56-19.08 113.80-16.88L113.80-16.88L110.88-15Q109.88-16.52 108.40-17.28Q106.92-18.04 105.12-18.04L105.12-18.04Q103.04-18.04 101.38-17.12Q99.72-16.20 98.78-14.50Q97.84-12.80 97.84-10.60L97.84-10.60Q97.84-8.36 98.78-6.66Q99.72-4.96 101.38-4.04Q103.04-3.12 105.12-3.12L105.12-3.12Q106.92-3.12 108.40-3.88Q109.88-4.64 110.88-6.16L110.88-6.16L113.80-4.32Q112.56-2.12 110.30-0.94Q108.04 0.24 105.16 0.24L105.16 0.24Z M135.88 0L127.92-9.88L123.52-5.80L123.52 0L119.68 0L119.68-29.68L123.52-29.68L123.52-10.64L135.08-21.20L139.72-21.20L130.80-12.44L140.60 0L135.88 0Z M170.56 0.32Q166.36 0.32 162.98-1.54Q159.60-3.40 157.68-6.66Q155.76-9.92 155.76-14L155.76-14Q155.76-18.08 157.68-21.34Q159.60-24.60 163.00-26.46Q166.40-28.32 170.60-28.32L170.60-28.32Q173.88-28.32 176.60-27.22Q179.32-26.12 181.24-23.96L181.24-23.96L178.64-21.44Q175.48-24.76 170.76-24.76L170.76-24.76Q167.64-24.76 165.12-23.36Q162.60-21.96 161.18-19.50Q159.76-17.04 159.76-14L159.76-14Q159.76-10.96 161.18-8.50Q162.60-6.04 165.12-4.64Q167.64-3.24 170.76-3.24L170.76-3.24Q175.44-3.24 178.64-6.60L178.64-6.60L181.24-4.08Q179.32-1.92 176.58-0.80Q173.84 0.32 170.56 0.32L170.56 0.32Z M195.04-21.40Q199.44-21.40 201.78-19.24Q204.12-17.08 204.12-12.80L204.12-12.80L204.12 0L200.48 0L200.48-2.80Q199.52-1.32 197.74-0.54Q195.96 0.24 193.52 0.24L193.52 0.24Q189.96 0.24 187.82-1.48Q185.68-3.20 185.68-6L185.68-6Q185.68-8.80 187.72-10.50Q189.76-12.20 194.20-12.20L194.20-12.20L200.28-12.20L200.28-12.96Q200.28-15.44 198.84-16.76Q197.40-18.08 194.60-18.08L194.60-18.08Q192.72-18.08 190.92-17.46Q189.12-16.84 187.88-15.80L187.88-15.80L186.28-18.68Q187.92-20 190.20-20.70Q192.48-21.40 195.04-21.40L195.04-21.40ZM194.16-2.72Q196.36-2.72 197.96-3.70Q199.56-4.68 200.28-6.48L200.28-6.48L200.28-9.44L194.36-9.44Q189.48-9.44 189.48-6.16L189.48-6.16Q189.48-4.56 190.72-3.64Q191.96-2.72 194.16-2.72L194.16-2.72Z M216.12-17.64Q217.12-19.48 219.08-20.44Q221.04-21.40 223.84-21.40L223.84-21.40L223.84-17.68Q223.52-17.72 222.96-17.72L222.96-17.72Q219.84-17.72 218.06-15.86Q216.28-14 216.28-10.56L216.28-10.56L216.28 0L212.44 0L212.44-21.20L216.12-21.20L216.12-17.64Z M248.72-10.48Q248.72-10.04 248.64-9.32L248.64-9.32L231.44-9.32Q231.80-6.52 233.90-4.82Q236.00-3.12 239.12-3.12L239.12-3.12Q242.92-3.12 245.24-5.68L245.24-5.68L247.36-3.20Q245.92-1.52 243.78-0.64Q241.64 0.24 239.00 0.24L239.00 0.24Q235.64 0.24 233.04-1.14Q230.44-2.52 229.02-5Q227.60-7.48 227.60-10.60L227.60-10.60Q227.60-13.68 228.98-16.16Q230.36-18.64 232.78-20.02Q235.20-21.40 238.24-21.40L238.24-21.40Q241.28-21.40 243.66-20.02Q246.04-18.64 247.38-16.16Q248.72-13.68 248.72-10.48L248.72-10.48ZM238.24-18.16Q235.48-18.16 233.62-16.48Q231.76-14.80 231.44-12.08L231.44-12.08L245.04-12.08Q244.72-14.76 242.86-16.46Q241.00-18.16 238.24-18.16L238.24-18.16Z M288.68 0L285.60-7L270.72-7L267.64 0L263.52 0L276.20-28L280.16-28L292.88 0L288.68 0ZM272.12-10.20L284.20-10.20L278.16-23.92L272.12-10.20Z M297.68 0L297.68-29.68L301.52-29.68L301.52 0L297.68 0Z M338.68-21.20L342.12-21.20L334.20 0L330.52 0L324.40-16.08L318.20 0L314.52 0L306.64-21.20L310.28-21.20L316.44-4.32L322.84-21.20L326.08-21.20L332.36-4.24L338.68-21.20Z M354.24-21.40Q358.64-21.40 360.98-19.24Q363.32-17.08 363.32-12.80L363.32-12.80L363.32 0L359.68 0L359.68-2.80Q358.72-1.32 356.94-0.54Q355.16 0.24 352.72 0.24L352.72 0.24Q349.16 0.24 347.02-1.48Q344.88-3.20 344.88-6L344.88-6Q344.88-8.80 346.92-10.50Q348.96-12.20 353.40-12.20L353.40-12.20L359.48-12.20L359.48-12.96Q359.48-15.44 358.04-16.76Q356.60-18.08 353.80-18.08L353.80-18.08Q351.92-18.08 350.12-17.46Q348.32-16.84 347.08-15.80L347.08-15.80L345.48-18.68Q347.12-20 349.40-20.70Q351.68-21.40 354.24-21.40L354.24-21.40ZM353.36-2.72Q355.56-2.72 357.16-3.70Q358.76-4.68 359.48-6.48L359.48-6.48L359.48-9.44L353.56-9.44Q348.68-9.44 348.68-6.16L348.68-6.16Q348.68-4.56 349.92-3.64Q351.16-2.72 353.36-2.72L353.36-2.72Z M386.24-21.20L390.00-21.20L379.72 2.12Q378.36 5.36 376.54 6.68Q374.72 8 372.16 8L372.16 8Q370.60 8 369.14 7.50Q367.68 7 366.72 6.04L366.72 6.04L368.36 3.16Q370.00 4.72 372.16 4.72L372.16 4.72Q373.56 4.72 374.50 3.98Q375.44 3.24 376.20 1.44L376.20 1.44L376.88-0.04L367.52-21.20L371.52-21.20L378.92-4.24L386.24-21.20Z M400.60 0.24Q398.00 0.24 395.60-0.46Q393.20-1.16 391.84-2.24L391.84-2.24L393.44-5.28Q394.84-4.28 396.84-3.68Q398.84-3.08 400.88-3.08L400.88-3.08Q405.92-3.08 405.92-5.96L405.92-5.96Q405.92-6.92 405.24-7.48Q404.56-8.04 403.54-8.30Q402.52-8.56 400.64-8.88L400.64-8.88Q398.08-9.28 396.46-9.80Q394.84-10.32 393.68-11.56Q392.52-12.80 392.52-15.04L392.52-15.04Q392.52-17.92 394.92-19.66Q397.32-21.40 401.36-21.40L401.36-21.40Q403.48-21.40 405.60-20.88Q407.72-20.36 409.08-19.48L409.08-19.48L407.44-16.44Q404.84-18.12 401.32-18.12L401.32-18.12Q398.88-18.12 397.60-17.32Q396.32-16.52 396.32-15.20L396.32-15.20Q396.32-14.16 397.04-13.56Q397.76-12.96 398.82-12.68Q399.88-12.40 401.80-12.04L401.80-12.04Q404.36-11.60 405.94-11.10Q407.52-10.60 408.64-9.40Q409.76-8.20 409.76-6.04L409.76-6.04Q409.76-3.16 407.30-1.46Q404.84 0.24 400.60 0.24L400.60 0.24Z M433.84 0L433.84-24.52L424.24-24.52L424.24-28L447.40-28L447.40-24.52L437.80-24.52L437.80 0L433.84 0Z M463.72-21.40Q467.76-21.40 470.14-19.06Q472.52-16.72 472.52-12.20L472.52-12.20L472.52 0L468.68 0L468.68-11.76Q468.68-14.84 467.20-16.40Q465.72-17.96 462.96-17.96L462.96-17.96Q459.84-17.96 458.04-16.14Q456.24-14.32 456.24-10.92L456.24-10.92L456.24 0L452.40 0L452.40-29.68L456.24-29.68L456.24-18.20Q457.44-19.72 459.38-20.56Q461.32-21.40 463.72-21.40L463.72-21.40Z M500.12-10.48Q500.12-10.04 500.04-9.32L500.04-9.32L482.84-9.32Q483.20-6.52 485.30-4.82Q487.40-3.12 490.52-3.12L490.52-3.12Q494.32-3.12 496.64-5.68L496.64-5.68L498.76-3.20Q497.32-1.52 495.18-0.64Q493.04 0.24 490.40 0.24L490.40 0.24Q487.04 0.24 484.44-1.14Q481.84-2.52 480.42-5Q479.00-7.48 479.00-10.60L479.00-10.60Q479.00-13.68 480.38-16.16Q481.76-18.64 484.18-20.02Q486.60-21.40 489.64-21.40L489.64-21.40Q492.68-21.40 495.06-20.02Q497.44-18.64 498.78-16.16Q500.12-13.68 500.12-10.48L500.12-10.48ZM489.64-18.16Q486.88-18.16 485.02-16.48Q483.16-14.80 482.84-12.08L482.84-12.08L496.44-12.08Q496.12-14.76 494.26-16.46Q492.40-18.16 489.64-18.16L489.64-18.16Z M510.32-17.64Q511.32-19.48 513.28-20.44Q515.24-21.40 518.04-21.40L518.04-21.40L518.04-17.68Q517.72-17.72 517.16-17.72L517.16-17.72Q514.04-17.72 512.26-15.86Q510.48-14 510.48-10.56L510.48-10.56L510.48 0L506.64 0L506.64-21.20L510.32-21.20L510.32-17.64Z M542.92-10.48Q542.92-10.04 542.84-9.32L542.84-9.32L525.64-9.32Q526-6.52 528.10-4.82Q530.20-3.12 533.32-3.12L533.32-3.12Q537.12-3.12 539.44-5.68L539.44-5.68L541.56-3.20Q540.12-1.52 537.98-0.64Q535.84 0.24 533.20 0.24L533.20 0.24Q529.84 0.24 527.24-1.14Q524.64-2.52 523.22-5Q521.80-7.48 521.80-10.60L521.80-10.60Q521.80-13.68 523.18-16.16Q524.56-18.64 526.98-20.02Q529.40-21.40 532.44-21.40L532.44-21.40Q535.48-21.40 537.86-20.02Q540.24-18.64 541.58-16.16Q542.92-13.68 542.92-10.48L542.92-10.48ZM532.44-18.16Q529.68-18.16 527.82-16.48Q525.96-14.80 525.64-12.08L525.64-12.08L539.24-12.08Q538.92-14.76 537.06-16.46Q535.20-18.16 532.44-18.16L532.44-18.16Z M547.68-17.20L547.44-28L550.80-28L550.52-17.20L547.68-17.20ZM554.92-17.20L554.68-28L558.04-28L557.76-17.20L554.92-17.20Z M564.12 0.24Q563.00 0.24 562.20-0.54Q561.40-1.32 561.40-2.52L561.40-2.52Q561.40-3.68 562.20-4.46Q563.00-5.24 564.12-5.24L564.12-5.24Q565.24-5.24 566.00-4.48Q566.76-3.72 566.76-2.52L566.76-2.52Q566.76-1.32 565.98-0.54Q565.20 0.24 564.12 0.24L564.12 0.24Z"/></g>
</svg>
</g></svg></svg>