<svg version="1.1" preserveAspectRatio="none" xmlns="http://www.w3.org/2000/svg" width="500" height="500" viewBox="0 0 500 500"><rect width="100%" height="100%" fill="#87A3B5" fill-opacity="1"/><svg viewBox="390.2317 256.2254 347.0932 285.0811" width="333" height="273.5058085263554" x="83.5px" y="113.2471px" xmlns="http://www.w3.org/2000/svg" xmlns:xlink="http://www.w3.org/1999/xlink" preserveAspectRatio="none"><defs></defs><style>.companyName {fill:#FFE7D6;fill-opacity:1;}.icon1 {fill:#FFE7D6;fill-opacity:1;}.icon2 {fill:#364C63;fill-opacity:1;}.icon3 {fill:#F3B340;fill-opacity:1;}.icon3-str {stroke:#F3B340;stroke-opacity:1;}.text {fill:#FFE7D6;fill-opacity:1;}</style><g opacity="1" transform="rotate(0 511.7144 256.2254)">
<svg width="104.1278" height="124.6811" x="511.7144" y="256.2254" version="1.1" preserveAspectRatio="none" viewBox="11.097821235656738 4.313446044921875 75.30362701416016 90.16747283935547">
  <g transform="matrix(1 0 0 1 0 0)" class="icon1"><g><path d="m62.199 7.8008c-0.30078 1.1016-0.69922 2.1016-1.1016 3.1016-1.5 3.1992-3.8984 5.6016-6.6992 7.6016-3.6992 2.6016-7.8008 4.3008-12.102 5.5-2.1016 0.60156-4.1992 1.1016-6.3984 1.5 0.5-0.5 1.1016-0.89844 1.6016-1.3008 2.5-1.6992 5.1992-3.1016 7.8984-4.6016 3.1992-1.6992 6.3984-3.6016 9.3984-5.8008 1.1992-0.89844 2.3984-2 3.5-3.1016-0.10156 0-0.10156-0.10156-0.10156-0.10156-3.6016 2.3008-7.5 3.8984-11.398 5.3984-3.3008 1.3008-6.5 2.6992-9.5 4.6016-0.80078 0.5-1.5 1.1016-2.3008 1.8008 0-0.89844-0.10156-1.6992 0-2.6016 0.69922-5.8008 3.8008-10.102 8.8008-12.898 4.9023-2.6992 10.102-3.1992 15.504-1.8984 4.3984 1.1016 8 3.3984 10.898 6.8984 2.5 3.1992 3.8008 6.8008 3.3984 10.801-0.19922 1.8008-0.60156 3.5-1.5 5 0 0.10156-0.10156 0.10156-0.19922 0.30078 0.30078-2.1992 0.19922-4.1992-0.69922-6.1016-0.60156 2.6992-1.3984 5.3008-0.69922 8 0.5 1.8008 0.19922 3.5-0.19922 5.3008-0.80078 3.6016-2.1992 7-3.8008 10.301-1.1016 2.1992-2.3008 2.6992-5 2.5-3.1992-0.30078-6.1016-1.6992-8.8984-3.3008-2.3008-1.3008-4.3984-2.8008-6.5-4.5 0.10156 0.69922 0.39844 1.3008 0.69922 1.8008 1.3008 2.6016 3.1016 4.6992 5.5 6.5 2.1992 1.6016 4.6016 2.8984 7.1992 3.6992 0.30078 0.10156 0.39844 0.19922 0.39844 0.5 0.19922 2.1992 0.89844 4.3984 1.6016 6.5 0.60156 1.6992 0.10156 2.6992-1.6016 3.3008-1.6992 0.60156-3.3984 0.5-5.1992 0.19922-3.5-0.5-6.6016-2.1016-9.6016-3.6992-0.19922-0.10156-0.30078-0.30078-0.39844-0.5-1-1.6016-2-3.1992-3-4.8008-0.19922-0.30078-0.10156-0.60156 0-0.89844 0.89844-1.8984 1.6016-3.8984 2-5.8984 0.69922-3.1992 0.80078-6.3984-0.10156-9.6016-0.10156-0.39844-0.19922-0.60156-0.69922-0.69922-1.1992-0.30078-2.3008-1-3.1992-1.8984-1.6016-1.6992-2.6016-3.6016-3.3984-5.8008-0.19922-0.5 0-0.60156 0.39844-0.60156 4.5-0.30078 8.8984-1.3008 13-3.1992 4.1992-1.8984 7.8008-4.6016 10.398-8.5 1.6016-2.5 2.5-5.1992 2.3008-8.3008-0.097657 0 0-0.19922-0.19922-0.5z"></path><path d="m35.199 57c-4.1016 2.3984-8.1016 4.6016-11.898 7-2.1016 1.3008-3.6016 3.1016-4.6016 5.3984-0.10156 0.30078-0.19922 0.39844-0.5 0.30078-2.6016-0.69922-4.6992-1.8984-6.3008-4.1016-0.30078-0.39844-0.60156-0.89844-0.80078-1.5 1.3008 0.69922 2.6016 0.89844 3.8984 0.60156 2.1016-0.5 3.3008-1.8984 4.1992-3.6992 1.1992-2.3008 1.6016-4.6992 1.8984-7.1992 0.39844-3.3008 0.30078-6.6016 0.39844-9.8984 0.10156-3.8008 0.89844-7.3984 2.6016-10.699 1.8984-3.6992 4.8008-6.1992 8.6992-7.8008 0.19922-0.10156 0.39844-0.19922 0.39844 0.19922 0.19922 3 1.1992 5.6992 3.1016 8.1016 0.30078 0.39844 0.30078 0.60156 0.10156 1.1016-0.60156 1.6992-0.69922 3.3984-0.60156 5.1992 0.10156 2.3984 0.5 4.6992 0.60156 7 0.10156 2.5 0 5-0.39844 7.3984v0.10156c1.1016-1.5 2.3984-2.6992 4.1016-3.5 0 0.19922-0.10156 0.39844-0.19922 0.5-0.89844 1.8984-1.8008 3.6992-2.1016 5.8008-0.19922 1.5-0.19922 3 0.10156 4.5 0.10156 0.39844 0.19922 0.5 0.60156 0.39844 2.3984-0.10156 4.5 0.60156 6.3984 2.1016 2.1016 1.6992 3.1992 4 3.5 6.6992 0.10156 0.89844 0.10156 1.8008 0.10156 2.8008 0 0.19922 0 0.39844-0.30078 0.39844s-0.19922 0.19922-0.19922 0.39844c0 1.6992-0.19922 3.3984-0.39844 5.1992-0.5 3.1992-1.3984 6.3008-3.1992 9.1016-0.10156 0.19922-0.10156 0.30078 0.10156 0.5 0.69922 0.39844 1.5 0.69922 2.1992 0.89844 0.30078 0.10156 0.39844-0.10156 0.60156-0.30078 0.80078-0.60156 1.8984-0.5 2.6016 0.10156 0.80078 0.69922 1 1.6992 0.5 2.6016-0.69922 1.3008-2.5 1.5-3.3984 0.39844-0.19922-0.19922-0.39844-0.39844-0.69922-0.39844-1.3008-0.30078-2.3984-0.80078-3.5-1.6016-0.19922-0.19922-0.39844-0.19922-0.60156 0-1 0.69922-2 1.3008-3.1992 1.5-0.30078 0.10156-0.39844 0.19922-0.60156 0.39844-0.80078 0.89844-2.1992 0.89844-3.1016 0.10156-0.80078-0.80078-0.89844-2.1016-0.10156-3 0.69922-0.69922 1.8008-0.89844 2.8008-0.30078 0.39844 0.19922 0.69922 0.30078 1.1016 0.10156 0.39844-0.19922 1-0.39844 1.1016-0.69922 0.10156-0.39844-0.5-0.69922-0.80078-1-2.6992-3-4.8008-6.3984-6.6016-10-0.10156-0.30078-0.10156-0.89844-0.69922-0.5l-0.19922-0.19922c-1.1016-2-2.1016-4.1016-2-6.5 0.10156-3.3984 1.6016-6 4.6016-7.6992 0.5-0.30078 0.60156-0.5 0.5-1-0.19922-0.89844-0.19922-1.8008-0.10156-2.6992-0.10547-0.60547-0.007812-1.5039 0.29297-2.6055zm10.301 18.898v-1.1016c0-0.19922 0-0.39844-0.30078-0.30078-0.39844 0-0.39844-0.19922-0.39844-0.5 0-1 0-2-0.30078-3-0.60156-2.1992-1.8984-3.6992-4.1992-4.1992s-4.1992 0.19922-5.6016 2.1016c-1.1016 1.3984-1.1992 3-0.69922 4.6016 0.30078 1 0.69922 1.8984 1.1016 2.8984 0.10156 0.19922 0.30078 0.39844 0 0.5-0.39844 0.19922-0.19922 0.39844-0.10156 0.60156 0.89844 2 2 3.8984 3.3008 5.6992 1.1016 1.5 2.1992 3 3.6016 4.3008 0.30078 0.30078 0.39844 0.30078 0.60156-0.10156 0.30078-0.60156 0.69922-1.1992 0.89844-1.8008 1.2969-3.0977 1.8984-6.2969 2.0977-9.6992z"></path><path d="m75.102 91.102c0.10156-1 0.19922-1.8984 0.19922-2.8984 0.30078-3.1016 0.19922-6.3008 0.19922-9.3984 0-0.39844-0.19922-0.39844-0.5-0.39844-1.5-0.10156-2.8008-0.69922-3.6992-1.8984-1.3984-1.8984-1.1016-4.5 0.80078-6 0.39844-0.39844 0.5-0.60156 0.30078-1.1992-1.6992-3.8984-3.8984-7.3984-7-10.301-0.80078-0.69922-1.6016-1.5-2.5-2-0.19922-0.10156-0.30078-0.19922-0.30078-0.39844-0.19922-0.69922-0.5-1.3008-0.60156-2.1016 0.19922 0 0.30078 0.10156 0.39844 0.10156 2.3008 1.1016 4.3008 2.6016 6.1016 4.5 0.30078 0.30078 0.60156 0.5 0.89844 0.60156 2 0.80078 4 1.3984 5.8984 2.3984 2.3008 1.1992 4.1016 3 5 5.3984 2 5.1016 4 10.199 6 15.301 0.19922 0.39844 0.10156 0.60156-0.19922 0.89844-3.3008 2.6992-6.6992 5.1992-10.5 7.1016-0.19922 0.19141-0.29688 0.29297-0.49609 0.29297zm3.3984-17.203c0-1.8008-1.3984-3.3984-3.1992-3.3984s-3.3008 1.5-3.3008 3.3008c0 1.8984 1.3984 3.3008 3.3008 3.3984 1.6992 0 3.1992-1.5 3.1992-3.3008z"></path><path d="m47.898 63.301c6 4.6992 11.5 10.199 16.898 15.801-0.10156-6.8008-0.39844-13.5-1.3008-20.102 0.69922 1.3984 1.1992 2.8008 1.8008 4.3008 1.8008 4.6016 3.3008 9.1992 4.3008 14.102 1.1016 5 1.6992 10 1.8008 15 0 0.30078-0.10156 0.5-0.39844 0.60156-1.3008 0.39844-2.5 0.89844-3.6992 1.3984-0.5 0.19922-0.69922 0-0.89844-0.39844-1.3984-2.6992-2.8008-5.3984-4.3008-8.1016-3.8984-6.8984-8.1992-13.602-12.602-20.301-0.60156-0.70312-1.1016-1.5-1.6016-2.3008z"></path></g></g>
</svg>
</g><g opacity="1" transform="rotate(0 398.4926 526.9065)">
<svg width="330.5714" height="14.4" x="398.4926" y="526.9065" version="1.1" preserveAspectRatio="none" viewBox="2.56 -30.32 727.12 31.68">
  <g transform="matrix(1 0 0 1 0 0)" class="text"><path id="id-6izo4zJp26" d="M6.52-29.24L6.36-19.16L2.56-19.16L2.56-29.24L6.52-29.24ZM11.92-29.24L11.76-19.16L7.96-19.16L7.96-29.24L11.92-29.24Z M52.16-4.56L52.16 0L38.96 0Q37.36 0.32 35.88 0.32L35.88 0.32Q31.84 0.32 28.42-1.66Q25-3.64 23-7.04Q21-10.44 21-14.52L21-14.52Q21-18.52 23-21.94Q25-25.36 28.42-27.40Q31.84-29.44 35.88-29.44L35.88-29.44Q39.88-29.44 43.30-27.40Q46.72-25.36 48.76-21.92Q50.80-18.48 50.80-14.52L50.80-14.52Q50.80-11.68 49.78-9.14Q48.76-6.60 46.92-4.56L46.92-4.56L52.16-4.56ZM25.80-14.52Q25.80-11.72 27.16-9.34Q28.52-6.96 30.86-5.58Q33.20-4.20 36-4.20L36-4.20Q38.76-4.20 41.04-5.58Q43.32-6.96 44.66-9.34Q46-11.72 46-14.52L46-14.52Q46-17.32 44.64-19.68Q43.28-22.04 40.96-23.44Q38.64-24.84 35.88-24.84L35.88-24.84Q33.08-24.84 30.78-23.44Q28.48-22.04 27.14-19.68Q25.80-17.32 25.80-14.52L25.80-14.52Z M67.40-10.48Q67.40-8.80 68.28-7.36Q69.16-5.92 70.68-5.06Q72.20-4.20 74-4.20L74-4.20Q75.88-4.20 77.42-5.04Q78.96-5.88 79.84-7.32Q80.72-8.76 80.72-10.48L80.72-10.48L80.72-29.12L85.32-29.12L85.32-10.36Q85.32-7.24 83.82-4.82Q82.32-2.40 79.72-1.04Q77.12 0.32 74 0.32L74 0.32Q70.88 0.32 68.30-1.04Q65.72-2.40 64.24-4.82Q62.76-7.24 62.76-10.36L62.76-10.36L62.76-29.12L67.40-29.12L67.40-10.48Z M97.64-29.12L102.32-29.12L102.32 0L97.64 0L97.64-29.12Z M136.72-2.28Q135.44-1.36 133.18-0.52Q130.92 0.32 128.24 0.32L128.24 0.32Q123.72 0.32 120.34-1.66Q116.96-3.64 115.14-6.98Q113.32-10.32 113.32-14.32L113.32-14.32Q113.32-18.68 115.14-22.12Q116.96-25.56 120.22-27.50Q123.48-29.44 127.64-29.44L127.64-29.44Q130.20-29.44 132.38-28.76Q134.56-28.08 136.24-27.04L136.24-27.04L134.40-22.68Q131.16-24.96 127.80-24.96L127.80-24.96Q125.24-24.96 123.02-23.58Q120.80-22.20 119.48-19.82Q118.16-17.44 118.16-14.60L118.16-14.60Q118.16-11.60 119.38-9.22Q120.60-6.84 122.86-5.50Q125.12-4.16 128.08-4.16L128.08-4.16Q130.20-4.16 131.90-4.80Q133.60-5.44 134.76-6.44L134.76-6.44L136.72-2.28Z M152.44-17.96L152.32-16.48L152.96-17.40L163.92-29.12L169.92-29.12L157.88-16.40L170.36 0L164.44 0L154.48-13.44L152.44-11.44L152.44 0L147.72 0L147.72-29.12L152.44-29.12L152.44-17.96Z M219.28-2.28Q218.00-1.36 215.74-0.52Q213.48 0.32 210.80 0.32L210.80 0.32Q206.28 0.32 202.90-1.66Q199.52-3.64 197.70-6.98Q195.88-10.32 195.88-14.32L195.88-14.32Q195.88-18.68 197.70-22.12Q199.52-25.56 202.78-27.50Q206.04-29.44 210.20-29.44L210.20-29.44Q212.76-29.44 214.94-28.76Q217.12-28.08 218.80-27.04L218.80-27.04L216.96-22.68Q213.72-24.96 210.36-24.96L210.36-24.96Q207.80-24.96 205.58-23.58Q203.36-22.20 202.04-19.82Q200.72-17.44 200.72-14.60L200.72-14.60Q200.72-11.60 201.94-9.22Q203.16-6.84 205.42-5.50Q207.68-4.16 210.64-4.16L210.64-4.16Q212.76-4.16 214.46-4.80Q216.16-5.44 217.32-6.44L217.32-6.44L219.28-2.28Z M247.92 0L245.24-6.84L234.64-6.84L231.84 0L227.24 0L240.12-30.32L240.40-30.32L253.28 0L247.92 0ZM236.28-10.84L243.68-10.84L240.04-20.04L236.28-10.84Z M284.36 0L278.96 0L272.40-10.12L271.92-10.12L267.72-10.12L267.72 0L263.04 0L263.04-29.12L271.24-29.12Q276.12-29.12 279.06-26.64Q282.00-24.16 282.00-19.76L282.00-19.76Q282.00-17.08 280.86-14.78Q279.72-12.48 277.28-11.24L277.28-11.24L284.36 0ZM267.72-24.64L267.72-14.60L271.88-14.60Q274.68-14.60 275.94-16.14Q277.20-17.68 277.20-19.60L277.20-19.60Q277.20-20.72 276.72-21.86Q276.24-23 275.08-23.82Q273.92-24.64 272.04-24.64L272.04-24.64L267.72-24.64Z M294.64-29.12L313.96-29.12L313.96-24.64L299.32-24.64L299.32-16.88L312.36-16.88L312.36-12.40L299.32-12.40L299.32-4.48L314.52-4.48L314.52 0L294.64 0L294.64-29.12Z M361.00 0L358.32-6.84L347.72-6.84L344.92 0L340.32 0L353.20-30.32L353.48-30.32L366.36 0L361.00 0ZM349.36-10.84L356.76-10.84L353.12-20.04L349.36-10.84Z M376.12-29.12L380.80-29.12L380.80-4.48L395.16-4.48L395.16 0L376.12 0L376.12-29.12Z M437.72-28.96L426.36 1.28L419.48-16.08L411.76 1.36L400.12-28.96L405.56-28.96L412.36-9.52L417.20-21.92L414.40-28.96L419.00-28.96L426.48-10.08L432.72-28.96L437.72-28.96Z M461.84 0L459.16-6.84L448.56-6.84L445.76 0L441.16 0L454.04-30.32L454.32-30.32L467.20 0L461.84 0ZM450.20-10.84L457.60-10.84L453.96-20.04L450.20-10.84Z M490.68-29.12L496.40-29.12L485.48-9.44L485.48 0L480.84 0L480.84-9.44L470.08-29.12L475.80-29.12L483.32-14.76L490.68-29.12Z M520.20-23.20Q516.44-25.16 513.52-25.16L513.52-25.16Q511.36-25.16 510.10-24.20Q508.84-23.24 508.84-21.56L508.84-21.56Q508.84-19.92 510.42-18.82Q512.00-17.72 514.84-16.64L514.84-16.64Q517.00-15.88 518.54-14.90Q520.08-13.92 521.08-12.24Q522.08-10.56 522.08-8L522.08-8Q522.08-5.68 520.92-3.80Q519.76-1.92 517.56-0.80Q515.36 0.32 512.36 0.32L512.36 0.32Q509.72 0.32 507.16-0.50Q504.60-1.32 502.60-2.76L502.60-2.76L504.68-6.40Q506.16-5.28 508.18-4.54Q510.20-3.80 511.92-3.80L511.92-3.80Q514.04-3.80 515.64-4.82Q517.24-5.84 517.24-7.96L517.24-7.96Q517.24-9.64 515.90-10.76Q514.56-11.88 512.16-12.80L512.16-12.80Q509.68-13.72 508.04-14.62Q506.40-15.52 505.22-17.14Q504.04-18.76 504.04-21.20L504.04-21.20Q504.04-24.76 506.46-26.94Q508.88-29.12 512.84-29.28L512.84-29.28Q515.72-29.28 517.90-28.62Q520.08-27.96 521.96-26.76L521.96-26.76L520.20-23.20Z M548.52-29.12L568-29.12L568-24.64L560.48-24.64L560.48 0L555.84 0L555.84-24.64L548.52-24.64L548.52-29.12Z M602.40-29.12L602.40 0L597.72 0L597.72-12.40L583.40-12.40L583.40 0L578.72 0L578.72-29.12L583.40-29.12L583.40-16.84L597.72-16.84L597.72-29.12L602.40-29.12Z M615.20-29.12L634.52-29.12L634.52-24.64L619.88-24.64L619.88-16.88L632.92-16.88L632.92-12.40L619.88-12.40L619.88-4.48L635.08-4.48L635.08 0L615.20 0L615.20-29.12Z M667.64 0L662.24 0L655.68-10.12L655.20-10.12L651.00-10.12L651.00 0L646.32 0L646.32-29.12L654.52-29.12Q659.40-29.12 662.34-26.64Q665.28-24.16 665.28-19.76L665.28-19.76Q665.28-17.08 664.14-14.78Q663.00-12.48 660.56-11.24L660.56-11.24L667.64 0ZM651.00-24.64L651.00-14.60L655.16-14.60Q657.96-14.60 659.22-16.14Q660.48-17.68 660.48-19.60L660.48-19.60Q660.48-20.72 660.00-21.86Q659.52-23 658.36-23.82Q657.20-24.64 655.32-24.64L655.32-24.64L651.00-24.64Z M677.92-29.12L697.24-29.12L697.24-24.64L682.60-24.64L682.60-16.88L695.64-16.88L695.64-12.40L682.60-12.40L682.60-4.48L697.80-4.48L697.80 0L677.92 0L677.92-29.12Z M711.56-29.24L711.40-19.16L707.60-19.16L707.60-29.24L711.56-29.24ZM716.96-29.24L716.80-19.16L713.00-19.16L713.00-29.24L716.96-29.24Z M724.88-2.44Q724.88-3.44 725.62-4.16Q726.36-4.88 727.32-4.88L727.32-4.88Q728.20-4.88 728.94-4.16Q729.68-3.44 729.68-2.44L729.68-2.44Q729.68-1.40 728.94-0.70Q728.20 0 727.32 0L727.32 0Q726.36 0 725.62-0.68Q724.88-1.36 724.88-2.44L724.88-2.44Z"/></g>
</svg>
</g><g opacity="1" transform="rotate(0 390.2317 430.9065)">
<svg width="347.0932" height="60" x="390.2317" y="430.9065" version="1.1" preserveAspectRatio="none" viewBox="1.6 -28.6 199 34.4">
  <g transform="matrix(1 0 0 1 0 0)" class="companyName"><path id="id-D6z1nYkh12" d="M20.40-14L20.40-14Q20.40-10.64 19.68-8.02Q18.96-5.40 17.78-3.56Q16.60-1.72 15.08-0.68Q13.56 0.36 12 0.60L12 0.60Q12.76 1.04 13.36 1.82Q13.96 2.60 14.46 3.36Q14.96 4.12 15.38 4.66Q15.80 5.20 16.20 5.20L16.20 5.20Q16.64 5.20 16.92 4.82Q17.20 4.44 17.20 3.40L17.20 3.40Q17.20 2.56 16.96 1.98Q16.72 1.40 16.40 1.02Q16.08 0.64 15.78 0.44Q15.48 0.24 15.40 0.20L15.40 0.20L18.80 0Q19.08 0.28 19.28 0.68L19.28 0.68Q19.48 1 19.64 1.44Q19.80 1.88 19.80 2.40L19.80 2.40Q19.80 3 19.48 3.60Q19.16 4.20 18.62 4.70Q18.08 5.20 17.36 5.50Q16.64 5.80 15.80 5.80L15.80 5.80Q14.08 5.80 13.04 5.18Q12 4.56 11.28 3.80Q10.56 3.04 9.92 2.42Q9.28 1.80 8.40 1.80L8.40 1.80Q8 1.80 7.68 1.92Q7.36 2.04 7.12 2.20L7.12 2.20Q6.84 2.36 6.60 2.60L6.60 2.60L6.20 2.20Q6.80 1.44 7.72 0.92Q8.64 0.40 9.40 0.40L9.40 0.40Q7.88 0.04 6.48-1.06Q5.08-2.16 4-3.96Q2.92-5.76 2.26-8.26Q1.60-10.76 1.60-14L1.60-14Q1.60-17.68 2.42-20.42Q3.24-23.16 4.58-24.98Q5.92-26.80 7.60-27.70Q9.28-28.60 11-28.60L11-28.60Q12.72-28.60 14.40-27.70Q16.08-26.80 17.42-24.98Q18.76-23.16 19.58-20.42Q20.40-17.68 20.40-14ZM16.60-14L16.60-14Q16.60-18.12 16.10-20.82Q15.60-23.52 14.78-25.12Q13.96-26.72 12.96-27.36Q11.96-28 11-28L11-28Q10.04-28 9.04-27.36Q8.04-26.72 7.22-25.12Q6.40-23.52 5.90-20.82Q5.40-18.12 5.40-14L5.40-14Q5.40-9.88 5.90-7.18Q6.40-4.48 7.22-2.88Q8.04-1.28 9.04-0.64Q10.04 0 11 0L11 0Q11.96 0 12.96-0.64Q13.96-1.28 14.78-2.88Q15.60-4.48 16.10-7.18Q16.60-9.88 16.60-14Z M40.80-18L38.40-17.40L38.40-1L40.80-0.40L40.80 0L35.20 0L35.20-2.40Q34.76-1.56 34.08-0.88L34.08-0.88Q33.52-0.32 32.66 0.14Q31.80 0.60 30.60 0.60L30.60 0.60Q29.40 0.60 28.38 0.16Q27.36-0.28 26.60-1.06Q25.84-1.84 25.42-2.94Q25-4.04 25-5.40L25-5.40L25-17.40L22.60-18L22.60-18.40L30.40-18.40L30.40-18L28.20-17.40L28.20-5.40Q28.20-2.56 29.10-1.38Q30-0.20 31.20-0.20L31.20-0.20Q32.16-0.20 32.90-0.76Q33.64-1.32 34.16-2L34.16-2Q34.76-2.76 35.20-3.80L35.20-3.80L35.20-17.40L33-18L33-18.40L40.80-18.40L40.80-18Z M43.60-0.40L46-1L46-17.40L43.60-18L43.60-18.40L49.20-18.40L49.20-1L51.60-0.40L51.60 0L43.60 0L43.60-0.40ZM49.40-23L49.40-23Q49.40-22.24 48.78-21.62Q48.16-21 47.40-21L47.40-21Q46.64-21 46.02-21.62Q45.40-22.24 45.40-23L45.40-23Q45.40-23.76 46.02-24.38Q46.64-25 47.40-25L47.40-25Q48.16-25 48.78-24.38Q49.40-23.76 49.40-23Z M62.20-18.20L62.20-18.20Q61.44-18.20 60.70-17.74Q59.96-17.28 59.36-16.24Q58.76-15.20 58.38-13.48Q58-11.76 58-9.20L58-9.20Q58-6.64 58.38-4.92Q58.76-3.20 59.40-2.14Q60.04-1.08 60.86-0.64Q61.68-0.20 62.60-0.20L62.60-0.20Q63.64-0.20 64.56-0.60Q65.48-1 66.20-1.68Q66.92-2.36 67.38-3.32Q67.84-4.28 68-5.40L68-5.40L68.60-5.40Q68.44-4.12 67.90-3.02Q67.36-1.92 66.52-1.12Q65.68-0.32 64.58 0.14Q63.48 0.60 62.20 0.60L62.20 0.60Q60.64 0.60 59.22-0.06Q57.80-0.72 56.72-1.98Q55.64-3.24 55.02-5.06Q54.40-6.88 54.40-9.20L54.40-9.20Q54.40-11.52 55.02-13.34Q55.64-15.16 56.68-16.42Q57.72-17.68 59.04-18.34Q60.36-19 61.80-19L61.80-19Q62.76-19 63.50-18.68Q64.24-18.36 64.76-18L64.76-18Q65.36-17.56 65.80-17L65.80-17Q65.96-17.60 66.46-18.12Q66.96-18.64 67.40-18.80L67.40-18.80L68-18.80Q67.92-18.28 67.88-17.72L67.88-17.72Q67.84-17.24 67.82-16.68Q67.80-16.12 67.80-15.60L67.80-15.60Q67.80-15 67.82-14.38Q67.84-13.76 67.88-13.28L67.88-13.28Q67.92-12.72 68-12.20L68-12.20L67.40-12.20Q66.64-15.08 65.18-16.64Q63.72-18.20 62.20-18.20Z M77.76-8.72L76.20-6.52L76.20-1L78.40-0.40L78.40 0L70.60 0L70.60-0.40L73.00-1L73.00-27L70.60-27.60L70.60-28L76.20-28L76.20-7.60L82.80-17L80.20-18L80.20-18.40L86.20-18.40L86.20-18L83.60-17L79.72-11.48L86-1L88.40-0.40L88.40 0L80.20 0L80.20-0.40L82.40-1L77.76-8.72Z M113.20-14.40L105.00-14.40L105.00-1L107.40-0.40L107.40 0L99.20 0L99.20-0.40L101.60-1L101.60-27L99.20-27.60L99.20-28L107.40-28L107.40-27.60L105.00-27L105.00-15.20L113.20-15.20L113.20-27L110.80-27.60L110.80-28L119-28L119-27.60L116.60-27L116.60-1L119-0.40L119 0L110.80 0L110.80-0.40L113.20-1L113.20-14.40Z M137-9.20L126.20-9.20Q126.20-6.64 126.58-4.92Q126.96-3.20 127.58-2.14Q128.20-1.08 128.98-0.64Q129.76-0.20 130.60-0.20L130.60-0.20Q131.64-0.20 132.56-0.60Q133.48-1 134.20-1.68Q134.92-2.36 135.38-3.32Q135.84-4.28 136-5.40L136-5.40L136.60-5.40Q136.44-4.12 135.90-3.02Q135.36-1.92 134.52-1.12Q133.68-0.32 132.58 0.14Q131.48 0.60 130.20 0.60L130.20 0.60Q128.68 0.60 127.32-0.06Q125.96-0.72 124.90-1.98Q123.84-3.24 123.22-5.06Q122.60-6.88 122.60-9.20L122.60-9.20Q122.60-11.60 123.20-13.44Q123.80-15.28 124.78-16.50Q125.76-17.72 127.06-18.36Q128.36-19 129.80-19L129.80-19Q131.24-19 132.54-18.36Q133.84-17.72 134.82-16.50Q135.80-15.28 136.40-13.44Q137-11.60 137-9.20L137-9.20ZM129.80-18.40L129.80-18.40Q129.20-18.40 128.60-18.02Q128-17.64 127.48-16.68Q126.96-15.72 126.62-14.10Q126.28-12.48 126.20-10L126.20-10L133.40-10Q133.32-12.48 132.98-14.10Q132.64-15.72 132.12-16.68Q131.60-17.64 131-18.02Q130.40-18.40 129.80-18.40Z M150.60-3.80L150.60-9.80Q147.12-9.80 145.46-8.26Q143.80-6.72 143.80-4L143.80-4Q143.80-2.20 144.68-1.20Q145.56-0.20 146.60-0.20L146.60-0.20Q147.56-0.20 148.30-0.76Q149.04-1.32 149.56-2L149.56-2Q150.16-2.76 150.60-3.80L150.60-3.80ZM147.60-18.40L147.60-18.40Q146.40-18.40 145.60-17.58Q144.80-16.76 144.80-15.40L144.80-15.40Q144.80-15.08 144.82-14.84Q144.84-14.60 144.88-14.40L144.88-14.40Q144.92-14.20 145-14L145-14L141.80-13.20Q141.72-13.32 141.68-13.52L141.68-13.52Q141.64-13.72 141.62-13.96Q141.60-14.20 141.60-14.60L141.60-14.60Q141.60-15.44 142-16.22Q142.40-17 143.18-17.62Q143.96-18.24 145.06-18.62Q146.16-19 147.60-19L147.60-19Q150.48-19 152.14-17.36Q153.80-15.72 153.80-13L153.80-13L153.80-1L156.20-0.40L156.20 0L150.60 0L150.60-2.40Q150.16-1.56 149.48-0.88L149.48-0.88Q148.92-0.32 148.06 0.14Q147.20 0.60 146 0.60L146 0.60Q143.12 0.60 141.66-0.76Q140.20-2.12 140.20-4.40L140.20-4.40Q140.20-5.52 140.82-6.64Q141.44-7.76 142.70-8.64Q143.96-9.52 145.92-10.06Q147.88-10.60 150.60-10.60L150.60-10.60L150.60-13Q150.60-16 149.70-17.20Q148.80-18.40 147.60-18.40Z M158.00-0.40L160.40-1L160.40-27L158.00-27.60L158.00-28L163.60-28L163.60-1L166.00-0.40L166.00 0L158.00 0L158.00-0.40Z M174.00-18.40L178.60-18.40L178.60-17.60L174.00-17.60L174.00-4.84Q174.00-2.40 174.88-1.30Q175.76-0.20 176.80-0.20L176.80-0.20Q178.16-0.20 179.10-1.22Q180.04-2.24 180.20-4.20L180.20-4.20L180.80-4.20Q180.64-1.92 179.42-0.66Q178.20 0.60 176.40 0.60L176.40 0.60Q173.84 0.60 172.32-0.90Q170.80-2.40 170.80-4.80L170.80-4.80L170.80-17.60L167.40-17.60L167.40-18.40L170.80-18.40L170.80-23L174.00-25.20L174.00-18.40Z M182.40-0.40L184.80-1L184.80-27L182.40-27.60L182.40-28L188.00-28L188.00-16Q188.40-16.80 189.08-17.48L189.08-17.48Q189.64-18.04 190.52-18.52Q191.40-19 192.60-19L192.60-19Q193.80-19 194.82-18.56Q195.84-18.12 196.60-17.34Q197.36-16.56 197.78-15.46Q198.20-14.36 198.20-13L198.20-13L198.20-1L200.60-0.40L200.60 0L192.80 0L192.80-0.40L195.00-1L195.00-13Q195.00-15.84 194.10-17.02Q193.20-18.20 192.00-18.20L192.00-18.20Q191.00-18.20 190.28-17.64Q189.56-17.08 189.04-16.40L189.04-16.40Q188.44-15.60 188.00-14.60L188.00-14.60L188.00-1L190.20-0.40L190.20 0L182.40 0L182.40-0.40Z"/></g>
</svg>
</g></svg></svg>