<svg version="1.1" preserveAspectRatio="none" xmlns="http://www.w3.org/2000/svg" width="500" height="500" viewBox="0 0 500 500"><rect width="100%" height="100%" fill="#EFEBE5" fill-opacity="1"/><svg viewBox="53.9638 -46.397 338.6745 366.3144" width="307.87380594374673" height="333" x="96.0631px" y="83.5px" xmlns="http://www.w3.org/2000/svg" xmlns:xlink="http://www.w3.org/1999/xlink" preserveAspectRatio="none"><defs></defs><style>.companyName {fill:#FF7E73;fill-opacity:1;}.icon1 {fill:#776464;fill-opacity:1;}.icon2 {fill:#FF7E73;fill-opacity:1;}.icon3 {fill:#493838;fill-opacity:1;}.icon3-str {stroke:#493838;stroke-opacity:1;}.text {fill:#776464;fill-opacity:1;}</style><g opacity="1" transform="rotate(0 65.3083 298.9174)">
<svg width="315.9856" height="21" x="65.3083" y="298.9174" version="1.1" preserveAspectRatio="none" viewBox="2.56 -31 586.1600000000001 38.96">
  <g transform="matrix(1 0 0 1 0 0)" class="text"><path id="id-6izo4zJp26" d="M5.92-29.16L5.76-19.12L2.56-19.12L2.56-29.16L5.92-29.16ZM11.32-29.16L11.16-19.12L7.96-19.12L7.96-29.16L11.32-29.16Z M50.72-3.80L50.72 0L37.72 0Q36.20 0.32 34.68 0.32L34.68 0.32Q30.68 0.32 27.28-1.64Q23.88-3.60 21.90-6.98Q19.92-10.36 19.92-14.44L19.92-14.44Q19.92-18.40 21.92-21.80Q23.92-25.20 27.30-27.22Q30.68-29.24 34.68-29.24L34.68-29.24Q38.64-29.24 42.04-27.22Q45.44-25.20 47.46-21.80Q49.48-18.40 49.48-14.44L49.48-14.44Q49.48-11.36 48.28-8.60Q47.08-5.84 44.92-3.80L44.92-3.80L50.72-3.80ZM23.92-14.40Q23.92-11.44 25.36-8.92Q26.80-6.40 29.30-4.92Q31.80-3.44 34.76-3.44L34.76-3.44Q37.72-3.44 40.18-4.90Q42.64-6.36 44.06-8.90Q45.48-11.44 45.48-14.44L45.48-14.44Q45.48-17.40 44.04-19.92Q42.60-22.44 40.12-23.92Q37.64-25.40 34.68-25.40L34.68-25.40Q31.72-25.40 29.24-23.90Q26.76-22.40 25.34-19.88Q23.92-17.36 23.92-14.40L23.92-14.40Z M72-16.56L75.72-16.56L75.72 0L72.36 0L72.12-3.16Q71.28-1.48 69.52-0.42Q67.76 0.64 65.60 0.64L65.60 0.64Q63.32 0.64 61.86-0.74Q60.40-2.12 60.32-4.32L60.32-4.32L60.32-16.56L64.04-16.56L64.04-5.64Q64.12-4.24 64.86-3.42Q65.60-2.60 67.08-2.56L67.08-2.56Q68.44-2.56 69.56-3.38Q70.68-4.20 71.34-5.64Q72-7.08 72-8.84L72-8.84L72-16.56Z M86.20-16.56L89.92-16.56L89.92 0L86.20 0L86.20-16.56ZM85.92-22.52Q85.92-23.40 86.60-24Q87.28-24.60 88.16-24.60L88.16-24.60Q89.04-24.60 89.70-24Q90.36-23.40 90.36-22.52L90.36-22.52Q90.36-21.64 89.70-21.04Q89.04-20.44 88.16-20.44L88.16-20.44Q87.28-20.44 86.60-21.04Q85.92-21.64 85.92-22.52L85.92-22.52Z M113.84-1.56Q112.72-0.64 111.18-0.12Q109.64 0.40 108.04 0.40L108.04 0.40Q105.36 0.40 103.30-0.68Q101.24-1.76 100.10-3.74Q98.96-5.72 98.96-8.32L98.96-8.32Q98.96-10.88 100.16-12.86Q101.36-14.84 103.36-15.92Q105.36-17 107.68-17L107.68-17Q111.48-17 113.96-14.92L113.96-14.92L112.08-12.48Q111.28-13.08 110.24-13.50Q109.20-13.92 108.00-13.92L108.00-13.92Q106.52-13.92 105.30-13.18Q104.08-12.44 103.38-11.16Q102.68-9.88 102.68-8.32L102.68-8.32Q102.68-6.76 103.42-5.48Q104.16-4.20 105.44-3.44Q106.72-2.68 108.36-2.68L108.36-2.68Q110.40-2.68 111.92-3.88L111.92-3.88L113.84-1.56Z M133.64 0L128.52-7.96L126.36-6.20L126.36 0L122.64 0L122.64-31L126.36-31L126.36-10.08L134.92-16.96L137.20-14.96L131.08-10.04L138 0L133.64 0Z M185.40-2.16Q184-1.24 181.86-0.46Q179.72 0.32 177.20 0.32L177.20 0.32Q172.76 0.32 169.38-1.64Q166-3.60 164.18-6.92Q162.36-10.24 162.36-14.24L162.36-14.24Q162.36-18.52 164.20-21.94Q166.04-25.36 169.30-27.30Q172.56-29.24 176.68-29.24L176.68-29.24Q179.12-29.24 181.24-28.60Q183.36-27.96 185.04-26.92L185.04-26.92L183.48-23.28Q180.16-25.52 176.80-25.52L176.80-25.52Q174-25.52 171.62-24.04Q169.24-22.56 167.82-20.02Q166.40-17.48 166.40-14.44L166.40-14.44Q166.40-11.32 167.70-8.80Q169-6.28 171.42-4.86Q173.84-3.44 177-3.44L177-3.44Q180.88-3.44 183.76-5.64L183.76-5.64L185.40-2.16Z M208.56-16.56L212-16.56L212 0L208.28 0L208.28-2.72Q207.40-1.56 205.72-0.58Q204.04 0.40 201.92 0.40L201.92 0.40Q199.56 0.40 197.66-0.62Q195.76-1.64 194.66-3.60Q193.56-5.56 193.56-8.28L193.56-8.28Q193.56-11 194.70-13.02Q195.84-15.04 197.78-16.14Q199.72-17.24 202.08-17.24L202.08-17.24Q204.20-17.24 205.76-16.32Q207.32-15.40 208.28-13.92L208.28-13.92L208.56-16.56ZM202.92-2.68Q204.96-2.68 206.42-3.82Q207.88-4.96 208.28-6.92L208.28-6.92L208.28-10.20Q207.80-11.96 206.28-13.06Q204.76-14.16 202.80-14.16L202.80-14.16Q201.32-14.16 200.06-13.44Q198.80-12.72 198.06-11.42Q197.32-10.12 197.32-8.48L197.32-8.48Q197.32-6.88 198.08-5.56Q198.84-4.24 200.12-3.46Q201.40-2.68 202.92-2.68L202.92-2.68Z M226.08-12.64Q226.72-14 227.90-15.04Q229.08-16.08 230.40-16.64Q231.72-17.20 232.72-17.24L232.72-17.24L232.56-13.52Q230.76-13.60 229.30-12.80Q227.84-12 227.02-10.58Q226.20-9.16 226.20-7.56L226.20-7.56L226.20 0L222.48 0L222.48-16.56L225.80-16.56L226.08-12.64Z M248.56-2.80Q250.64-2.80 252.60-4.24L252.60-4.24L254.32-1.48Q253.00-0.60 251.46-0.10Q249.92 0.40 248.48 0.40L248.48 0.40Q245.72 0.40 243.66-0.74Q241.60-1.88 240.48-3.88Q239.36-5.88 239.36-8.40L239.36-8.40Q239.36-10.84 240.58-12.86Q241.80-14.88 243.92-16.06Q246.04-17.24 248.56-17.24L248.56-17.24Q251.80-17.24 253.98-15.34Q256.16-13.44 256.96-10.04L256.96-10.04L243.84-5.44Q244.56-4.20 245.78-3.50Q247.00-2.80 248.56-2.80L248.56-2.80ZM248.28-14.28Q246.00-14.28 244.52-12.68Q243.04-11.08 243.04-8.60L243.04-8.60Q243.04-8 243.08-7.68L243.08-7.68L252.72-11.24Q252.12-12.60 251.02-13.44Q249.92-14.28 248.28-14.28L248.28-14.28Z M301.32 0L298.32-7.60L287.20-7.60L284.12 0L280.28 0L292.92-30.12L293.16-30.12L305.80 0L301.32 0ZM288.60-10.96L297.00-10.96L292.88-21.52L288.60-10.96Z M314.28-31L318.00-31L318.00 0L314.28 0L314.28-31Z M347.80-16.56L351.48-16.56L343.84 1L338.52-10.36L333.68 1L326.00-16.56L329.68-16.56L334.12-6.52L337.20-13.72L335.88-16.56L339.12-16.56L343.60-6.28L347.80-16.56Z M372.88-16.56L376.32-16.56L376.32 0L372.60 0L372.60-2.72Q371.72-1.56 370.04-0.58Q368.36 0.40 366.24 0.40L366.24 0.40Q363.88 0.40 361.98-0.62Q360.08-1.64 358.98-3.60Q357.88-5.56 357.88-8.28L357.88-8.28Q357.88-11 359.02-13.02Q360.16-15.04 362.10-16.14Q364.04-17.24 366.40-17.24L366.40-17.24Q368.52-17.24 370.08-16.32Q371.64-15.40 372.60-13.92L372.60-13.92L372.88-16.56ZM367.24-2.68Q369.28-2.68 370.74-3.82Q372.20-4.96 372.60-6.92L372.60-6.92L372.60-10.20Q372.12-11.96 370.60-13.06Q369.08-14.16 367.12-14.16L367.12-14.16Q365.64-14.16 364.38-13.44Q363.12-12.72 362.38-11.42Q361.64-10.12 361.64-8.48L361.64-8.48Q361.64-6.88 362.40-5.56Q363.16-4.24 364.44-3.46Q365.72-2.68 367.24-2.68L367.24-2.68Z M399.12-16.56L402.56-16.56L391.88 7.96L388.20 7.96L392.00-0.56L384.32-16.56L388.52-16.56L393.88-4.76L399.12-16.56Z M415.24 0.36Q413.40 0.36 411.74-0.28Q410.08-0.92 409.04-2.16L409.04-2.16L410.64-4.32Q411.64-3.36 412.74-2.84Q413.84-2.32 414.92-2.32L414.92-2.32Q416.24-2.32 417.08-2.84Q417.92-3.36 417.92-4.44L417.92-4.44Q417.92-5.28 417.40-5.80Q416.88-6.32 416.22-6.56Q415.56-6.80 414.00-7.28L414.00-7.28Q409.76-8.64 409.76-12.12L409.76-12.12Q409.76-14.20 411.30-15.68Q412.84-17.16 415.60-17.16L415.60-17.16Q417.36-17.16 418.72-16.72Q420.08-16.28 421.24-15.32L421.24-15.32L419.76-13.04Q419.12-13.72 418.14-14.12Q417.16-14.52 416.28-14.56L416.28-14.56Q415.16-14.56 414.36-14.02Q413.56-13.48 413.56-12.56L413.56-12.56Q413.56-11.80 414.08-11.30Q414.60-10.80 415.16-10.58Q415.72-10.36 417.36-9.84L417.36-9.84Q419.40-9.16 420.54-8.08Q421.68-7 421.68-5.16L421.68-5.16Q421.68-2.76 420.00-1.20Q418.32 0.36 415.24 0.36L415.24 0.36Z M446.32-28.92L465.52-28.92L465.52-25.20L457.76-25.20L457.76 0L453.88 0L453.88-25.20L446.32-25.20L446.32-28.92Z M485.08-17.20Q487.40-17.20 488.92-15.82Q490.44-14.44 490.48-12.24L490.48-12.24L490.48 0L486.72 0L486.72-10.96Q486.64-12.36 485.88-13.16Q485.12-13.96 483.60-14L483.60-14Q482.16-14 481.00-13.20Q479.84-12.40 479.18-10.96Q478.52-9.52 478.52-7.76L478.52-7.76L478.52 0L474.80 0L474.80-31L478.44-31L478.44-13.56Q479.36-15.20 481.10-16.20Q482.84-17.20 485.08-17.20L485.08-17.20Z M508.68-2.80Q510.76-2.80 512.72-4.24L512.72-4.24L514.44-1.48Q513.12-0.60 511.58-0.10Q510.04 0.40 508.60 0.40L508.60 0.40Q505.84 0.40 503.78-0.74Q501.72-1.88 500.60-3.88Q499.48-5.88 499.48-8.40L499.48-8.40Q499.48-10.84 500.70-12.86Q501.92-14.88 504.04-16.06Q506.16-17.24 508.68-17.24L508.68-17.24Q511.92-17.24 514.10-15.34Q516.28-13.44 517.08-10.04L517.08-10.04L503.96-5.44Q504.68-4.20 505.90-3.50Q507.12-2.80 508.68-2.80L508.68-2.80ZM508.40-14.28Q506.12-14.28 504.64-12.68Q503.16-11.08 503.16-8.60L503.16-8.60Q503.16-8 503.20-7.68L503.20-7.68L512.84-11.24Q512.24-12.60 511.14-13.44Q510.04-14.28 508.40-14.28L508.40-14.28Z M529.32-12.64Q529.96-14 531.14-15.04Q532.32-16.08 533.64-16.64Q534.96-17.20 535.96-17.24L535.96-17.24L535.80-13.52Q534.00-13.60 532.54-12.80Q531.08-12 530.26-10.58Q529.44-9.16 529.44-7.56L529.44-7.56L529.44 0L525.72 0L525.72-16.56L529.04-16.56L529.32-12.64Z M551.80-2.80Q553.88-2.80 555.84-4.24L555.84-4.24L557.56-1.48Q556.24-0.60 554.70-0.10Q553.16 0.40 551.72 0.40L551.72 0.40Q548.96 0.40 546.90-0.74Q544.84-1.88 543.72-3.88Q542.60-5.88 542.60-8.40L542.60-8.40Q542.60-10.84 543.82-12.86Q545.04-14.88 547.16-16.06Q549.28-17.24 551.80-17.24L551.80-17.24Q555.04-17.24 557.22-15.34Q559.40-13.44 560.20-10.04L560.20-10.04L547.08-5.44Q547.80-4.20 549.02-3.50Q550.24-2.80 551.80-2.80L551.80-2.80ZM551.52-14.28Q549.24-14.28 547.76-12.68Q546.28-11.08 546.28-8.60L546.28-8.60Q546.28-8 546.32-7.68L546.32-7.68L555.96-11.24Q555.36-12.60 554.26-13.44Q553.16-14.28 551.52-14.28L551.52-14.28Z M571.52-29.16L571.36-19.12L568.16-19.12L568.16-29.16L571.52-29.16ZM576.92-29.16L576.76-19.12L573.56-19.12L573.56-29.16L576.92-29.16Z M584.52-2.12Q584.52-3 585.16-3.64Q585.80-4.28 586.64-4.28L586.64-4.28Q587.40-4.28 588.06-3.64Q588.72-3 588.72-2.12L588.72-2.12Q588.72-1.20 588.08-0.60Q587.44 0 586.64 0L586.64 0Q585.80 0 585.16-0.60Q584.52-1.20 584.52-2.12L584.52-2.12Z"/></g>
</svg>
</g><g opacity="1" transform="rotate(0 53.9638 226.9174)">
<svg width="338.6745" height="50" x="53.9638" y="226.9174" version="1.1" preserveAspectRatio="none" viewBox="0.56 -29.8 251.16 37.08">
  <g transform="matrix(1 0 0 1 0 0)" class="companyName"><path id="id-D6z1nYkh12" d="M29.72 1.92L27.04 7.28L15.16 0.72L13.68 0.80Q7.92 0.80 4.24-3Q0.56-6.80 0.56-13L0.56-13Q0.56-19.24 4.18-23.18Q7.80-27.12 13.36-27.12L13.36-27.12Q19.08-27.12 22.76-23.14Q26.44-19.16 26.44-12.80L26.44-12.80Q26.44-8.36 24.62-5.26Q22.80-2.16 19.72-0.60L19.72-0.60L29.72 1.92ZM6.96-13.72L6.96-13.72Q6.96-8.88 8.88-5.80Q10.80-2.72 14.36-2.72L14.36-2.72Q15.28-2.72 16.64-3.08L16.64-3.08Q18.16-4.28 19.08-6.88Q20-9.48 20-12.68L20-12.68Q20-17.52 18.04-20.56Q16.08-23.60 12.84-23.60L12.84-23.60Q11.48-23.60 9.92-23.04L9.92-23.04Q8.60-21.92 7.78-19.40Q6.96-16.88 6.96-13.72Z M52.80-3.72L53.16-1.92L48.24 0.64Q47.24 0.60 46.12-0.38Q45-1.36 44.48-2.68L44.48-2.68Q40.92-0.20 37.64 0.64L37.64 0.64Q36.40 0.56 35.02-0.20Q33.64-0.96 32.80-2.20L32.80-2.20Q32.24-3.04 32.20-5.92L32.20-5.92L32.20-16.08L29.20-16.44L28.92-18.36Q32.36-19.68 36.04-19.76L36.04-19.76L38-18L38-7.04Q38-3.56 40.56-3.56L40.56-3.56Q42-3.56 44-4.56L44-4.56L44-16.12L41.48-16.52L41.20-18.44Q44.16-19.60 47.84-19.76L47.84-19.76L49.80-18L49.80-4.56Q49.80-3.48 50.80-3.48L50.80-3.48L52.80-3.72Z M61.04-22.32L61.04-22.32Q58.52-23.44 56.84-25.56L56.84-25.56Q58.16-28.20 60.28-29.80L60.28-29.80Q62.68-28.52 64.32-26.28L64.32-26.28Q63.20-23.88 61.04-22.32ZM63.64-18L63.64-3.16Q65.52-2.56 66.56-1.96L66.56-1.96L66.40 0L54.92 0L54.80-1.36Q56-2.04 57.84-2.68L57.84-2.68L57.84-16.08L54.84-16.44L54.56-18.36Q58-19.68 61.68-19.76L61.68-19.76L63.64-18Z M85.28-2.44L79.60 0.56L78.36 0.64Q74.12 0.64 71.34-2.20Q68.56-5.04 68.56-9.48L68.56-9.48Q68.56-14.04 71.34-16.94Q74.12-19.84 78.36-19.84L78.36-19.84Q80.80-19.84 82.78-18.72Q84.76-17.60 85.68-15.52L85.68-15.52L81.32-12.52Q78.96-15.72 76.36-16.56L76.36-16.56Q74.24-14.28 74.24-10.48L74.24-10.48Q74.24-7.32 75.78-5.34Q77.32-3.36 80.12-3.36L80.12-3.36Q82.16-3.36 84.44-4.44L84.44-4.44L85.28-2.44Z M109.76-3L110.12-0.84L103.64 0.36Q102.68-0.12 101.36-2.12L101.36-2.12L97.88-7.76L96.12-7.64L96.12-2.96Q97.48-2.48 98.32-1.96L98.32-1.96L98.16 0L87.48 0L87.36-1.36Q88.48-2 90.32-2.64L90.32-2.64L90.32-25.80L87.32-26.12L87.04-28.04Q90.48-29.36 94.16-29.44L94.16-29.44L96.12-27.68L96.12-9.72L97.60-10.68L102.08-16.28L99.28-16.44L99-18.36Q102.48-19.56 106.88-19.76L106.88-19.76L108.48-17.28L102.48-10.04L106.40-4.32Q107.44-2.96 109.04-2.96L109.04-2.96L109.76-3Z M150.64-2.56L154.36-2.04L154.32 0L141.40 0L141.16-1.28Q142.32-2.04 144.56-2.92L144.56-2.92L144.56-11.36L133.80-11.36L133.80-2.56L137.48-2.04L137.44 0L124.56 0L124.32-1.28Q125.48-2.04 127.72-2.92L127.72-2.92L127.72-23.84L124.64-24.28L124.68-26.32L136.92-26.32L137.16-25.04Q135.68-24.16 133.80-23.40L133.80-23.40L133.80-14.80L144.56-14.80L144.56-23.84L141.48-24.28L141.52-26.32L153.80-26.32L154.04-25.04Q152.76-24.24 150.64-23.40L150.64-23.40L150.64-2.56Z M173.40-11.84L171.08-9.52L160.88-9.64Q161.04-6.68 162.72-5.04Q164.40-3.40 167-3.40L167-3.40Q169.16-3.40 172.12-4.84L172.12-4.84L172.96-2.72L166.68 0.52L165.40 0.60Q161 0.60 158.16-2.18Q155.32-4.96 155.32-9.24L155.32-9.24Q155.32-13.72 158.20-16.78Q161.08-19.84 165.20-19.84L165.20-19.84Q168.80-19.84 171.10-17.62Q173.40-15.40 173.40-11.84L173.40-11.84ZM163.80-16.80L163.80-16.80Q161.72-15.60 161.12-12.40L161.12-12.40L168.04-12.76Q167.76-14.48 166.58-15.64Q165.40-16.80 163.80-16.80Z M195.56-3.72L195.92-1.92L191.04 0.64Q190.08 0.60 189.04-0.22Q188-1.04 187.40-2.24L187.40-2.24L183.04 0.52L181.80 0.60Q179.28 0.60 177.64-0.88Q176-2.36 176-4.44L176-4.44Q176-7.32 179.12-9L179.12-9L186.76-9.20L186.76-12.76Q186.76-15.96 184.88-16.84L184.88-16.84Q183.04-16.72 181.88-16.32L181.88-16.32L181.16-12L177.80-11.88Q176.92-14.08 176.92-16.72L176.92-16.72L176.96-17.52Q179.16-18.48 182.24-19.22Q185.32-19.96 186.92-19.96L186.92-19.96Q188.40-19.96 189.82-19.16Q191.24-18.36 192.12-17.08L192.12-17.08Q192.56-16.32 192.60-14.04L192.60-14.04L192.60-4.44Q192.60-3.48 193.60-3.48L193.60-3.48L195.56-3.72ZM182.64-2.96L182.64-2.96Q184.24-3 186.76-3.96L186.76-3.96L186.76-6.84L185.76-6.88Q181.80-6.88 181.80-4.72L181.80-4.72Q181.80-3.64 182.64-2.96Z M206.52-27.68L206.52-3.16Q208.40-2.56 209.44-1.96L209.44-1.96L209.28 0L197.80 0L197.68-1.36Q198.88-2.04 200.72-2.68L200.72-2.68L200.72-25.80L197.72-26.12L197.44-28.04Q200.88-29.36 204.56-29.44L204.56-29.44L206.52-27.68Z M221.76-3.88L221.76-3.88Q222.88-3.88 225.12-4.40L225.12-4.40L225.56-2.44L219.40 0.64Q217.68 0.72 216.12-0.52Q214.56-1.76 214.52-3.32L214.52-3.32L214.52-14.88L211.72-14.84L211.56-16.92Q213.08-18 214.80-18.84L214.80-18.84L216.80-24.04L219.52-24.04L220.20-18.84L225.68-18.84L225.76-17.12L223.80-14.80L220.32-14.80L220.32-5.72Q220.32-4.68 220.64-4.28Q220.96-3.88 221.76-3.88Z M248.84-13.24L248.84-3.12Q250.44-2.68 251.72-1.96L251.72-1.96L251.56 0L240.96 0L240.84-1.36L243.04-2.36L243.04-11.56Q243.04-15.48 240.44-15.48L240.44-15.48Q239.12-15.48 236.76-14.12L236.76-14.12L236.76-3.04Q238.16-2.60 239.20-1.96L239.20-1.96L239.04 0L228.12 0L228.00-1.36Q229.12-2 230.96-2.64L230.96-2.64L230.96-25.80L227.96-26.12L227.68-28.04Q231.12-29.36 234.80-29.44L234.80-29.44L236.76-27.68L236.76-16.04Q240.72-18.96 243.44-19.64L243.44-19.64Q245.28-19.52 246.88-18.40Q248.48-17.28 248.72-15.52L248.72-15.52L248.84-13.24Z"/></g>
</svg>
</g><g opacity="1" transform="rotate(0 121.6987 -46.397)">
<svg width="203.2047" height="243.3144" x="121.6987" y="-46.397" version="1.1" preserveAspectRatio="none" viewBox="11.097821235656738 4.313446044921875 75.30362701416016 90.16747283935547">
  <g transform="matrix(1 0 0 1 0 0)" class="icon1"><g><path d="m62.199 7.8008c-0.30078 1.1016-0.69922 2.1016-1.1016 3.1016-1.5 3.1992-3.8984 5.6016-6.6992 7.6016-3.6992 2.6016-7.8008 4.3008-12.102 5.5-2.1016 0.60156-4.1992 1.1016-6.3984 1.5 0.5-0.5 1.1016-0.89844 1.6016-1.3008 2.5-1.6992 5.1992-3.1016 7.8984-4.6016 3.1992-1.6992 6.3984-3.6016 9.3984-5.8008 1.1992-0.89844 2.3984-2 3.5-3.1016-0.10156 0-0.10156-0.10156-0.10156-0.10156-3.6016 2.3008-7.5 3.8984-11.398 5.3984-3.3008 1.3008-6.5 2.6992-9.5 4.6016-0.80078 0.5-1.5 1.1016-2.3008 1.8008 0-0.89844-0.10156-1.6992 0-2.6016 0.69922-5.8008 3.8008-10.102 8.8008-12.898 4.9023-2.6992 10.102-3.1992 15.504-1.8984 4.3984 1.1016 8 3.3984 10.898 6.8984 2.5 3.1992 3.8008 6.8008 3.3984 10.801-0.19922 1.8008-0.60156 3.5-1.5 5 0 0.10156-0.10156 0.10156-0.19922 0.30078 0.30078-2.1992 0.19922-4.1992-0.69922-6.1016-0.60156 2.6992-1.3984 5.3008-0.69922 8 0.5 1.8008 0.19922 3.5-0.19922 5.3008-0.80078 3.6016-2.1992 7-3.8008 10.301-1.1016 2.1992-2.3008 2.6992-5 2.5-3.1992-0.30078-6.1016-1.6992-8.8984-3.3008-2.3008-1.3008-4.3984-2.8008-6.5-4.5 0.10156 0.69922 0.39844 1.3008 0.69922 1.8008 1.3008 2.6016 3.1016 4.6992 5.5 6.5 2.1992 1.6016 4.6016 2.8984 7.1992 3.6992 0.30078 0.10156 0.39844 0.19922 0.39844 0.5 0.19922 2.1992 0.89844 4.3984 1.6016 6.5 0.60156 1.6992 0.10156 2.6992-1.6016 3.3008-1.6992 0.60156-3.3984 0.5-5.1992 0.19922-3.5-0.5-6.6016-2.1016-9.6016-3.6992-0.19922-0.10156-0.30078-0.30078-0.39844-0.5-1-1.6016-2-3.1992-3-4.8008-0.19922-0.30078-0.10156-0.60156 0-0.89844 0.89844-1.8984 1.6016-3.8984 2-5.8984 0.69922-3.1992 0.80078-6.3984-0.10156-9.6016-0.10156-0.39844-0.19922-0.60156-0.69922-0.69922-1.1992-0.30078-2.3008-1-3.1992-1.8984-1.6016-1.6992-2.6016-3.6016-3.3984-5.8008-0.19922-0.5 0-0.60156 0.39844-0.60156 4.5-0.30078 8.8984-1.3008 13-3.1992 4.1992-1.8984 7.8008-4.6016 10.398-8.5 1.6016-2.5 2.5-5.1992 2.3008-8.3008-0.097657 0 0-0.19922-0.19922-0.5z"></path><path d="m35.199 57c-4.1016 2.3984-8.1016 4.6016-11.898 7-2.1016 1.3008-3.6016 3.1016-4.6016 5.3984-0.10156 0.30078-0.19922 0.39844-0.5 0.30078-2.6016-0.69922-4.6992-1.8984-6.3008-4.1016-0.30078-0.39844-0.60156-0.89844-0.80078-1.5 1.3008 0.69922 2.6016 0.89844 3.8984 0.60156 2.1016-0.5 3.3008-1.8984 4.1992-3.6992 1.1992-2.3008 1.6016-4.6992 1.8984-7.1992 0.39844-3.3008 0.30078-6.6016 0.39844-9.8984 0.10156-3.8008 0.89844-7.3984 2.6016-10.699 1.8984-3.6992 4.8008-6.1992 8.6992-7.8008 0.19922-0.10156 0.39844-0.19922 0.39844 0.19922 0.19922 3 1.1992 5.6992 3.1016 8.1016 0.30078 0.39844 0.30078 0.60156 0.10156 1.1016-0.60156 1.6992-0.69922 3.3984-0.60156 5.1992 0.10156 2.3984 0.5 4.6992 0.60156 7 0.10156 2.5 0 5-0.39844 7.3984v0.10156c1.1016-1.5 2.3984-2.6992 4.1016-3.5 0 0.19922-0.10156 0.39844-0.19922 0.5-0.89844 1.8984-1.8008 3.6992-2.1016 5.8008-0.19922 1.5-0.19922 3 0.10156 4.5 0.10156 0.39844 0.19922 0.5 0.60156 0.39844 2.3984-0.10156 4.5 0.60156 6.3984 2.1016 2.1016 1.6992 3.1992 4 3.5 6.6992 0.10156 0.89844 0.10156 1.8008 0.10156 2.8008 0 0.19922 0 0.39844-0.30078 0.39844s-0.19922 0.19922-0.19922 0.39844c0 1.6992-0.19922 3.3984-0.39844 5.1992-0.5 3.1992-1.3984 6.3008-3.1992 9.1016-0.10156 0.19922-0.10156 0.30078 0.10156 0.5 0.69922 0.39844 1.5 0.69922 2.1992 0.89844 0.30078 0.10156 0.39844-0.10156 0.60156-0.30078 0.80078-0.60156 1.8984-0.5 2.6016 0.10156 0.80078 0.69922 1 1.6992 0.5 2.6016-0.69922 1.3008-2.5 1.5-3.3984 0.39844-0.19922-0.19922-0.39844-0.39844-0.69922-0.39844-1.3008-0.30078-2.3984-0.80078-3.5-1.6016-0.19922-0.19922-0.39844-0.19922-0.60156 0-1 0.69922-2 1.3008-3.1992 1.5-0.30078 0.10156-0.39844 0.19922-0.60156 0.39844-0.80078 0.89844-2.1992 0.89844-3.1016 0.10156-0.80078-0.80078-0.89844-2.1016-0.10156-3 0.69922-0.69922 1.8008-0.89844 2.8008-0.30078 0.39844 0.19922 0.69922 0.30078 1.1016 0.10156 0.39844-0.19922 1-0.39844 1.1016-0.69922 0.10156-0.39844-0.5-0.69922-0.80078-1-2.6992-3-4.8008-6.3984-6.6016-10-0.10156-0.30078-0.10156-0.89844-0.69922-0.5l-0.19922-0.19922c-1.1016-2-2.1016-4.1016-2-6.5 0.10156-3.3984 1.6016-6 4.6016-7.6992 0.5-0.30078 0.60156-0.5 0.5-1-0.19922-0.89844-0.19922-1.8008-0.10156-2.6992-0.10547-0.60547-0.007812-1.5039 0.29297-2.6055zm10.301 18.898v-1.1016c0-0.19922 0-0.39844-0.30078-0.30078-0.39844 0-0.39844-0.19922-0.39844-0.5 0-1 0-2-0.30078-3-0.60156-2.1992-1.8984-3.6992-4.1992-4.1992s-4.1992 0.19922-5.6016 2.1016c-1.1016 1.3984-1.1992 3-0.69922 4.6016 0.30078 1 0.69922 1.8984 1.1016 2.8984 0.10156 0.19922 0.30078 0.39844 0 0.5-0.39844 0.19922-0.19922 0.39844-0.10156 0.60156 0.89844 2 2 3.8984 3.3008 5.6992 1.1016 1.5 2.1992 3 3.6016 4.3008 0.30078 0.30078 0.39844 0.30078 0.60156-0.10156 0.30078-0.60156 0.69922-1.1992 0.89844-1.8008 1.2969-3.0977 1.8984-6.2969 2.0977-9.6992z"></path><path d="m75.102 91.102c0.10156-1 0.19922-1.8984 0.19922-2.8984 0.30078-3.1016 0.19922-6.3008 0.19922-9.3984 0-0.39844-0.19922-0.39844-0.5-0.39844-1.5-0.10156-2.8008-0.69922-3.6992-1.8984-1.3984-1.8984-1.1016-4.5 0.80078-6 0.39844-0.39844 0.5-0.60156 0.30078-1.1992-1.6992-3.8984-3.8984-7.3984-7-10.301-0.80078-0.69922-1.6016-1.5-2.5-2-0.19922-0.10156-0.30078-0.19922-0.30078-0.39844-0.19922-0.69922-0.5-1.3008-0.60156-2.1016 0.19922 0 0.30078 0.10156 0.39844 0.10156 2.3008 1.1016 4.3008 2.6016 6.1016 4.5 0.30078 0.30078 0.60156 0.5 0.89844 0.60156 2 0.80078 4 1.3984 5.8984 2.3984 2.3008 1.1992 4.1016 3 5 5.3984 2 5.1016 4 10.199 6 15.301 0.19922 0.39844 0.10156 0.60156-0.19922 0.89844-3.3008 2.6992-6.6992 5.1992-10.5 7.1016-0.19922 0.19141-0.29688 0.29297-0.49609 0.29297zm3.3984-17.203c0-1.8008-1.3984-3.3984-3.1992-3.3984s-3.3008 1.5-3.3008 3.3008c0 1.8984 1.3984 3.3008 3.3008 3.3984 1.6992 0 3.1992-1.5 3.1992-3.3008z"></path><path d="m47.898 63.301c6 4.6992 11.5 10.199 16.898 15.801-0.10156-6.8008-0.39844-13.5-1.3008-20.102 0.69922 1.3984 1.1992 2.8008 1.8008 4.3008 1.8008 4.6016 3.3008 9.1992 4.3008 14.102 1.1016 5 1.6992 10 1.8008 15 0 0.30078-0.10156 0.5-0.39844 0.60156-1.3008 0.39844-2.5 0.89844-3.6992 1.3984-0.5 0.19922-0.69922 0-0.89844-0.39844-1.3984-2.6992-2.8008-5.3984-4.3008-8.1016-3.8984-6.8984-8.1992-13.602-12.602-20.301-0.60156-0.70312-1.1016-1.5-1.6016-2.3008z"></path></g></g>
</svg>
</g></svg></svg>