<svg version="1.1" preserveAspectRatio="none" xmlns="http://www.w3.org/2000/svg" width="500" height="500" viewBox="0 0 500 500"><rect width="100%" height="100%" fill="#FFFFFF" fill-opacity="1"/><svg viewBox="18.0001 186.5538 488.1402 136" width="333" height="92.77662442060704" x="83.5px" y="203.6117px" xmlns="http://www.w3.org/2000/svg" xmlns:xlink="http://www.w3.org/1999/xlink" preserveAspectRatio="none"><defs></defs><style>.companyName {fill:#4D4D4D;fill-opacity:1;}.icon1 {fill:#FF834F;fill-opacity:1;}.icon2 {fill:#FF4949;fill-opacity:1;}.icon3 {fill:#FFAE78;fill-opacity:1;}.icon3-str {stroke:#FFAE78;stroke-opacity:1;}.shapeStroke-str {stroke:#313131;stroke-opacity:1;}.text {fill:#4D4D4D;fill-opacity:1;}</style><g opacity="1" transform="rotate(0 18.0001 198.5538)">
<svg width="93.5372" height="112" x="18.0001" y="198.5538" version="1.1" preserveAspectRatio="none" viewBox="11.097821235656738 4.313446044921875 75.30362701416016 90.16747283935547">
  <g transform="matrix(1 0 0 1 0 0)" class="icon1"><g><path d="m62.199 7.8008c-0.30078 1.1016-0.69922 2.1016-1.1016 3.1016-1.5 3.1992-3.8984 5.6016-6.6992 7.6016-3.6992 2.6016-7.8008 4.3008-12.102 5.5-2.1016 0.60156-4.1992 1.1016-6.3984 1.5 0.5-0.5 1.1016-0.89844 1.6016-1.3008 2.5-1.6992 5.1992-3.1016 7.8984-4.6016 3.1992-1.6992 6.3984-3.6016 9.3984-5.8008 1.1992-0.89844 2.3984-2 3.5-3.1016-0.10156 0-0.10156-0.10156-0.10156-0.10156-3.6016 2.3008-7.5 3.8984-11.398 5.3984-3.3008 1.3008-6.5 2.6992-9.5 4.6016-0.80078 0.5-1.5 1.1016-2.3008 1.8008 0-0.89844-0.10156-1.6992 0-2.6016 0.69922-5.8008 3.8008-10.102 8.8008-12.898 4.9023-2.6992 10.102-3.1992 15.504-1.8984 4.3984 1.1016 8 3.3984 10.898 6.8984 2.5 3.1992 3.8008 6.8008 3.3984 10.801-0.19922 1.8008-0.60156 3.5-1.5 5 0 0.10156-0.10156 0.10156-0.19922 0.30078 0.30078-2.1992 0.19922-4.1992-0.69922-6.1016-0.60156 2.6992-1.3984 5.3008-0.69922 8 0.5 1.8008 0.19922 3.5-0.19922 5.3008-0.80078 3.6016-2.1992 7-3.8008 10.301-1.1016 2.1992-2.3008 2.6992-5 2.5-3.1992-0.30078-6.1016-1.6992-8.8984-3.3008-2.3008-1.3008-4.3984-2.8008-6.5-4.5 0.10156 0.69922 0.39844 1.3008 0.69922 1.8008 1.3008 2.6016 3.1016 4.6992 5.5 6.5 2.1992 1.6016 4.6016 2.8984 7.1992 3.6992 0.30078 0.10156 0.39844 0.19922 0.39844 0.5 0.19922 2.1992 0.89844 4.3984 1.6016 6.5 0.60156 1.6992 0.10156 2.6992-1.6016 3.3008-1.6992 0.60156-3.3984 0.5-5.1992 0.19922-3.5-0.5-6.6016-2.1016-9.6016-3.6992-0.19922-0.10156-0.30078-0.30078-0.39844-0.5-1-1.6016-2-3.1992-3-4.8008-0.19922-0.30078-0.10156-0.60156 0-0.89844 0.89844-1.8984 1.6016-3.8984 2-5.8984 0.69922-3.1992 0.80078-6.3984-0.10156-9.6016-0.10156-0.39844-0.19922-0.60156-0.69922-0.69922-1.1992-0.30078-2.3008-1-3.1992-1.8984-1.6016-1.6992-2.6016-3.6016-3.3984-5.8008-0.19922-0.5 0-0.60156 0.39844-0.60156 4.5-0.30078 8.8984-1.3008 13-3.1992 4.1992-1.8984 7.8008-4.6016 10.398-8.5 1.6016-2.5 2.5-5.1992 2.3008-8.3008-0.097657 0 0-0.19922-0.19922-0.5z"></path><path d="m35.199 57c-4.1016 2.3984-8.1016 4.6016-11.898 7-2.1016 1.3008-3.6016 3.1016-4.6016 5.3984-0.10156 0.30078-0.19922 0.39844-0.5 0.30078-2.6016-0.69922-4.6992-1.8984-6.3008-4.1016-0.30078-0.39844-0.60156-0.89844-0.80078-1.5 1.3008 0.69922 2.6016 0.89844 3.8984 0.60156 2.1016-0.5 3.3008-1.8984 4.1992-3.6992 1.1992-2.3008 1.6016-4.6992 1.8984-7.1992 0.39844-3.3008 0.30078-6.6016 0.39844-9.8984 0.10156-3.8008 0.89844-7.3984 2.6016-10.699 1.8984-3.6992 4.8008-6.1992 8.6992-7.8008 0.19922-0.10156 0.39844-0.19922 0.39844 0.19922 0.19922 3 1.1992 5.6992 3.1016 8.1016 0.30078 0.39844 0.30078 0.60156 0.10156 1.1016-0.60156 1.6992-0.69922 3.3984-0.60156 5.1992 0.10156 2.3984 0.5 4.6992 0.60156 7 0.10156 2.5 0 5-0.39844 7.3984v0.10156c1.1016-1.5 2.3984-2.6992 4.1016-3.5 0 0.19922-0.10156 0.39844-0.19922 0.5-0.89844 1.8984-1.8008 3.6992-2.1016 5.8008-0.19922 1.5-0.19922 3 0.10156 4.5 0.10156 0.39844 0.19922 0.5 0.60156 0.39844 2.3984-0.10156 4.5 0.60156 6.3984 2.1016 2.1016 1.6992 3.1992 4 3.5 6.6992 0.10156 0.89844 0.10156 1.8008 0.10156 2.8008 0 0.19922 0 0.39844-0.30078 0.39844s-0.19922 0.19922-0.19922 0.39844c0 1.6992-0.19922 3.3984-0.39844 5.1992-0.5 3.1992-1.3984 6.3008-3.1992 9.1016-0.10156 0.19922-0.10156 0.30078 0.10156 0.5 0.69922 0.39844 1.5 0.69922 2.1992 0.89844 0.30078 0.10156 0.39844-0.10156 0.60156-0.30078 0.80078-0.60156 1.8984-0.5 2.6016 0.10156 0.80078 0.69922 1 1.6992 0.5 2.6016-0.69922 1.3008-2.5 1.5-3.3984 0.39844-0.19922-0.19922-0.39844-0.39844-0.69922-0.39844-1.3008-0.30078-2.3984-0.80078-3.5-1.6016-0.19922-0.19922-0.39844-0.19922-0.60156 0-1 0.69922-2 1.3008-3.1992 1.5-0.30078 0.10156-0.39844 0.19922-0.60156 0.39844-0.80078 0.89844-2.1992 0.89844-3.1016 0.10156-0.80078-0.80078-0.89844-2.1016-0.10156-3 0.69922-0.69922 1.8008-0.89844 2.8008-0.30078 0.39844 0.19922 0.69922 0.30078 1.1016 0.10156 0.39844-0.19922 1-0.39844 1.1016-0.69922 0.10156-0.39844-0.5-0.69922-0.80078-1-2.6992-3-4.8008-6.3984-6.6016-10-0.10156-0.30078-0.10156-0.89844-0.69922-0.5l-0.19922-0.19922c-1.1016-2-2.1016-4.1016-2-6.5 0.10156-3.3984 1.6016-6 4.6016-7.6992 0.5-0.30078 0.60156-0.5 0.5-1-0.19922-0.89844-0.19922-1.8008-0.10156-2.6992-0.10547-0.60547-0.007812-1.5039 0.29297-2.6055zm10.301 18.898v-1.1016c0-0.19922 0-0.39844-0.30078-0.30078-0.39844 0-0.39844-0.19922-0.39844-0.5 0-1 0-2-0.30078-3-0.60156-2.1992-1.8984-3.6992-4.1992-4.1992s-4.1992 0.19922-5.6016 2.1016c-1.1016 1.3984-1.1992 3-0.69922 4.6016 0.30078 1 0.69922 1.8984 1.1016 2.8984 0.10156 0.19922 0.30078 0.39844 0 0.5-0.39844 0.19922-0.19922 0.39844-0.10156 0.60156 0.89844 2 2 3.8984 3.3008 5.6992 1.1016 1.5 2.1992 3 3.6016 4.3008 0.30078 0.30078 0.39844 0.30078 0.60156-0.10156 0.30078-0.60156 0.69922-1.1992 0.89844-1.8008 1.2969-3.0977 1.8984-6.2969 2.0977-9.6992z"></path><path d="m75.102 91.102c0.10156-1 0.19922-1.8984 0.19922-2.8984 0.30078-3.1016 0.19922-6.3008 0.19922-9.3984 0-0.39844-0.19922-0.39844-0.5-0.39844-1.5-0.10156-2.8008-0.69922-3.6992-1.8984-1.3984-1.8984-1.1016-4.5 0.80078-6 0.39844-0.39844 0.5-0.60156 0.30078-1.1992-1.6992-3.8984-3.8984-7.3984-7-10.301-0.80078-0.69922-1.6016-1.5-2.5-2-0.19922-0.10156-0.30078-0.19922-0.30078-0.39844-0.19922-0.69922-0.5-1.3008-0.60156-2.1016 0.19922 0 0.30078 0.10156 0.39844 0.10156 2.3008 1.1016 4.3008 2.6016 6.1016 4.5 0.30078 0.30078 0.60156 0.5 0.89844 0.60156 2 0.80078 4 1.3984 5.8984 2.3984 2.3008 1.1992 4.1016 3 5 5.3984 2 5.1016 4 10.199 6 15.301 0.19922 0.39844 0.10156 0.60156-0.19922 0.89844-3.3008 2.6992-6.6992 5.1992-10.5 7.1016-0.19922 0.19141-0.29688 0.29297-0.49609 0.29297zm3.3984-17.203c0-1.8008-1.3984-3.3984-3.1992-3.3984s-3.3008 1.5-3.3008 3.3008c0 1.8984 1.3984 3.3008 3.3008 3.3984 1.6992 0 3.1992-1.5 3.1992-3.3008z"></path><path d="m47.898 63.301c6 4.6992 11.5 10.199 16.898 15.801-0.10156-6.8008-0.39844-13.5-1.3008-20.102 0.69922 1.3984 1.1992 2.8008 1.8008 4.3008 1.8008 4.6016 3.3008 9.1992 4.3008 14.102 1.1016 5 1.6992 10 1.8008 15 0 0.30078-0.10156 0.5-0.39844 0.60156-1.3008 0.39844-2.5 0.89844-3.6992 1.3984-0.5 0.19922-0.69922 0-0.89844-0.39844-1.3984-2.6992-2.8008-5.3984-4.3008-8.1016-3.8984-6.8984-8.1992-13.602-12.602-20.301-0.60156-0.70312-1.1016-1.5-1.6016-2.3008z"></path></g></g>
</svg>
</g><g opacity="1" transform="rotate(0 149.5373 275.5538)">
<svg width="332.6017" height="20" x="149.5373" y="275.5538" version="1.1" preserveAspectRatio="none" viewBox="2.24 -30.88 647.2399999999999 38.92">
  <g transform="matrix(1 0 0 1 0 0)" class="text"><path id="id-6izo4zJp26" d="M2.56-16.92L2.24-28L6.56-28L6.20-16.92L2.56-16.92ZM10.28-16.92L9.96-28L14.28-28L13.92-16.92L10.28-16.92Z M51.44-0.08L53.84 2.80Q52.44 4.44 50.58 5.28Q48.72 6.12 46.52 6.12L46.52 6.12Q43.64 6.12 41.24 4.82Q38.84 3.52 35.76 0.32L35.76 0.32Q31.88 0 28.80-1.94Q25.72-3.88 24-7.02Q22.28-10.16 22.28-14L22.28-14Q22.28-18.08 24.24-21.38Q26.20-24.68 29.64-26.54Q33.08-28.40 37.36-28.40L37.36-28.40Q41.64-28.40 45.08-26.54Q48.52-24.68 50.48-21.40Q52.44-18.12 52.44-14L52.44-14Q52.44-10.68 51.12-7.86Q49.80-5.04 47.44-3.06Q45.08-1.08 41.96-0.20L41.96-0.20Q43.12 1.04 44.24 1.60Q45.36 2.16 46.64 2.16L46.64 2.16Q49.40 2.16 51.44-0.08L51.44-0.08ZM27.52-14Q27.52-11.20 28.80-8.94Q30.08-6.68 32.32-5.42Q34.56-4.16 37.36-4.16L37.36-4.16Q40.16-4.16 42.40-5.42Q44.64-6.68 45.92-8.94Q47.20-11.20 47.20-14L47.20-14Q47.20-16.80 45.92-19.06Q44.64-21.32 42.40-22.58Q40.16-23.84 37.36-23.84L37.36-23.84Q34.56-23.84 32.32-22.58Q30.08-21.32 28.80-19.06Q27.52-16.80 27.52-14L27.52-14Z M77.16-21.36L82.16-21.36L82.16 0L77.40 0L77.40-2.72Q76.20-1.28 74.40-0.50Q72.60 0.28 70.52 0.28L70.52 0.28Q66.24 0.28 63.78-2.10Q61.32-4.48 61.32-9.16L61.32-9.16L61.32-21.36L66.32-21.36L66.32-9.84Q66.32-6.96 67.62-5.54Q68.92-4.12 71.32-4.12L71.32-4.12Q74-4.12 75.58-5.78Q77.16-7.44 77.16-10.56L77.16-10.56L77.16-21.36Z M92.72 0L92.72-21.36L97.72-21.36L97.72 0L92.72 0ZM95.24-24.88Q93.88-24.88 92.96-25.74Q92.04-26.60 92.04-27.88L92.04-27.88Q92.04-29.16 92.96-30.02Q93.88-30.88 95.24-30.88L95.24-30.88Q96.60-30.88 97.52-30.06Q98.44-29.24 98.44-28L98.44-28Q98.44-26.68 97.54-25.78Q96.64-24.88 95.24-24.88L95.24-24.88Z M118.08 0.28Q114.76 0.28 112.12-1.12Q109.48-2.52 108-5.02Q106.52-7.52 106.52-10.68L106.52-10.68Q106.52-13.84 108-16.32Q109.48-18.80 112.10-20.20Q114.72-21.60 118.08-21.60L118.08-21.60Q121.24-21.60 123.62-20.32Q126-19.04 127.20-16.64L127.20-16.64L123.36-14.40Q122.44-15.88 121.06-16.62Q119.68-17.36 118.04-17.36L118.04-17.36Q115.24-17.36 113.40-15.54Q111.56-13.72 111.56-10.68L111.56-10.68Q111.56-7.64 113.38-5.82Q115.20-4 118.04-4L118.04-4Q119.68-4 121.06-4.74Q122.44-5.48 123.36-6.96L123.36-6.96L127.20-4.72Q125.96-2.32 123.58-1.02Q121.20 0.28 118.08 0.28L118.08 0.28Z M151.44 0L144.04-9.16L140.32-5.64L140.32 0L135.32 0L135.32-29.68L140.32-29.68L140.32-11.76L150.68-21.36L156.68-21.36L147.76-12.40L157.52 0L151.44 0Z M193.24 0.40Q189 0.40 185.58-1.46Q182.16-3.32 180.22-6.60Q178.28-9.88 178.28-14L178.28-14Q178.28-18.12 180.24-21.40Q182.20-24.68 185.62-26.54Q189.04-28.40 193.28-28.40L193.28-28.40Q196.72-28.40 199.56-27.20Q202.40-26 204.36-23.72L204.36-23.72L201-20.56Q197.96-23.84 193.52-23.84L193.52-23.84Q190.64-23.84 188.36-22.58Q186.08-21.32 184.80-19.08Q183.52-16.84 183.52-14L183.52-14Q183.52-11.16 184.80-8.92Q186.08-6.68 188.36-5.42Q190.64-4.16 193.52-4.16L193.52-4.16Q197.96-4.16 201-7.48L201-7.48L204.36-4.28Q202.40-2 199.54-0.80Q196.68 0.40 193.24 0.40L193.24 0.40Z M220.84-21.60Q225.56-21.60 228.06-19.34Q230.56-17.08 230.56-12.52L230.56-12.52L230.56 0L225.84 0L225.84-2.60Q224.92-1.20 223.22-0.46Q221.52 0.28 219.12 0.28L219.12 0.28Q216.72 0.28 214.92-0.54Q213.12-1.36 212.14-2.82Q211.16-4.28 211.16-6.12L211.16-6.12Q211.16-9 213.30-10.74Q215.44-12.48 220.04-12.48L220.04-12.48L225.56-12.48L225.56-12.80Q225.56-15.04 224.22-16.24Q222.88-17.44 220.24-17.44L220.24-17.44Q218.44-17.44 216.70-16.88Q214.96-16.32 213.76-15.32L213.76-15.32L211.80-18.96Q213.48-20.24 215.84-20.92Q218.20-21.60 220.84-21.60L220.84-21.60ZM220.16-3.36Q222.04-3.36 223.50-4.22Q224.96-5.08 225.56-6.68L225.56-6.68L225.56-9.16L220.40-9.16Q216.08-9.16 216.08-6.32L216.08-6.32Q216.08-4.96 217.16-4.16Q218.24-3.36 220.16-3.36L220.16-3.36Z M245.72-18.24Q247.88-21.60 253.32-21.60L253.32-21.60L253.32-16.84Q252.68-16.96 252.16-16.96L252.16-16.96Q249.24-16.96 247.60-15.26Q245.96-13.56 245.96-10.36L245.96-10.36L245.96 0L240.96 0L240.96-21.36L245.72-21.36L245.72-18.24Z M281.44-10.56Q281.44-10.04 281.36-9.08L281.36-9.08L264.60-9.08Q265.04-6.72 266.90-5.34Q268.76-3.96 271.52-3.96L271.52-3.96Q275.04-3.96 277.32-6.28L277.32-6.28L280.00-3.20Q278.56-1.48 276.36-0.60Q274.16 0.28 271.40 0.28L271.40 0.28Q267.88 0.28 265.20-1.12Q262.52-2.52 261.06-5.02Q259.60-7.52 259.60-10.68L259.60-10.68Q259.60-13.80 261.02-16.30Q262.44-18.80 264.96-20.20Q267.48-21.60 270.64-21.60L270.64-21.60Q273.76-21.60 276.22-20.22Q278.68-18.84 280.06-16.34Q281.44-13.84 281.44-10.56L281.44-10.56ZM270.64-17.60Q268.24-17.60 266.58-16.18Q264.92-14.76 264.56-12.40L264.56-12.40L276.68-12.40Q276.36-14.72 274.72-16.16Q273.08-17.60 270.64-17.60L270.64-17.60Z M326.72 0L323.92-6.48L309.92-6.48L307.16 0L301.80 0L314.40-28L319.52-28L332.16 0L326.72 0ZM311.68-10.56L322.20-10.56L316.92-22.80L311.68-10.56Z M339.24 0L339.24-29.68L344.24-29.68L344.24 0L339.24 0Z M383.68-21.36L388.12-21.36L380.24 0L375.44 0L369.92-14.72L364.32 0L359.52 0L351.68-21.36L356.40-21.36L362.04-5.60L367.92-21.36L372.12-21.36L377.88-5.52L383.68-21.36Z M403.04-21.60Q407.76-21.60 410.26-19.34Q412.76-17.08 412.76-12.52L412.76-12.52L412.76 0L408.04 0L408.04-2.60Q407.12-1.20 405.42-0.46Q403.72 0.28 401.32 0.28L401.32 0.28Q398.92 0.28 397.12-0.54Q395.32-1.36 394.34-2.82Q393.36-4.28 393.36-6.12L393.36-6.12Q393.36-9 395.50-10.74Q397.64-12.48 402.24-12.48L402.24-12.48L407.76-12.48L407.76-12.80Q407.76-15.04 406.42-16.24Q405.08-17.44 402.44-17.44L402.44-17.44Q400.64-17.44 398.90-16.88Q397.16-16.32 395.96-15.32L395.96-15.32L394-18.96Q395.68-20.24 398.04-20.92Q400.40-21.60 403.04-21.60L403.04-21.60ZM402.36-3.36Q404.24-3.36 405.70-4.22Q407.16-5.08 407.76-6.68L407.76-6.68L407.76-9.16L402.60-9.16Q398.28-9.16 398.28-6.32L398.28-6.32Q398.28-4.96 399.36-4.16Q400.44-3.36 402.36-3.36L402.36-3.36Z M437.96-21.36L442.76-21.36L432.76 1.72Q431.36 5.20 429.36 6.62Q427.36 8.04 424.52 8.04L424.52 8.04Q422.92 8.04 421.36 7.52Q419.80 7 418.80 6.08L418.80 6.08L420.80 2.40Q421.52 3.08 422.50 3.48Q423.48 3.88 424.48 3.88L424.48 3.88Q425.80 3.88 426.66 3.20Q427.52 2.52 428.24 0.92L428.24 0.92L428.60 0.08L419.28-21.36L424.48-21.36L431.20-5.56L437.96-21.36Z M456.20 0.28Q453.60 0.28 451.12-0.40Q448.64-1.08 447.16-2.12L447.16-2.12L449.08-5.92Q450.52-4.96 452.54-4.38Q454.56-3.80 456.52-3.80L456.52-3.80Q461.00-3.80 461.00-6.16L461.00-6.16Q461.00-7.28 459.86-7.72Q458.72-8.16 456.20-8.56L456.20-8.56Q453.56-8.96 451.90-9.48Q450.24-10 449.02-11.30Q447.80-12.60 447.80-14.92L447.80-14.92Q447.80-17.96 450.34-19.78Q452.88-21.60 457.20-21.60L457.20-21.60Q459.40-21.60 461.60-21.10Q463.80-20.60 465.20-19.76L465.20-19.76L463.28-15.96Q460.56-17.56 457.16-17.56L457.16-17.56Q454.96-17.56 453.82-16.90Q452.68-16.24 452.68-15.16L452.68-15.16Q452.68-13.96 453.90-13.46Q455.12-12.96 457.68-12.52L457.68-12.52Q460.24-12.12 461.88-11.60Q463.52-11.08 464.70-9.84Q465.88-8.60 465.88-6.32L465.88-6.32Q465.88-3.32 463.28-1.52Q460.68 0.28 456.20 0.28L456.20 0.28Z M495.40 0L495.40-23.60L486.12-23.60L486.12-28L509.88-28L509.88-23.60L500.60-23.60L500.60 0L495.40 0Z M529.44-21.60Q533.48-21.60 535.92-19.24Q538.36-16.88 538.36-12.24L538.36-12.24L538.36 0L533.36 0L533.36-11.60Q533.36-14.40 532.04-15.82Q530.72-17.24 528.28-17.24L528.28-17.24Q525.52-17.24 523.92-15.58Q522.32-13.92 522.32-10.80L522.32-10.80L522.32 0L517.32 0L517.32-29.68L522.32-29.68L522.32-18.88Q523.56-20.20 525.38-20.90Q527.20-21.60 529.44-21.60L529.44-21.60Z M569.00-10.56Q569.00-10.04 568.92-9.08L568.92-9.08L552.16-9.08Q552.60-6.72 554.46-5.34Q556.32-3.96 559.08-3.96L559.08-3.96Q562.60-3.96 564.88-6.28L564.88-6.28L567.56-3.20Q566.12-1.48 563.92-0.60Q561.72 0.28 558.96 0.28L558.96 0.28Q555.44 0.28 552.76-1.12Q550.08-2.52 548.62-5.02Q547.16-7.52 547.16-10.68L547.16-10.68Q547.16-13.80 548.58-16.30Q550.00-18.80 552.52-20.20Q555.04-21.60 558.20-21.60L558.20-21.60Q561.32-21.60 563.78-20.22Q566.24-18.84 567.62-16.34Q569.00-13.84 569.00-10.56L569.00-10.56ZM558.20-17.60Q555.80-17.60 554.14-16.18Q552.48-14.76 552.12-12.40L552.12-12.40L564.24-12.40Q563.92-14.72 562.28-16.16Q560.64-17.60 558.20-17.60L558.20-17.60Z M582.56-18.24Q584.72-21.60 590.16-21.60L590.16-21.60L590.16-16.84Q589.52-16.96 589.00-16.96L589.00-16.96Q586.08-16.96 584.44-15.26Q582.80-13.56 582.80-10.36L582.80-10.36L582.80 0L577.80 0L577.80-21.36L582.56-21.36L582.56-18.24Z M618.28-10.56Q618.28-10.04 618.20-9.08L618.20-9.08L601.44-9.08Q601.88-6.72 603.74-5.34Q605.60-3.96 608.36-3.96L608.36-3.96Q611.88-3.96 614.16-6.28L614.16-6.28L616.84-3.20Q615.40-1.48 613.20-0.60Q611.00 0.28 608.24 0.28L608.24 0.28Q604.72 0.28 602.04-1.12Q599.36-2.52 597.90-5.02Q596.44-7.52 596.44-10.68L596.44-10.68Q596.44-13.80 597.86-16.30Q599.28-18.80 601.80-20.20Q604.32-21.60 607.48-21.60L607.48-21.60Q610.60-21.60 613.06-20.22Q615.52-18.84 616.90-16.34Q618.28-13.84 618.28-10.56L618.28-10.56ZM607.48-17.60Q605.08-17.60 603.42-16.18Q601.76-14.76 601.40-12.40L601.40-12.40L613.52-12.40Q613.20-14.72 611.56-16.16Q609.92-17.60 607.48-17.60L607.48-17.60Z M625.56-16.92L625.24-28L629.56-28L629.20-16.92L625.56-16.92ZM633.28-16.92L632.96-28L637.28-28L636.92-16.92L633.28-16.92Z M646.20 0.28Q644.84 0.28 643.88-0.66Q642.92-1.60 642.92-3.04L642.92-3.04Q642.92-4.52 643.86-5.44Q644.80-6.36 646.20-6.36L646.20-6.36Q647.60-6.36 648.54-5.44Q649.48-4.52 649.48-3.04L649.48-3.04Q649.48-1.60 648.52-0.66Q647.56 0.28 646.20 0.28L646.20 0.28Z"/></g>
</svg>
</g><g opacity="1" transform="rotate(0 149.5373 213.5538)">
<svg width="356.603" height="50" x="149.5373" y="213.5538" version="1.1" preserveAspectRatio="none" viewBox="1.56 -31.48 270.44 37.92">
  <g transform="matrix(1 0 0 1 0 0)" class="companyName"><path id="id-D6z1nYkh12" d="M30.72-0.44L33.60 3Q32.24 4.68 30.30 5.56Q28.36 6.44 26.04 6.44L26.04 6.44Q22.92 6.44 20.40 5.10Q17.88 3.76 14.64 0.36L14.64 0.36Q10.84-0.12 7.86-2.08Q4.88-4.04 3.22-7.14Q1.56-10.24 1.56-14L1.56-14Q1.56-18.12 3.54-21.42Q5.52-24.72 9.02-26.60Q12.52-28.48 16.88-28.48L16.88-28.48Q21.24-28.48 24.72-26.60Q28.20-24.72 30.20-21.42Q32.20-18.12 32.20-14L32.20-14Q32.20-9.12 29.46-5.44Q26.72-1.76 22.20-0.32L22.20-0.32Q23.20 0.72 24.14 1.18Q25.08 1.64 26.16 1.64L26.16 1.64Q28.76 1.64 30.72-0.44L30.72-0.44ZM8.12-14Q8.12-11.40 9.26-9.36Q10.40-7.32 12.40-6.18Q14.40-5.04 16.88-5.04L16.88-5.04Q19.36-5.04 21.36-6.18Q23.36-7.32 24.50-9.36Q25.64-11.40 25.64-14L25.64-14Q25.64-16.60 24.50-18.64Q23.36-20.68 21.36-21.82Q19.36-22.96 16.88-22.96L16.88-22.96Q14.40-22.96 12.40-21.82Q10.40-20.68 9.26-18.64Q8.12-16.60 8.12-14L8.12-14Z M52.08-21.52L58.32-21.52L58.32 0L52.40 0L52.40-2.56Q51.16-1.16 49.44-0.42Q47.72 0.32 45.72 0.32L45.72 0.32Q41.48 0.32 39-2.12Q36.52-4.56 36.52-9.36L36.52-9.36L36.52-21.52L42.76-21.52L42.76-10.28Q42.76-5.08 47.12-5.08L47.12-5.08Q49.36-5.08 50.72-6.54Q52.08-8 52.08-10.88L52.08-10.88L52.08-21.52Z M64.12 0L64.12-21.52L70.36-21.52L70.36 0L64.12 0ZM67.24-24.52Q65.52-24.52 64.44-25.52Q63.36-26.52 63.36-28L63.36-28Q63.36-29.48 64.44-30.48Q65.52-31.48 67.24-31.48L67.24-31.48Q68.96-31.48 70.04-30.52Q71.12-29.56 71.12-28.12L71.12-28.12Q71.12-26.56 70.04-25.54Q68.96-24.52 67.24-24.52L67.24-24.52Z M86.56 0.32Q83.12 0.32 80.38-1.10Q77.64-2.52 76.10-5.04Q74.56-7.56 74.56-10.76L74.56-10.76Q74.56-13.96 76.10-16.48Q77.64-19 80.38-20.42Q83.12-21.84 86.56-21.84L86.56-21.84Q89.96-21.84 92.50-20.42Q95.04-19 96.20-16.36L96.20-16.36L91.36-13.76Q89.68-16.72 86.52-16.72L86.52-16.72Q84.08-16.72 82.48-15.12Q80.88-13.52 80.88-10.76L80.88-10.76Q80.88-8 82.48-6.40Q84.08-4.80 86.52-4.80L86.52-4.80Q89.72-4.80 91.36-7.76L91.36-7.76L96.20-5.12Q95.04-2.56 92.50-1.12Q89.96 0.32 86.56 0.32L86.56 0.32Z M115.68 0L108.88-8.44L105.88-5.48L105.88 0L99.64 0L99.64-29.68L105.88-29.68L105.88-12.88L115-21.52L122.44-21.52L113.48-12.40L123.24 0L115.68 0Z M157.00-28L163.48-28L163.48 0L157.00 0L157.00-11.48L144.28-11.48L144.28 0L137.80 0L137.80-28L144.28-28L144.28-16.96L157.00-16.96L157.00-28Z M190.76-10.68Q190.76-10.56 190.64-9L190.64-9L174.36-9Q174.80-7 176.44-5.84Q178.08-4.68 180.52-4.68L180.52-4.68Q182.20-4.68 183.50-5.18Q184.80-5.68 185.92-6.76L185.92-6.76L189.24-3.16Q186.20 0.32 180.36 0.32L180.36 0.32Q176.72 0.32 173.92-1.10Q171.12-2.52 169.60-5.04Q168.08-7.56 168.08-10.76L168.08-10.76Q168.08-13.92 169.58-16.46Q171.08-19 173.70-20.42Q176.32-21.84 179.56-21.84L179.56-21.84Q182.72-21.84 185.28-20.48Q187.84-19.12 189.30-16.58Q190.76-14.04 190.76-10.68L190.76-10.68ZM179.60-17.12Q177.48-17.12 176.04-15.92Q174.60-14.72 174.28-12.64L174.28-12.64L184.88-12.64Q184.56-14.68 183.12-15.90Q181.68-17.12 179.60-17.12L179.60-17.12Z M203.00-21.84Q208.00-21.84 210.68-19.46Q213.36-17.08 213.36-12.28L213.36-12.28L213.36 0L207.52 0L207.52-2.68Q205.76 0.32 200.96 0.32L200.96 0.32Q198.48 0.32 196.66-0.52Q194.84-1.36 193.88-2.84Q192.92-4.32 192.92-6.20L192.92-6.20Q192.92-9.20 195.18-10.92Q197.44-12.64 202.16-12.64L202.16-12.64L207.12-12.64Q207.12-14.68 205.88-15.78Q204.64-16.88 202.16-16.88L202.16-16.88Q200.44-16.88 198.78-16.34Q197.12-15.80 195.96-14.88L195.96-14.88L193.72-19.24Q195.48-20.48 197.94-21.16Q200.40-21.84 203.00-21.84L203.00-21.84ZM202.52-3.88Q204.12-3.88 205.36-4.62Q206.60-5.36 207.12-6.80L207.12-6.80L207.12-9L202.84-9Q199.00-9 199.00-6.48L199.00-6.48Q199.00-5.28 199.94-4.58Q200.88-3.88 202.52-3.88L202.52-3.88Z M219.00 0L219.00-29.68L225.24-29.68L225.24 0L219.00 0Z M244.80-5.44L246.48-1.04Q245.56-0.36 244.22-0.02Q242.88 0.32 241.40 0.32L241.40 0.32Q237.56 0.32 235.46-1.64Q233.36-3.60 233.36-7.40L233.36-7.40L233.36-16.24L230.04-16.24L230.04-21.04L233.36-21.04L233.36-26.28L239.60-26.28L239.60-21.04L244.96-21.04L244.96-16.24L239.60-16.24L239.60-7.48Q239.60-6.12 240.30-5.38Q241.00-4.64 242.28-4.64L242.28-4.64Q243.76-4.64 244.80-5.44L244.80-5.44Z M263.08-21.84Q267.08-21.84 269.54-19.44Q272.00-17.04 272.00-12.32L272.00-12.32L272.00 0L265.76 0L265.76-11.36Q265.76-13.92 264.64-15.18Q263.52-16.44 261.40-16.44L261.40-16.44Q259.04-16.44 257.64-14.98Q256.24-13.52 256.24-10.64L256.24-10.64L256.24 0L250.00 0L250.00-29.68L256.24-29.68L256.24-19.28Q257.48-20.52 259.24-21.18Q261.00-21.84 263.08-21.84L263.08-21.84Z"/></g>
</svg>
</g><g opacity="1" transform="rotate(0 129.5373 186.5538)">
<svg width="4" height="136" x="129.5373" y="186.5538" version="1.1" preserveAspectRatio="none" viewBox="0 0 4 136">
  <defs><rect x="0" y="0" width="4" height="136" rx="0px" ry="0px" id="id-tBXipXk0b1715686413128"></rect></defs><use class="companyName shapeStroke-str" style="stroke-width:0;" xlink:href="#id-tBXipXk0b1715686413128"></use>
</svg>
</g></svg></svg>