<svg version="1.1" preserveAspectRatio="none" xmlns="http://www.w3.org/2000/svg" width="500" height="500" viewBox="0 0 500 500"><rect width="100%" height="100%" fill="#005F40" fill-opacity="1"/><svg viewBox="21.9223 72.5067 448.6553 336.6922" width="333" height="249.89898169039796" x="83.5px" y="125.0505px" xmlns="http://www.w3.org/2000/svg" xmlns:xlink="http://www.w3.org/1999/xlink" preserveAspectRatio="none"><defs></defs><style>.companyName {fill:#EDEDED;fill-opacity:1;}.icon1 {fill:#EDEDED;fill-opacity:1;}.icon2 {fill:#163D26;fill-opacity:1;}.icon3 {fill:#9C9C9C;fill-opacity:1;}.icon3-str {stroke:#9C9C9C;stroke-opacity:1;}.text {fill:#EDEDED;fill-opacity:1;}</style><g opacity="1" transform="rotate(0 21.9223 381.1989)">
<svg width="448.6553" height="28" x="21.9223" y="381.1989" version="1.1" preserveAspectRatio="none" viewBox="2.76 -29.68 603.04 37.64">
  <g transform="matrix(1 0 0 1 0 0)" class="text"><path id="id-6izo4zJp26" d="M2.96-17.44L2.76-28L5.28-28L5.08-17.44L2.96-17.44ZM9.80-17.44L9.60-28L12.12-28L11.92-17.44L9.80-17.44Z M49.44 0.64L50.88 2.36Q49.60 3.92 47.86 4.74Q46.12 5.56 44.08 5.56L44.08 5.56Q41.60 5.56 39.38 4.34Q37.16 3.12 34.40 0.24L34.40 0.24Q30.36 0.12 27.12-1.76Q23.88-3.64 22.04-6.84Q20.20-10.04 20.20-14L20.20-14Q20.20-18.04 22.10-21.28Q24-24.52 27.38-26.38Q30.76-28.24 34.92-28.24L34.92-28.24Q39.08-28.24 42.42-26.40Q45.76-24.56 47.68-21.30Q49.60-18.04 49.60-14L49.60-14Q49.60-10.48 48.14-7.54Q46.68-4.60 44.06-2.64Q41.44-0.68 38.04-0.04L38.04-0.04Q41.12 3.20 44.12 3.20L44.12 3.20Q47.24 3.20 49.44 0.64L49.44 0.64ZM23.12-14Q23.12-10.72 24.66-8.08Q26.20-5.44 28.90-3.92Q31.60-2.40 34.92-2.40L34.92-2.40Q38.24-2.40 40.92-3.92Q43.60-5.44 45.12-8.08Q46.64-10.72 46.64-14L46.64-14Q46.64-17.28 45.12-19.92Q43.60-22.56 40.92-24.08Q38.24-25.60 34.92-25.60L34.92-25.60Q31.60-25.60 28.90-24.08Q26.20-22.56 24.66-19.92Q23.12-17.28 23.12-14L23.12-14Z M74.96-21.04L77.80-21.04L77.80 0L75.08 0L75.08-3.84Q73.96-1.92 72.00-0.86Q70.04 0.20 67.52 0.20L67.52 0.20Q63.40 0.20 61.02-2.10Q58.64-4.40 58.64-8.84L58.64-8.84L58.64-21.04L61.48-21.04L61.48-9.12Q61.48-5.80 63.12-4.08Q64.76-2.36 67.80-2.36L67.80-2.36Q71.12-2.36 73.04-4.38Q74.96-6.40 74.96-10L74.96-10L74.96-21.04Z M88.96 0L88.96-21.04L91.80-21.04L91.80 0L88.96 0ZM90.40-25.64Q89.52-25.64 88.92-26.24Q88.32-26.84 88.32-27.68L88.32-27.68Q88.32-28.48 88.92-29.08Q89.52-29.68 90.40-29.68L90.40-29.68Q91.28-29.68 91.88-29.10Q92.48-28.52 92.48-27.72L92.48-27.72Q92.48-26.84 91.88-26.24Q91.28-25.64 90.40-25.64L90.40-25.64Z M111.64 0.20Q108.52 0.20 106.06-1.16Q103.60-2.52 102.20-4.98Q100.80-7.44 100.80-10.52L100.80-10.52Q100.80-13.60 102.20-16.04Q103.60-18.48 106.06-19.84Q108.52-21.20 111.64-21.20L111.64-21.20Q114.36-21.20 116.50-20.14Q118.64-19.08 119.88-17.04L119.88-17.04L117.76-15.60Q116.72-17.16 115.12-17.94Q113.52-18.72 111.64-18.72L111.64-18.72Q109.36-18.72 107.54-17.70Q105.72-16.68 104.70-14.80Q103.68-12.92 103.68-10.52L103.68-10.52Q103.68-8.08 104.70-6.22Q105.72-4.36 107.54-3.34Q109.36-2.32 111.64-2.32L111.64-2.32Q113.52-2.32 115.12-3.08Q116.72-3.84 117.76-5.40L117.76-5.40L119.88-3.96Q118.64-1.92 116.48-0.86Q114.32 0.20 111.64 0.20L111.64 0.20Z M144.60 0L136.12-10.56L131.16-6L131.16 0L128.32 0L128.32-29.68L131.16-29.68L131.16-9.56L143.72-21.04L147.24-21.04L138.24-12.44L148.08 0L144.60 0Z M182 0.24Q177.84 0.24 174.50-1.60Q171.16-3.44 169.26-6.70Q167.36-9.96 167.36-14L167.36-14Q167.36-18.04 169.26-21.30Q171.16-24.56 174.52-26.40Q177.88-28.24 182.04-28.24L182.04-28.24Q185.16-28.24 187.80-27.20Q190.44-26.16 192.28-24.16L192.28-24.16L190.40-22.28Q187.12-25.60 182.12-25.60L182.12-25.60Q178.80-25.60 176.08-24.08Q173.36-22.56 171.82-19.92Q170.28-17.28 170.28-14L170.28-14Q170.28-10.72 171.82-8.08Q173.36-5.44 176.08-3.92Q178.80-2.40 182.12-2.40L182.12-2.40Q187.16-2.40 190.40-5.76L190.40-5.76L192.28-3.88Q190.44-1.88 187.78-0.82Q185.12 0.24 182 0.24L182 0.24Z M208.24-21.20Q212.36-21.20 214.56-19.14Q216.76-17.08 216.76-13.04L216.76-13.04L216.76 0L214.04 0L214.04-3.28Q213.08-1.64 211.22-0.72Q209.36 0.20 206.80 0.20L206.80 0.20Q203.28 0.20 201.20-1.48Q199.12-3.16 199.12-5.92L199.12-5.92Q199.12-8.60 201.06-10.24Q203-11.88 207.24-11.88L207.24-11.88L213.92-11.88L213.92-13.16Q213.92-15.88 212.40-17.30Q210.88-18.72 207.96-18.72L207.96-18.72Q205.96-18.72 204.12-18.06Q202.28-17.40 200.96-16.24L200.96-16.24L199.68-18.36Q201.28-19.72 203.52-20.46Q205.76-21.20 208.24-21.20L208.24-21.20ZM207.24-2.04Q209.64-2.04 211.36-3.14Q213.08-4.24 213.92-6.32L213.92-6.32L213.92-9.76L207.32-9.76Q201.92-9.76 201.92-6L201.92-6Q201.92-4.16 203.32-3.10Q204.72-2.04 207.24-2.04L207.24-2.04Z M230.40-16.92Q231.40-19.04 233.38-20.12Q235.36-21.20 238.28-21.20L238.28-21.20L238.28-18.44L237.60-18.48Q234.28-18.48 232.40-16.44Q230.52-14.40 230.52-10.72L230.52-10.72L230.52 0L227.68 0L227.68-21.04L230.40-21.04L230.40-16.92Z M264.76-10.52L264.72-9.64L247.12-9.64Q247.36-6.36 249.64-4.34Q251.92-2.32 255.40-2.32L255.40-2.32Q257.36-2.32 259.00-3.02Q260.64-3.72 261.84-5.08L261.84-5.08L263.44-3.24Q262.04-1.56 259.94-0.68Q257.84 0.20 255.32 0.20L255.32 0.20Q252.08 0.20 249.58-1.18Q247.08-2.56 245.68-5Q244.28-7.44 244.28-10.52L244.28-10.52Q244.28-13.60 245.62-16.04Q246.96-18.48 249.30-19.84Q251.64-21.20 254.56-21.20L254.56-21.20Q257.48-21.20 259.80-19.84Q262.12-18.48 263.44-16.06Q264.76-13.64 264.76-10.52L264.76-10.52ZM254.56-18.76Q251.52-18.76 249.46-16.82Q247.40-14.88 247.12-11.76L247.12-11.76L262.04-11.76Q261.76-14.88 259.70-16.82Q257.64-18.76 254.56-18.76L254.56-18.76Z M308.96 0L305.60-7.48L290.00-7.48L286.64 0L283.56 0L296.36-28L299.28-28L312.08 0L308.96 0ZM291.08-9.88L304.52-9.88L297.80-24.92L291.08-9.88Z M319.32 0L319.32-29.68L322.16-29.68L322.16 0L319.32 0Z M361.56-21.04L364.16-21.04L356.20 0L353.52 0L346.88-17.24L340.24 0L337.56 0L329.64-21.04L332.36-21.04L338.96-3.16L345.72-21.04L348.16-21.04L354.88-3.16L361.56-21.04Z M378.36-21.20Q382.48-21.20 384.68-19.14Q386.88-17.08 386.88-13.04L386.88-13.04L386.88 0L384.16 0L384.16-3.28Q383.20-1.64 381.34-0.72Q379.48 0.20 376.92 0.20L376.92 0.20Q373.40 0.20 371.32-1.48Q369.24-3.16 369.24-5.92L369.24-5.92Q369.24-8.60 371.18-10.24Q373.12-11.88 377.36-11.88L377.36-11.88L384.04-11.88L384.04-13.16Q384.04-15.88 382.52-17.30Q381.00-18.72 378.08-18.72L378.08-18.72Q376.08-18.72 374.24-18.06Q372.40-17.40 371.08-16.24L371.08-16.24L369.80-18.36Q371.40-19.72 373.64-20.46Q375.88-21.20 378.36-21.20L378.36-21.20ZM377.36-2.04Q379.76-2.04 381.48-3.14Q383.20-4.24 384.04-6.32L384.04-6.32L384.04-9.76L377.44-9.76Q372.04-9.76 372.04-6L372.04-6Q372.04-4.16 373.44-3.10Q374.84-2.04 377.36-2.04L377.36-2.04Z M412.28-21.04L415.08-21.04L404.56 2.52Q403.28 5.48 401.60 6.72Q399.92 7.96 397.56 7.96L397.56 7.96Q396.04 7.96 394.72 7.48Q393.40 7 392.44 6.04L392.44 6.04L393.76 3.92Q395.36 5.52 397.60 5.52L397.60 5.52Q399.04 5.52 400.06 4.72Q401.08 3.92 401.96 2L401.96 2L402.88-0.04L393.48-21.04L396.44-21.04L404.36-3.16L412.28-21.04Z M427.68 0.20Q425.12 0.20 422.78-0.54Q420.44-1.28 419.12-2.40L419.12-2.40L420.40-4.64Q421.72-3.60 423.72-2.94Q425.72-2.28 427.88-2.28L427.88-2.28Q430.76-2.28 432.14-3.18Q433.52-4.08 433.52-5.72L433.52-5.72Q433.52-6.88 432.76-7.54Q432-8.20 430.84-8.54Q429.68-8.88 427.76-9.20L427.76-9.20Q425.20-9.68 423.64-10.18Q422.08-10.68 420.98-11.88Q419.88-13.08 419.88-15.20L419.88-15.20Q419.88-17.84 422.08-19.52Q424.28-21.20 428.20-21.20L428.20-21.20Q430.24-21.20 432.28-20.66Q434.32-20.12 435.64-19.24L435.64-19.24L434.40-16.96Q431.80-18.76 428.20-18.76L428.20-18.76Q425.48-18.76 424.10-17.80Q422.72-16.84 422.72-15.28L422.72-15.28Q422.72-14.08 423.50-13.36Q424.28-12.64 425.44-12.30Q426.60-11.96 428.64-11.60L428.64-11.60Q431.16-11.12 432.68-10.64Q434.20-10.16 435.28-9Q436.36-7.84 436.36-5.80L436.36-5.80Q436.36-3.04 434.06-1.42Q431.76 0.20 427.68 0.20L427.68 0.20Z M464.52 0L464.52-25.44L454.68-25.44L454.68-28L477.32-28L477.32-25.44L467.48-25.44L467.48 0L464.52 0Z M495.36-21.20Q499.32-21.20 501.66-18.90Q504.00-16.60 504.00-12.20L504.00-12.20L504.00 0L501.16 0L501.16-11.92Q501.16-15.20 499.52-16.92Q497.88-18.64 494.84-18.64L494.84-18.64Q491.44-18.64 489.46-16.62Q487.48-14.60 487.48-11.04L487.48-11.04L487.48 0L484.64 0L484.64-29.68L487.48-29.68L487.48-17.36Q488.64-19.20 490.68-20.20Q492.72-21.20 495.36-21.20L495.36-21.20Z M533.36-10.52L533.32-9.64L515.72-9.64Q515.96-6.36 518.24-4.34Q520.52-2.32 524.00-2.32L524.00-2.32Q525.96-2.32 527.60-3.02Q529.24-3.72 530.44-5.08L530.44-5.08L532.04-3.24Q530.64-1.56 528.54-0.68Q526.44 0.20 523.92 0.20L523.92 0.20Q520.68 0.20 518.18-1.18Q515.68-2.56 514.28-5Q512.88-7.44 512.88-10.52L512.88-10.52Q512.88-13.60 514.22-16.04Q515.56-18.48 517.90-19.84Q520.24-21.20 523.16-21.20L523.16-21.20Q526.08-21.20 528.40-19.84Q530.72-18.48 532.04-16.06Q533.36-13.64 533.36-10.52L533.36-10.52ZM523.16-18.76Q520.12-18.76 518.06-16.82Q516.00-14.88 515.72-11.76L515.72-11.76L530.64-11.76Q530.36-14.88 528.30-16.82Q526.24-18.76 523.16-18.76L523.16-18.76Z M545.08-16.92Q546.08-19.04 548.06-20.12Q550.04-21.20 552.96-21.20L552.96-21.20L552.96-18.44L552.28-18.48Q548.96-18.48 547.08-16.44Q545.20-14.40 545.20-10.72L545.20-10.72L545.20 0L542.36 0L542.36-21.04L545.08-21.04L545.08-16.92Z M579.44-10.52L579.40-9.64L561.80-9.64Q562.04-6.36 564.32-4.34Q566.60-2.32 570.08-2.32L570.08-2.32Q572.04-2.32 573.68-3.02Q575.32-3.72 576.52-5.08L576.52-5.08L578.12-3.24Q576.72-1.56 574.62-0.68Q572.52 0.20 570 0.20L570 0.20Q566.76 0.20 564.26-1.18Q561.76-2.56 560.36-5Q558.96-7.44 558.96-10.52L558.96-10.52Q558.96-13.60 560.30-16.04Q561.64-18.48 563.98-19.84Q566.32-21.20 569.24-21.20L569.24-21.20Q572.16-21.20 574.48-19.84Q576.80-18.48 578.12-16.06Q579.44-13.64 579.44-10.52L579.44-10.52ZM569.24-18.76Q566.20-18.76 564.14-16.82Q562.08-14.88 561.80-11.76L561.80-11.76L576.72-11.76Q576.44-14.88 574.38-16.82Q572.32-18.76 569.24-18.76L569.24-18.76Z M586.44-17.44L586.24-28L588.76-28L588.56-17.44L586.44-17.44ZM593.28-17.44L593.08-28L595.60-28L595.40-17.44L593.28-17.44Z M603.64 0.20Q602.76 0.20 602.14-0.44Q601.52-1.08 601.52-2L601.52-2Q601.52-2.92 602.14-3.54Q602.76-4.16 603.64-4.16L603.64-4.16Q604.52-4.16 605.16-3.54Q605.80-2.92 605.80-2L605.80-2Q605.80-1.08 605.16-0.44Q604.52 0.20 603.64 0.20L603.64 0.20Z"/></g>
</svg>
</g><g opacity="1" transform="rotate(0 64.9254 286.1989)">
<svg width="362.6492" height="70" x="64.9254" y="286.1989" version="1.1" preserveAspectRatio="none" viewBox="1.96 -32.8 203.07999999999998 39.2">
  <g transform="matrix(1 0 0 1 0 0)" class="companyName"><path id="id-D6z1nYkh12" d="M18.68 6.40Q17.24 5.76 15.32 4Q13.40 2.24 12.20 0.40L12.20 0.40Q11.96 0.44 11.52 0.44L11.52 0.44Q6.36 0.44 4.16-2.26Q1.96-4.96 1.96-10.20L1.96-10.20L1.96-22.28Q1.96-27.52 4.16-30.16Q6.36-32.80 11.52-32.80L11.52-32.80Q16.64-32.80 18.86-30.14Q21.08-27.48 21.08-22.28L21.08-22.28L21.08-10.16Q21.08-6.56 20.04-4.16Q19-1.76 16.72-0.64L16.72-0.64Q18.72 1.60 20 2.32L20 2.32L18.68 6.40ZM11.52-4.28Q13.24-4.28 13.80-5.42Q14.36-6.56 14.36-8.56L14.36-8.56L14.36-23.88Q14.36-25.88 13.80-26.98Q13.24-28.08 11.52-28.08L11.52-28.08Q9.76-28.08 9.22-27Q8.68-25.92 8.68-23.88L8.68-23.88L8.68-8.56Q8.68-6.52 9.24-5.40Q9.80-4.28 11.52-4.28L11.52-4.28Z M29 0.40Q27 0.40 25.94-1.08Q24.88-2.56 24.88-4.88L24.88-4.88L24.88-23.12L30.92-23.12L30.92-5.72Q30.92-4.76 31.26-4.28Q31.60-3.80 32.40-3.80L32.40-3.80Q33.24-3.80 34.52-4.68L34.52-4.68L34.52-23.12L40.56-23.12L40.56 0L34.52 0L34.52-2.16Q31.76 0.40 29 0.40L29 0.40Z M44.76-26.92L44.76-31.44L50.84-31.44L50.84-26.92L44.76-26.92ZM44.80 0L44.80-23.12L50.84-23.12L50.84 0L44.80 0Z M62.28 0.40Q58.48 0.40 56.52-1.72Q54.56-3.84 54.56-7.68L54.56-7.68L54.56-15.48Q54.56-19.36 56.52-21.44Q58.48-23.52 62.28-23.52L62.28-23.52Q66-23.52 67.90-21.76Q69.80-20 69.80-16.48L69.80-16.48L69.80-14.28L64-14.28L64-16.64Q64-18.16 63.60-18.74Q63.20-19.32 62.32-19.32L62.32-19.32Q61.36-19.32 60.98-18.60Q60.60-17.88 60.60-16.08L60.60-16.08L60.60-6.96Q60.60-5.16 61.02-4.48Q61.44-3.80 62.32-3.80L62.32-3.80Q63.24-3.80 63.62-4.44Q64-5.08 64-6.48L64-6.48L64-9.28L69.80-9.28L69.80-6.72Q69.80-3.24 67.88-1.42Q65.96 0.40 62.28 0.40L62.28 0.40Z M73.28 0L73.28-32.40L79.28-32.40L79.28-14.16L85.08-23.12L91.80-23.12L85.80-13.72L91.72 0L85.20 0L81.08-11.20L79.28-8.80L79.28 0L73.28 0Z M104.40 0L104.40-32.40L111-32.40L111-19.12L116.72-19.12L116.72-32.40L123.32-32.40L123.32 0L116.72 0L116.72-14.36L111-14.36L111 0L104.40 0Z M135.20 0.40Q131.40 0.40 129.42-1.68Q127.44-3.76 127.44-7.68L127.44-7.68L127.44-15.44Q127.44-19.36 129.44-21.44Q131.44-23.52 135.20-23.52L135.20-23.52Q139.08-23.52 140.88-21.44Q142.68-19.36 142.68-15.28L142.68-15.28L142.68-11.24L133.44-11.24L133.44-6.76Q133.44-5.28 133.90-4.60Q134.36-3.92 135.24-3.92L135.24-3.92Q137.04-3.92 137.04-6.52L137.04-6.52L137.04-8.76L142.64-8.76L142.64-6.76Q142.64-3.28 140.72-1.44Q138.80 0.40 135.20 0.40L135.20 0.40ZM133.44-14.12L137.04-14.12L137.04-16.36Q137.04-17.88 136.60-18.54Q136.16-19.20 135.20-19.20L135.20-19.20Q134.28-19.20 133.86-18.48Q133.44-17.76 133.44-15.92L133.44-15.92L133.44-14.12Z M150.92 0.40Q149.32 0.40 148.12-0.40Q146.92-1.20 146.30-2.50Q145.68-3.80 145.68-5.20L145.68-5.20Q145.68-7.88 147-9.60Q148.32-11.32 150.18-12.28Q152.04-13.24 155.12-14.36L155.12-14.36L155.12-16.52Q155.12-17.76 154.78-18.40Q154.44-19.04 153.56-19.04L153.56-19.04Q152.68-19.04 152.32-18.48Q151.96-17.92 151.88-16.88L151.88-16.88L151.76-15.28L146.08-15.52Q146.24-19.64 148.20-21.58Q150.16-23.52 154.08-23.52L154.08-23.52Q157.48-23.52 159.20-21.64Q160.92-19.76 160.92-16.48L160.92-16.48L160.92-5.72Q160.92-3 161.32 0L161.32 0L155.92 0Q155.76-1.16 155.40-3.32L155.40-3.32Q154.92-1.72 153.78-0.66Q152.64 0.40 150.92 0.40L150.92 0.40ZM153.08-3.88Q153.68-3.88 154.22-4.28Q154.76-4.68 155.12-5.20L155.12-5.20L155.12-11.56Q153.24-10.48 152.24-9.32Q151.24-8.16 151.24-6.48L151.24-6.48Q151.24-5.24 151.72-4.56Q152.20-3.88 153.08-3.88L153.08-3.88Z M165.20 0L165.20-32.40L171.20-32.40L171.20 0L165.20 0Z M182.40 0.28Q178.92 0.28 177.58-1.28Q176.24-2.84 176.24-6.04L176.24-6.04L176.24-19.16L173.96-19.16L173.96-23.12L176.24-23.12L176.24-30.08L182.36-30.08L182.36-23.12L185.72-23.12L185.72-19.16L182.36-19.16L182.36-6.64Q182.36-4.60 184.40-4.60L184.40-4.60Q185.48-4.60 186.12-4.76L186.12-4.76L186.12-0.04Q184.00 0.28 182.40 0.28L182.40 0.28Z M189.28 0L189.28-32.40L195.32-32.40L195.32-21Q197.84-23.52 201.00-23.52L201.00-23.52Q202.96-23.52 204.00-22.04Q205.04-20.56 205.04-18.24L205.04-18.24L205.04 0L199.04 0L199.04-17.28Q199.04-18.24 198.72-18.70Q198.40-19.16 197.64-19.16L197.64-19.16Q196.64-19.16 195.32-18.16L195.32-18.16L195.32 0L189.28 0Z"/></g>
</svg>
</g><g opacity="1" transform="rotate(0 173.7202 72.5067)">
<svg width="145.0596" height="173.6922" x="173.7202" y="72.5067" version="1.1" preserveAspectRatio="none" viewBox="11.097821235656738 4.313446044921875 75.30362701416016 90.16747283935547">
  <g transform="matrix(1 0 0 1 0 0)" class="icon1"><g><path d="m62.199 7.8008c-0.30078 1.1016-0.69922 2.1016-1.1016 3.1016-1.5 3.1992-3.8984 5.6016-6.6992 7.6016-3.6992 2.6016-7.8008 4.3008-12.102 5.5-2.1016 0.60156-4.1992 1.1016-6.3984 1.5 0.5-0.5 1.1016-0.89844 1.6016-1.3008 2.5-1.6992 5.1992-3.1016 7.8984-4.6016 3.1992-1.6992 6.3984-3.6016 9.3984-5.8008 1.1992-0.89844 2.3984-2 3.5-3.1016-0.10156 0-0.10156-0.10156-0.10156-0.10156-3.6016 2.3008-7.5 3.8984-11.398 5.3984-3.3008 1.3008-6.5 2.6992-9.5 4.6016-0.80078 0.5-1.5 1.1016-2.3008 1.8008 0-0.89844-0.10156-1.6992 0-2.6016 0.69922-5.8008 3.8008-10.102 8.8008-12.898 4.9023-2.6992 10.102-3.1992 15.504-1.8984 4.3984 1.1016 8 3.3984 10.898 6.8984 2.5 3.1992 3.8008 6.8008 3.3984 10.801-0.19922 1.8008-0.60156 3.5-1.5 5 0 0.10156-0.10156 0.10156-0.19922 0.30078 0.30078-2.1992 0.19922-4.1992-0.69922-6.1016-0.60156 2.6992-1.3984 5.3008-0.69922 8 0.5 1.8008 0.19922 3.5-0.19922 5.3008-0.80078 3.6016-2.1992 7-3.8008 10.301-1.1016 2.1992-2.3008 2.6992-5 2.5-3.1992-0.30078-6.1016-1.6992-8.8984-3.3008-2.3008-1.3008-4.3984-2.8008-6.5-4.5 0.10156 0.69922 0.39844 1.3008 0.69922 1.8008 1.3008 2.6016 3.1016 4.6992 5.5 6.5 2.1992 1.6016 4.6016 2.8984 7.1992 3.6992 0.30078 0.10156 0.39844 0.19922 0.39844 0.5 0.19922 2.1992 0.89844 4.3984 1.6016 6.5 0.60156 1.6992 0.10156 2.6992-1.6016 3.3008-1.6992 0.60156-3.3984 0.5-5.1992 0.19922-3.5-0.5-6.6016-2.1016-9.6016-3.6992-0.19922-0.10156-0.30078-0.30078-0.39844-0.5-1-1.6016-2-3.1992-3-4.8008-0.19922-0.30078-0.10156-0.60156 0-0.89844 0.89844-1.8984 1.6016-3.8984 2-5.8984 0.69922-3.1992 0.80078-6.3984-0.10156-9.6016-0.10156-0.39844-0.19922-0.60156-0.69922-0.69922-1.1992-0.30078-2.3008-1-3.1992-1.8984-1.6016-1.6992-2.6016-3.6016-3.3984-5.8008-0.19922-0.5 0-0.60156 0.39844-0.60156 4.5-0.30078 8.8984-1.3008 13-3.1992 4.1992-1.8984 7.8008-4.6016 10.398-8.5 1.6016-2.5 2.5-5.1992 2.3008-8.3008-0.097657 0 0-0.19922-0.19922-0.5z"></path><path d="m35.199 57c-4.1016 2.3984-8.1016 4.6016-11.898 7-2.1016 1.3008-3.6016 3.1016-4.6016 5.3984-0.10156 0.30078-0.19922 0.39844-0.5 0.30078-2.6016-0.69922-4.6992-1.8984-6.3008-4.1016-0.30078-0.39844-0.60156-0.89844-0.80078-1.5 1.3008 0.69922 2.6016 0.89844 3.8984 0.60156 2.1016-0.5 3.3008-1.8984 4.1992-3.6992 1.1992-2.3008 1.6016-4.6992 1.8984-7.1992 0.39844-3.3008 0.30078-6.6016 0.39844-9.8984 0.10156-3.8008 0.89844-7.3984 2.6016-10.699 1.8984-3.6992 4.8008-6.1992 8.6992-7.8008 0.19922-0.10156 0.39844-0.19922 0.39844 0.19922 0.19922 3 1.1992 5.6992 3.1016 8.1016 0.30078 0.39844 0.30078 0.60156 0.10156 1.1016-0.60156 1.6992-0.69922 3.3984-0.60156 5.1992 0.10156 2.3984 0.5 4.6992 0.60156 7 0.10156 2.5 0 5-0.39844 7.3984v0.10156c1.1016-1.5 2.3984-2.6992 4.1016-3.5 0 0.19922-0.10156 0.39844-0.19922 0.5-0.89844 1.8984-1.8008 3.6992-2.1016 5.8008-0.19922 1.5-0.19922 3 0.10156 4.5 0.10156 0.39844 0.19922 0.5 0.60156 0.39844 2.3984-0.10156 4.5 0.60156 6.3984 2.1016 2.1016 1.6992 3.1992 4 3.5 6.6992 0.10156 0.89844 0.10156 1.8008 0.10156 2.8008 0 0.19922 0 0.39844-0.30078 0.39844s-0.19922 0.19922-0.19922 0.39844c0 1.6992-0.19922 3.3984-0.39844 5.1992-0.5 3.1992-1.3984 6.3008-3.1992 9.1016-0.10156 0.19922-0.10156 0.30078 0.10156 0.5 0.69922 0.39844 1.5 0.69922 2.1992 0.89844 0.30078 0.10156 0.39844-0.10156 0.60156-0.30078 0.80078-0.60156 1.8984-0.5 2.6016 0.10156 0.80078 0.69922 1 1.6992 0.5 2.6016-0.69922 1.3008-2.5 1.5-3.3984 0.39844-0.19922-0.19922-0.39844-0.39844-0.69922-0.39844-1.3008-0.30078-2.3984-0.80078-3.5-1.6016-0.19922-0.19922-0.39844-0.19922-0.60156 0-1 0.69922-2 1.3008-3.1992 1.5-0.30078 0.10156-0.39844 0.19922-0.60156 0.39844-0.80078 0.89844-2.1992 0.89844-3.1016 0.10156-0.80078-0.80078-0.89844-2.1016-0.10156-3 0.69922-0.69922 1.8008-0.89844 2.8008-0.30078 0.39844 0.19922 0.69922 0.30078 1.1016 0.10156 0.39844-0.19922 1-0.39844 1.1016-0.69922 0.10156-0.39844-0.5-0.69922-0.80078-1-2.6992-3-4.8008-6.3984-6.6016-10-0.10156-0.30078-0.10156-0.89844-0.69922-0.5l-0.19922-0.19922c-1.1016-2-2.1016-4.1016-2-6.5 0.10156-3.3984 1.6016-6 4.6016-7.6992 0.5-0.30078 0.60156-0.5 0.5-1-0.19922-0.89844-0.19922-1.8008-0.10156-2.6992-0.10547-0.60547-0.007812-1.5039 0.29297-2.6055zm10.301 18.898v-1.1016c0-0.19922 0-0.39844-0.30078-0.30078-0.39844 0-0.39844-0.19922-0.39844-0.5 0-1 0-2-0.30078-3-0.60156-2.1992-1.8984-3.6992-4.1992-4.1992s-4.1992 0.19922-5.6016 2.1016c-1.1016 1.3984-1.1992 3-0.69922 4.6016 0.30078 1 0.69922 1.8984 1.1016 2.8984 0.10156 0.19922 0.30078 0.39844 0 0.5-0.39844 0.19922-0.19922 0.39844-0.10156 0.60156 0.89844 2 2 3.8984 3.3008 5.6992 1.1016 1.5 2.1992 3 3.6016 4.3008 0.30078 0.30078 0.39844 0.30078 0.60156-0.10156 0.30078-0.60156 0.69922-1.1992 0.89844-1.8008 1.2969-3.0977 1.8984-6.2969 2.0977-9.6992z"></path><path d="m75.102 91.102c0.10156-1 0.19922-1.8984 0.19922-2.8984 0.30078-3.1016 0.19922-6.3008 0.19922-9.3984 0-0.39844-0.19922-0.39844-0.5-0.39844-1.5-0.10156-2.8008-0.69922-3.6992-1.8984-1.3984-1.8984-1.1016-4.5 0.80078-6 0.39844-0.39844 0.5-0.60156 0.30078-1.1992-1.6992-3.8984-3.8984-7.3984-7-10.301-0.80078-0.69922-1.6016-1.5-2.5-2-0.19922-0.10156-0.30078-0.19922-0.30078-0.39844-0.19922-0.69922-0.5-1.3008-0.60156-2.1016 0.19922 0 0.30078 0.10156 0.39844 0.10156 2.3008 1.1016 4.3008 2.6016 6.1016 4.5 0.30078 0.30078 0.60156 0.5 0.89844 0.60156 2 0.80078 4 1.3984 5.8984 2.3984 2.3008 1.1992 4.1016 3 5 5.3984 2 5.1016 4 10.199 6 15.301 0.19922 0.39844 0.10156 0.60156-0.19922 0.89844-3.3008 2.6992-6.6992 5.1992-10.5 7.1016-0.19922 0.19141-0.29688 0.29297-0.49609 0.29297zm3.3984-17.203c0-1.8008-1.3984-3.3984-3.1992-3.3984s-3.3008 1.5-3.3008 3.3008c0 1.8984 1.3984 3.3008 3.3008 3.3984 1.6992 0 3.1992-1.5 3.1992-3.3008z"></path><path d="m47.898 63.301c6 4.6992 11.5 10.199 16.898 15.801-0.10156-6.8008-0.39844-13.5-1.3008-20.102 0.69922 1.3984 1.1992 2.8008 1.8008 4.3008 1.8008 4.6016 3.3008 9.1992 4.3008 14.102 1.1016 5 1.6992 10 1.8008 15 0 0.30078-0.10156 0.5-0.39844 0.60156-1.3008 0.39844-2.5 0.89844-3.6992 1.3984-0.5 0.19922-0.69922 0-0.89844-0.39844-1.3984-2.6992-2.8008-5.3984-4.3008-8.1016-3.8984-6.8984-8.1992-13.602-12.602-20.301-0.60156-0.70312-1.1016-1.5-1.6016-2.3008z"></path></g></g>
</svg>
</g></svg></svg>