<svg version="1.1" preserveAspectRatio="none" xmlns="http://www.w3.org/2000/svg" width="500" height="500" viewBox="0 0 500 500"><rect width="100%" height="100%" fill="#FFFFFF" fill-opacity="1"/><svg viewBox="31.4504 153.2363 491.3973 118.5" width="333" height="80.30263902548916" x="83.5px" y="209.8487px" xmlns="http://www.w3.org/2000/svg" xmlns:xlink="http://www.w3.org/1999/xlink" preserveAspectRatio="none"><defs></defs><style>.aD6z1nYkhcolor {fill:#42A5FF;fill-opacity:1;}.aIptOCySncolors-3 {fill:#3CB9EF;fill-opacity:1;}.aIptOCySncolors-4 {fill:#83EDFF;fill-opacity:1;}.aIptOCySncolors-5 {fill:#AEDDFF;fill-opacity:1;}.aIptOCySncolors-6 {fill:#FFF1FF;fill-opacity:1;}.aIptOCySncolors-7 {fill:#FFE4CE;fill-opacity:1;}.icon1 {fill:#42A5FF;fill-opacity:1;}.icon2 {fill:#6DDDD0;fill-opacity:1;}.icon3 {fill:#FFD4D4;fill-opacity:1;}.icon3-str {stroke:#FFD4D4;stroke-opacity:1;}.text {fill:#42A5FF;fill-opacity:1;}</style><g opacity="1" transform="rotate(0 31.4504 153.2363)">
<svg width="98.9656" height="118.5" x="31.4504" y="153.2363" version="1.1" preserveAspectRatio="none" viewBox="11.097821235656738 4.313446044921875 75.30362701416016 90.16747283935547">
  <g transform="matrix(1 0 0 1 0 0)" class="icon1"><g><path d="m62.199 7.8008c-0.30078 1.1016-0.69922 2.1016-1.1016 3.1016-1.5 3.1992-3.8984 5.6016-6.6992 7.6016-3.6992 2.6016-7.8008 4.3008-12.102 5.5-2.1016 0.60156-4.1992 1.1016-6.3984 1.5 0.5-0.5 1.1016-0.89844 1.6016-1.3008 2.5-1.6992 5.1992-3.1016 7.8984-4.6016 3.1992-1.6992 6.3984-3.6016 9.3984-5.8008 1.1992-0.89844 2.3984-2 3.5-3.1016-0.10156 0-0.10156-0.10156-0.10156-0.10156-3.6016 2.3008-7.5 3.8984-11.398 5.3984-3.3008 1.3008-6.5 2.6992-9.5 4.6016-0.80078 0.5-1.5 1.1016-2.3008 1.8008 0-0.89844-0.10156-1.6992 0-2.6016 0.69922-5.8008 3.8008-10.102 8.8008-12.898 4.9023-2.6992 10.102-3.1992 15.504-1.8984 4.3984 1.1016 8 3.3984 10.898 6.8984 2.5 3.1992 3.8008 6.8008 3.3984 10.801-0.19922 1.8008-0.60156 3.5-1.5 5 0 0.10156-0.10156 0.10156-0.19922 0.30078 0.30078-2.1992 0.19922-4.1992-0.69922-6.1016-0.60156 2.6992-1.3984 5.3008-0.69922 8 0.5 1.8008 0.19922 3.5-0.19922 5.3008-0.80078 3.6016-2.1992 7-3.8008 10.301-1.1016 2.1992-2.3008 2.6992-5 2.5-3.1992-0.30078-6.1016-1.6992-8.8984-3.3008-2.3008-1.3008-4.3984-2.8008-6.5-4.5 0.10156 0.69922 0.39844 1.3008 0.69922 1.8008 1.3008 2.6016 3.1016 4.6992 5.5 6.5 2.1992 1.6016 4.6016 2.8984 7.1992 3.6992 0.30078 0.10156 0.39844 0.19922 0.39844 0.5 0.19922 2.1992 0.89844 4.3984 1.6016 6.5 0.60156 1.6992 0.10156 2.6992-1.6016 3.3008-1.6992 0.60156-3.3984 0.5-5.1992 0.19922-3.5-0.5-6.6016-2.1016-9.6016-3.6992-0.19922-0.10156-0.30078-0.30078-0.39844-0.5-1-1.6016-2-3.1992-3-4.8008-0.19922-0.30078-0.10156-0.60156 0-0.89844 0.89844-1.8984 1.6016-3.8984 2-5.8984 0.69922-3.1992 0.80078-6.3984-0.10156-9.6016-0.10156-0.39844-0.19922-0.60156-0.69922-0.69922-1.1992-0.30078-2.3008-1-3.1992-1.8984-1.6016-1.6992-2.6016-3.6016-3.3984-5.8008-0.19922-0.5 0-0.60156 0.39844-0.60156 4.5-0.30078 8.8984-1.3008 13-3.1992 4.1992-1.8984 7.8008-4.6016 10.398-8.5 1.6016-2.5 2.5-5.1992 2.3008-8.3008-0.097657 0 0-0.19922-0.19922-0.5z"></path><path d="m35.199 57c-4.1016 2.3984-8.1016 4.6016-11.898 7-2.1016 1.3008-3.6016 3.1016-4.6016 5.3984-0.10156 0.30078-0.19922 0.39844-0.5 0.30078-2.6016-0.69922-4.6992-1.8984-6.3008-4.1016-0.30078-0.39844-0.60156-0.89844-0.80078-1.5 1.3008 0.69922 2.6016 0.89844 3.8984 0.60156 2.1016-0.5 3.3008-1.8984 4.1992-3.6992 1.1992-2.3008 1.6016-4.6992 1.8984-7.1992 0.39844-3.3008 0.30078-6.6016 0.39844-9.8984 0.10156-3.8008 0.89844-7.3984 2.6016-10.699 1.8984-3.6992 4.8008-6.1992 8.6992-7.8008 0.19922-0.10156 0.39844-0.19922 0.39844 0.19922 0.19922 3 1.1992 5.6992 3.1016 8.1016 0.30078 0.39844 0.30078 0.60156 0.10156 1.1016-0.60156 1.6992-0.69922 3.3984-0.60156 5.1992 0.10156 2.3984 0.5 4.6992 0.60156 7 0.10156 2.5 0 5-0.39844 7.3984v0.10156c1.1016-1.5 2.3984-2.6992 4.1016-3.5 0 0.19922-0.10156 0.39844-0.19922 0.5-0.89844 1.8984-1.8008 3.6992-2.1016 5.8008-0.19922 1.5-0.19922 3 0.10156 4.5 0.10156 0.39844 0.19922 0.5 0.60156 0.39844 2.3984-0.10156 4.5 0.60156 6.3984 2.1016 2.1016 1.6992 3.1992 4 3.5 6.6992 0.10156 0.89844 0.10156 1.8008 0.10156 2.8008 0 0.19922 0 0.39844-0.30078 0.39844s-0.19922 0.19922-0.19922 0.39844c0 1.6992-0.19922 3.3984-0.39844 5.1992-0.5 3.1992-1.3984 6.3008-3.1992 9.1016-0.10156 0.19922-0.10156 0.30078 0.10156 0.5 0.69922 0.39844 1.5 0.69922 2.1992 0.89844 0.30078 0.10156 0.39844-0.10156 0.60156-0.30078 0.80078-0.60156 1.8984-0.5 2.6016 0.10156 0.80078 0.69922 1 1.6992 0.5 2.6016-0.69922 1.3008-2.5 1.5-3.3984 0.39844-0.19922-0.19922-0.39844-0.39844-0.69922-0.39844-1.3008-0.30078-2.3984-0.80078-3.5-1.6016-0.19922-0.19922-0.39844-0.19922-0.60156 0-1 0.69922-2 1.3008-3.1992 1.5-0.30078 0.10156-0.39844 0.19922-0.60156 0.39844-0.80078 0.89844-2.1992 0.89844-3.1016 0.10156-0.80078-0.80078-0.89844-2.1016-0.10156-3 0.69922-0.69922 1.8008-0.89844 2.8008-0.30078 0.39844 0.19922 0.69922 0.30078 1.1016 0.10156 0.39844-0.19922 1-0.39844 1.1016-0.69922 0.10156-0.39844-0.5-0.69922-0.80078-1-2.6992-3-4.8008-6.3984-6.6016-10-0.10156-0.30078-0.10156-0.89844-0.69922-0.5l-0.19922-0.19922c-1.1016-2-2.1016-4.1016-2-6.5 0.10156-3.3984 1.6016-6 4.6016-7.6992 0.5-0.30078 0.60156-0.5 0.5-1-0.19922-0.89844-0.19922-1.8008-0.10156-2.6992-0.10547-0.60547-0.007812-1.5039 0.29297-2.6055zm10.301 18.898v-1.1016c0-0.19922 0-0.39844-0.30078-0.30078-0.39844 0-0.39844-0.19922-0.39844-0.5 0-1 0-2-0.30078-3-0.60156-2.1992-1.8984-3.6992-4.1992-4.1992s-4.1992 0.19922-5.6016 2.1016c-1.1016 1.3984-1.1992 3-0.69922 4.6016 0.30078 1 0.69922 1.8984 1.1016 2.8984 0.10156 0.19922 0.30078 0.39844 0 0.5-0.39844 0.19922-0.19922 0.39844-0.10156 0.60156 0.89844 2 2 3.8984 3.3008 5.6992 1.1016 1.5 2.1992 3 3.6016 4.3008 0.30078 0.30078 0.39844 0.30078 0.60156-0.10156 0.30078-0.60156 0.69922-1.1992 0.89844-1.8008 1.2969-3.0977 1.8984-6.2969 2.0977-9.6992z"></path><path d="m75.102 91.102c0.10156-1 0.19922-1.8984 0.19922-2.8984 0.30078-3.1016 0.19922-6.3008 0.19922-9.3984 0-0.39844-0.19922-0.39844-0.5-0.39844-1.5-0.10156-2.8008-0.69922-3.6992-1.8984-1.3984-1.8984-1.1016-4.5 0.80078-6 0.39844-0.39844 0.5-0.60156 0.30078-1.1992-1.6992-3.8984-3.8984-7.3984-7-10.301-0.80078-0.69922-1.6016-1.5-2.5-2-0.19922-0.10156-0.30078-0.19922-0.30078-0.39844-0.19922-0.69922-0.5-1.3008-0.60156-2.1016 0.19922 0 0.30078 0.10156 0.39844 0.10156 2.3008 1.1016 4.3008 2.6016 6.1016 4.5 0.30078 0.30078 0.60156 0.5 0.89844 0.60156 2 0.80078 4 1.3984 5.8984 2.3984 2.3008 1.1992 4.1016 3 5 5.3984 2 5.1016 4 10.199 6 15.301 0.19922 0.39844 0.10156 0.60156-0.19922 0.89844-3.3008 2.6992-6.6992 5.1992-10.5 7.1016-0.19922 0.19141-0.29688 0.29297-0.49609 0.29297zm3.3984-17.203c0-1.8008-1.3984-3.3984-3.1992-3.3984s-3.3008 1.5-3.3008 3.3008c0 1.8984 1.3984 3.3008 3.3008 3.3984 1.6992 0 3.1992-1.5 3.1992-3.3008z"></path><path d="m47.898 63.301c6 4.6992 11.5 10.199 16.898 15.801-0.10156-6.8008-0.39844-13.5-1.3008-20.102 0.69922 1.3984 1.1992 2.8008 1.8008 4.3008 1.8008 4.6016 3.3008 9.1992 4.3008 14.102 1.1016 5 1.6992 10 1.8008 15 0 0.30078-0.10156 0.5-0.39844 0.60156-1.3008 0.39844-2.5 0.89844-3.6992 1.3984-0.5 0.19922-0.69922 0-0.89844-0.39844-1.3984-2.6992-2.8008-5.3984-4.3008-8.1016-3.8984-6.8984-8.1992-13.602-12.602-20.301-0.60156-0.70312-1.1016-1.5-1.6016-2.3008z"></path></g></g>
</svg>
</g><g opacity="1" transform="rotate(0 150.416 234.2363)">
<svg width="372.4317" height="22.5" x="150.416" y="234.2363" version="1.1" preserveAspectRatio="none" viewBox="2.76 -29.68 623.04 37.64">
  <g transform="matrix(1 0 0 1 0 0)" class="text"><path id="id-6izo4zJp26" d="M2.96-17.44L2.76-28L5.28-28L5.08-17.44L2.96-17.44ZM9.80-17.44L9.60-28L12.12-28L11.92-17.44L9.80-17.44Z M50.24 0.64L51.68 2.36Q50.40 3.92 48.66 4.74Q46.92 5.56 44.88 5.56L44.88 5.56Q42.40 5.56 40.18 4.34Q37.96 3.12 35.20 0.24L35.20 0.24Q31.16 0.12 27.92-1.76Q24.68-3.64 22.84-6.84Q21-10.04 21-14L21-14Q21-18.04 22.90-21.28Q24.80-24.52 28.18-26.38Q31.56-28.24 35.72-28.24L35.72-28.24Q39.88-28.24 43.22-26.40Q46.56-24.56 48.48-21.30Q50.40-18.04 50.40-14L50.40-14Q50.40-10.48 48.94-7.54Q47.48-4.60 44.86-2.64Q42.24-0.68 38.84-0.04L38.84-0.04Q41.92 3.20 44.92 3.20L44.92 3.20Q48.04 3.20 50.24 0.64L50.24 0.64ZM23.92-14Q23.92-10.72 25.46-8.08Q27-5.44 29.70-3.92Q32.40-2.40 35.72-2.40L35.72-2.40Q39.04-2.40 41.72-3.92Q44.40-5.44 45.92-8.08Q47.44-10.72 47.44-14L47.44-14Q47.44-17.28 45.92-19.92Q44.40-22.56 41.72-24.08Q39.04-25.60 35.72-25.60L35.72-25.60Q32.40-25.60 29.70-24.08Q27-22.56 25.46-19.92Q23.92-17.28 23.92-14L23.92-14Z M76.56-21.04L79.40-21.04L79.40 0L76.68 0L76.68-3.84Q75.56-1.92 73.60-0.86Q71.64 0.20 69.12 0.20L69.12 0.20Q65 0.20 62.62-2.10Q60.24-4.40 60.24-8.84L60.24-8.84L60.24-21.04L63.08-21.04L63.08-9.12Q63.08-5.80 64.72-4.08Q66.36-2.36 69.40-2.36L69.40-2.36Q72.72-2.36 74.64-4.38Q76.56-6.40 76.56-10L76.56-10L76.56-21.04Z M91.36 0L91.36-21.04L94.20-21.04L94.20 0L91.36 0ZM92.80-25.64Q91.92-25.64 91.32-26.24Q90.72-26.84 90.72-27.68L90.72-27.68Q90.72-28.48 91.32-29.08Q91.92-29.68 92.80-29.68L92.80-29.68Q93.68-29.68 94.28-29.10Q94.88-28.52 94.88-27.72L94.88-27.72Q94.88-26.84 94.28-26.24Q93.68-25.64 92.80-25.64L92.80-25.64Z M114.84 0.20Q111.72 0.20 109.26-1.16Q106.80-2.52 105.40-4.98Q104.00-7.44 104.00-10.52L104.00-10.52Q104.00-13.60 105.40-16.04Q106.80-18.48 109.26-19.84Q111.72-21.20 114.84-21.20L114.84-21.20Q117.56-21.20 119.70-20.14Q121.84-19.08 123.08-17.04L123.08-17.04L120.96-15.60Q119.92-17.16 118.32-17.94Q116.72-18.72 114.84-18.72L114.84-18.72Q112.56-18.72 110.74-17.70Q108.92-16.68 107.90-14.80Q106.88-12.92 106.88-10.52L106.88-10.52Q106.88-8.08 107.90-6.22Q108.92-4.36 110.74-3.34Q112.56-2.32 114.84-2.32L114.84-2.32Q116.72-2.32 118.32-3.08Q119.92-3.84 120.96-5.40L120.96-5.40L123.08-3.96Q121.84-1.92 119.68-0.86Q117.52 0.20 114.84 0.20L114.84 0.20Z M148.60 0L140.12-10.56L135.16-6L135.16 0L132.32 0L132.32-29.68L135.16-29.68L135.16-9.56L147.72-21.04L151.24-21.04L142.24-12.44L152.08 0L148.60 0Z M187.60 0.24Q183.44 0.24 180.10-1.60Q176.76-3.44 174.86-6.70Q172.96-9.96 172.96-14L172.96-14Q172.96-18.04 174.86-21.30Q176.76-24.56 180.12-26.40Q183.48-28.24 187.64-28.24L187.64-28.24Q190.76-28.24 193.40-27.20Q196.04-26.16 197.88-24.16L197.88-24.16L196-22.28Q192.72-25.60 187.72-25.60L187.72-25.60Q184.40-25.60 181.68-24.08Q178.96-22.56 177.42-19.92Q175.88-17.28 175.88-14L175.88-14Q175.88-10.72 177.42-8.08Q178.96-5.44 181.68-3.92Q184.40-2.40 187.72-2.40L187.72-2.40Q192.76-2.40 196-5.76L196-5.76L197.88-3.88Q196.04-1.88 193.38-0.82Q190.72 0.24 187.60 0.24L187.60 0.24Z M214.64-21.20Q218.76-21.20 220.96-19.14Q223.16-17.08 223.16-13.04L223.16-13.04L223.16 0L220.44 0L220.44-3.28Q219.48-1.64 217.62-0.72Q215.76 0.20 213.20 0.20L213.20 0.20Q209.68 0.20 207.60-1.48Q205.52-3.16 205.52-5.92L205.52-5.92Q205.52-8.60 207.46-10.24Q209.40-11.88 213.64-11.88L213.64-11.88L220.32-11.88L220.32-13.16Q220.32-15.88 218.80-17.30Q217.28-18.72 214.36-18.72L214.36-18.72Q212.36-18.72 210.52-18.06Q208.68-17.40 207.36-16.24L207.36-16.24L206.08-18.36Q207.68-19.72 209.92-20.46Q212.16-21.20 214.64-21.20L214.64-21.20ZM213.64-2.04Q216.04-2.04 217.76-3.14Q219.48-4.24 220.32-6.32L220.32-6.32L220.32-9.76L213.72-9.76Q208.32-9.76 208.32-6L208.32-6Q208.32-4.16 209.72-3.10Q211.12-2.04 213.64-2.04L213.64-2.04Z M237.60-16.92Q238.60-19.04 240.58-20.12Q242.56-21.20 245.48-21.20L245.48-21.20L245.48-18.44L244.80-18.48Q241.48-18.48 239.60-16.44Q237.72-14.40 237.72-10.72L237.72-10.72L237.72 0L234.88 0L234.88-21.04L237.60-21.04L237.60-16.92Z M272.76-10.52L272.72-9.64L255.12-9.64Q255.36-6.36 257.64-4.34Q259.92-2.32 263.40-2.32L263.40-2.32Q265.36-2.32 267.00-3.02Q268.64-3.72 269.84-5.08L269.84-5.08L271.44-3.24Q270.04-1.56 267.94-0.68Q265.84 0.20 263.32 0.20L263.32 0.20Q260.08 0.20 257.58-1.18Q255.08-2.56 253.68-5Q252.28-7.44 252.28-10.52L252.28-10.52Q252.28-13.60 253.62-16.04Q254.96-18.48 257.30-19.84Q259.64-21.20 262.56-21.20L262.56-21.20Q265.48-21.20 267.80-19.84Q270.12-18.48 271.44-16.06Q272.76-13.64 272.76-10.52L272.76-10.52ZM262.56-18.76Q259.52-18.76 257.46-16.82Q255.40-14.88 255.12-11.76L255.12-11.76L270.04-11.76Q269.76-14.88 267.70-16.82Q265.64-18.76 262.56-18.76L262.56-18.76Z M318.56 0L315.20-7.48L299.60-7.48L296.24 0L293.16 0L305.96-28L308.88-28L321.68 0L318.56 0ZM300.68-9.88L314.12-9.88L307.40-24.92L300.68-9.88Z M329.72 0L329.72-29.68L332.56-29.68L332.56 0L329.72 0Z M372.76-21.04L375.36-21.04L367.40 0L364.72 0L358.08-17.24L351.44 0L348.76 0L340.84-21.04L343.56-21.04L350.16-3.16L356.92-21.04L359.36-21.04L366.08-3.16L372.76-21.04Z M390.36-21.20Q394.48-21.20 396.68-19.14Q398.88-17.08 398.88-13.04L398.88-13.04L398.88 0L396.16 0L396.16-3.28Q395.20-1.64 393.34-0.72Q391.48 0.20 388.92 0.20L388.92 0.20Q385.40 0.20 383.32-1.48Q381.24-3.16 381.24-5.92L381.24-5.92Q381.24-8.60 383.18-10.24Q385.12-11.88 389.36-11.88L389.36-11.88L396.04-11.88L396.04-13.16Q396.04-15.88 394.52-17.30Q393-18.72 390.08-18.72L390.08-18.72Q388.08-18.72 386.24-18.06Q384.40-17.40 383.08-16.24L383.08-16.24L381.80-18.36Q383.40-19.72 385.64-20.46Q387.88-21.20 390.36-21.20L390.36-21.20ZM389.36-2.04Q391.76-2.04 393.48-3.14Q395.20-4.24 396.04-6.32L396.04-6.32L396.04-9.76L389.44-9.76Q384.04-9.76 384.04-6L384.04-6Q384.04-4.16 385.44-3.10Q386.84-2.04 389.36-2.04L389.36-2.04Z M425.08-21.04L427.88-21.04L417.36 2.52Q416.08 5.48 414.40 6.72Q412.72 7.96 410.36 7.96L410.36 7.96Q408.84 7.96 407.52 7.48Q406.20 7 405.24 6.04L405.24 6.04L406.56 3.92Q408.16 5.52 410.40 5.52L410.40 5.52Q411.84 5.52 412.86 4.72Q413.88 3.92 414.76 2L414.76 2L415.68-0.04L406.28-21.04L409.24-21.04L417.16-3.16L425.08-21.04Z M441.28 0.20Q438.72 0.20 436.38-0.54Q434.04-1.28 432.72-2.40L432.72-2.40L434.00-4.64Q435.32-3.60 437.32-2.94Q439.32-2.28 441.48-2.28L441.48-2.28Q444.36-2.28 445.74-3.18Q447.12-4.08 447.12-5.72L447.12-5.72Q447.12-6.88 446.36-7.54Q445.60-8.20 444.44-8.54Q443.28-8.88 441.36-9.20L441.36-9.20Q438.80-9.68 437.24-10.18Q435.68-10.68 434.58-11.88Q433.48-13.08 433.48-15.20L433.48-15.20Q433.48-17.84 435.68-19.52Q437.88-21.20 441.80-21.20L441.80-21.20Q443.84-21.20 445.88-20.66Q447.92-20.12 449.24-19.24L449.24-19.24L448.00-16.96Q445.40-18.76 441.80-18.76L441.80-18.76Q439.08-18.76 437.70-17.80Q436.32-16.84 436.32-15.28L436.32-15.28Q436.32-14.08 437.10-13.36Q437.88-12.64 439.04-12.30Q440.20-11.96 442.24-11.60L442.24-11.60Q444.76-11.12 446.28-10.64Q447.80-10.16 448.88-9Q449.96-7.84 449.96-5.80L449.96-5.80Q449.96-3.04 447.66-1.42Q445.36 0.20 441.28 0.20L441.28 0.20Z M479.72 0L479.72-25.44L469.88-25.44L469.88-28L492.52-28L492.52-25.44L482.68-25.44L482.68 0L479.72 0Z M511.36-21.20Q515.32-21.20 517.66-18.90Q520.00-16.60 520.00-12.20L520.00-12.20L520.00 0L517.16 0L517.16-11.92Q517.16-15.20 515.52-16.92Q513.88-18.64 510.84-18.64L510.84-18.64Q507.44-18.64 505.46-16.62Q503.48-14.60 503.48-11.04L503.48-11.04L503.48 0L500.64 0L500.64-29.68L503.48-29.68L503.48-17.36Q504.64-19.20 506.68-20.20Q508.72-21.20 511.36-21.20L511.36-21.20Z M550.16-10.52L550.12-9.64L532.52-9.64Q532.76-6.36 535.04-4.34Q537.32-2.32 540.80-2.32L540.80-2.32Q542.76-2.32 544.40-3.02Q546.04-3.72 547.24-5.08L547.24-5.08L548.84-3.24Q547.44-1.56 545.34-0.68Q543.24 0.20 540.72 0.20L540.72 0.20Q537.48 0.20 534.98-1.18Q532.48-2.56 531.08-5Q529.68-7.44 529.68-10.52L529.68-10.52Q529.68-13.60 531.02-16.04Q532.36-18.48 534.70-19.84Q537.04-21.20 539.96-21.20L539.96-21.20Q542.88-21.20 545.20-19.84Q547.52-18.48 548.84-16.06Q550.16-13.64 550.16-10.52L550.16-10.52ZM539.96-18.76Q536.92-18.76 534.86-16.82Q532.80-14.88 532.52-11.76L532.52-11.76L547.44-11.76Q547.16-14.88 545.10-16.82Q543.04-18.76 539.96-18.76L539.96-18.76Z M562.68-16.92Q563.68-19.04 565.66-20.12Q567.64-21.20 570.56-21.20L570.56-21.20L570.56-18.44L569.88-18.48Q566.56-18.48 564.68-16.44Q562.80-14.40 562.80-10.72L562.80-10.72L562.80 0L559.96 0L559.96-21.04L562.68-21.04L562.68-16.92Z M597.84-10.52L597.80-9.64L580.20-9.64Q580.44-6.36 582.72-4.34Q585.00-2.32 588.48-2.32L588.48-2.32Q590.44-2.32 592.08-3.02Q593.72-3.72 594.92-5.08L594.92-5.08L596.52-3.24Q595.12-1.56 593.02-0.68Q590.92 0.20 588.40 0.20L588.40 0.20Q585.16 0.20 582.66-1.18Q580.16-2.56 578.76-5Q577.36-7.44 577.36-10.52L577.36-10.52Q577.36-13.60 578.70-16.04Q580.04-18.48 582.38-19.84Q584.72-21.20 587.64-21.20L587.64-21.20Q590.56-21.20 592.88-19.84Q595.20-18.48 596.52-16.06Q597.84-13.64 597.84-10.52L597.84-10.52ZM587.64-18.76Q584.60-18.76 582.54-16.82Q580.48-14.88 580.20-11.76L580.20-11.76L595.12-11.76Q594.84-14.88 592.78-16.82Q590.72-18.76 587.64-18.76L587.64-18.76Z M605.64-17.44L605.44-28L607.96-28L607.76-17.44L605.64-17.44ZM612.48-17.44L612.28-28L614.80-28L614.60-17.44L612.48-17.44Z M623.64 0.20Q622.76 0.20 622.14-0.44Q621.52-1.08 621.52-2L621.52-2Q621.52-2.92 622.14-3.54Q622.76-4.16 623.64-4.16L623.64-4.16Q624.52-4.16 625.16-3.54Q625.80-2.92 625.80-2L625.80-2Q625.80-1.08 625.16-0.44Q624.52 0.20 623.64 0.20L623.64 0.20Z"/></g>
</svg>
</g><g opacity="1" transform="rotate(0 150.416 168.2363)">
<svg width="348.4923" height="50" x="150.416" y="168.2363" version="1.1" preserveAspectRatio="none" viewBox="1.6211 -28.2422 210.625 33.711">
  <g transform="matrix(1 0 0 1 0 0)" class="aD6z1nYkhcolor"><path id="id-D6z1nYkh12" d="M12.87 0.51L12.87 0.51Q9.86 0.51 7.72-0.44Q5.59-1.39 4.23-3.17Q2.87-4.96 2.25-7.51Q1.62-10.06 1.62-13.26L1.62-13.26Q1.62-16.46 2.29-19.02Q2.95-21.58 4.32-23.36Q5.68-25.14 7.78-26.08Q9.88-27.03 12.73-27.03L12.73-27.03Q15.72-27.03 17.78-26.14Q19.84-25.25 21.13-23.54Q22.42-21.82 23.00-19.33Q23.57-16.84 23.57-13.63L23.57-13.63Q23.57-9.12 22.41-6.00Q21.25-2.87 18.79-1.17L18.79-1.17L18.79-0.84Q19.73-0.27 20.70 0.25Q21.68 0.78 22.50 1.21L22.50 1.21Q23.44 1.72 24.34 2.15L24.34 2.15Q24.08 2.89 23.63 3.49Q23.18 4.08 22.73 4.53L22.73 4.53Q22.21 5.04 21.62 5.47L21.62 5.47Q20.47 4.80 19.46 4.11Q18.46 3.42 17.56 2.75Q16.66 2.09 15.87 1.49Q15.08 0.90 14.38 0.41L14.38 0.41Q14.24 0.43 14.03 0.45Q13.83 0.47 13.60 0.48Q13.38 0.49 13.18 0.50Q12.99 0.51 12.87 0.51ZM12.73-2.91L12.73-2.91Q14.59-2.91 15.81-3.69Q17.03-4.47 17.75-5.89Q18.48-7.30 18.77-9.28Q19.06-11.25 19.06-13.63L19.06-13.63Q19.06-16.19 18.77-18.09Q18.48-19.98 17.75-21.22Q17.03-22.46 15.81-23.07Q14.59-23.67 12.73-23.67L12.73-23.67Q10.88-23.67 9.61-23.00Q8.34-22.32 7.56-21.01Q6.78-19.69 6.45-17.74Q6.11-15.80 6.11-13.26L6.11-13.26Q6.11-10.80 6.45-8.87Q6.78-6.93 7.56-5.62Q8.34-4.30 9.61-3.60Q10.88-2.91 12.73-2.91Z M27.38-6.54L27.38-19.96L31.56-19.96L31.56-6.91Q31.56-4.82 32.38-3.82Q33.20-2.81 35.14-2.81L35.14-2.81Q36.07-2.81 36.84-2.97Q37.60-3.13 38.16-3.34L38.16-3.34Q38.81-3.57 39.32-3.89L39.32-3.89L39.32-19.96L43.52-19.96L43.52-3.22L45.25-1.23L45.25 0L41.48 0L39.94-1.54L39.20-1.54Q39.04-1.43 38.61-1.11Q38.18-0.80 37.51-0.46Q36.84-0.12 35.96 0.14Q35.08 0.39 34.04 0.39L34.04 0.39Q32.40 0.39 31.15-0.10Q29.90-0.59 29.06-1.49Q28.22-2.40 27.80-3.68Q27.38-4.96 27.38-6.54L27.38-6.54Z M51.60-23.34L51.60-23.34Q51.05-23.34 50.58-23.54Q50.10-23.73 49.74-24.06Q49.38-24.39 49.16-24.83Q48.95-25.27 48.95-25.78L48.95-25.78Q48.95-26.31 49.16-26.76Q49.38-27.21 49.74-27.54Q50.10-27.87 50.58-28.06Q51.05-28.24 51.60-28.24L51.60-28.24Q52.15-28.24 52.64-28.06Q53.13-27.87 53.49-27.54Q53.85-27.21 54.06-26.76Q54.28-26.31 54.28-25.78L54.28-25.78Q54.28-25.27 54.06-24.83Q53.85-24.39 53.49-24.06Q53.13-23.73 52.64-23.54Q52.15-23.34 51.60-23.34ZM49.36-3.36L49.36-19.96L53.42-19.96L53.42-3.28L54.57-2.46L54.57 0L53.46 0L53.42-0.04L53.42 0Q51.48 0 50.42-0.78Q49.36-1.56 49.36-3.36L49.36-3.36Z M58.32-10.02L58.32-10.02Q58.32-12.60 58.95-14.56Q59.57-16.52 60.77-17.85Q61.97-19.18 63.72-19.85Q65.47-20.53 67.71-20.53L67.71-20.53Q68.54-20.53 69.38-20.37Q70.21-20.21 70.90-20.04L70.90-20.04Q71.68-19.82 72.42-19.55L72.42-19.55Q72.36-19.00 72.25-18.42L72.25-18.42Q72.15-17.91 71.96-17.31Q71.78-16.72 71.50-16.15L71.50-16.15Q70.98-16.37 70.37-16.56L70.37-16.56Q69.84-16.72 69.16-16.86Q68.48-16.99 67.71-16.99L67.71-16.99Q66.41-16.99 65.44-16.51Q64.47-16.04 63.83-15.13Q63.18-14.22 62.87-12.93Q62.56-11.64 62.56-10.04L62.56-10.04Q62.56-6.52 63.92-4.71Q65.27-2.89 67.91-2.89L67.91-2.89Q68.69-2.89 69.39-3.02Q70.10-3.14 70.66-3.30L70.66-3.30Q71.31-3.50 71.88-3.73L71.88-3.73Q72.07-3.30 72.23-2.79L72.23-2.79Q72.36-2.34 72.47-1.77Q72.58-1.19 72.56-0.53L72.56-0.53Q71.84-0.27 71.05-0.06L71.05-0.06Q70.39 0.12 69.56 0.25Q68.73 0.39 67.91 0.39L67.91 0.39Q63.32 0.39 60.82-2.23Q58.32-4.84 58.32-10.02Z M76.19 0L76.19-28.13L80.18-28.13L80.18-13.26L79.98-10.43L81.02-11.66L87.29-19.96L92.01-19.96L85.66-11.91L84.04-10.37L85.31-9.22L92.36 0L87.62 0L80.90-9.02L79.98-10.20L80.18-6.64L80.18 0L76.19 0Z M107.05 0L107.05-26.52L111.48-26.52L111.48-15.25L121.84-15.25L121.84-26.52L126.25-26.52L126.25 0L121.84 0L121.84-11.86L111.48-11.86L111.48 0L107.05 0Z M130.84-9.79L130.84-9.79Q130.84-12.60 131.52-14.63Q132.21-16.66 133.44-17.97Q134.67-19.28 136.38-19.89Q138.09-20.51 140.14-20.51L140.14-20.51Q142.03-20.51 143.53-19.87Q145.02-19.24 146.05-18.09Q147.09-16.93 147.64-15.33Q148.18-13.73 148.18-11.80L148.18-11.80Q148.18-11.13 148.13-10.57Q148.07-10 147.99-9.59L147.99-9.59Q147.91-9.10 147.81-8.71L147.81-8.71L135-8.77Q135.02-7.03 135.37-5.89Q135.72-4.75 136.42-4.08Q137.11-3.42 138.16-3.15Q139.22-2.89 140.66-2.89L140.66-2.89Q141.89-2.89 142.87-3.05Q143.85-3.20 144.53-3.42L144.53-3.42Q145.31-3.65 145.94-3.96L145.94-3.96Q146.23-3.28 146.40-2.70Q146.56-2.11 146.64-1.68L146.64-1.68Q146.72-1.17 146.76-0.78L146.76-0.78Q146.11-0.45 145.20-0.20L145.20-0.20Q144.41 0.02 143.28 0.21Q142.15 0.39 140.66 0.39L140.66 0.39Q138.32 0.39 136.49-0.14Q134.67-0.66 133.41-1.87Q132.15-3.07 131.49-5.01Q130.84-6.95 130.84-9.79ZM135.06-11.62L144.00-11.62L144.00-12.29Q144.00-13.52 143.70-14.46Q143.40-15.41 142.87-16.05Q142.34-16.70 141.62-17.03Q140.90-17.36 140.06-17.36L140.06-17.36Q138.83-17.36 137.89-17.04Q136.95-16.72 136.32-16.03Q135.68-15.33 135.37-14.24Q135.06-13.14 135.06-11.62L135.06-11.62Z M150.96-5.70L150.96-5.70Q150.96-7.32 151.43-8.46Q151.89-9.59 152.80-10.31Q153.71-11.04 155.01-11.40Q156.31-11.76 157.99-11.86L157.99-11.86L162.34-12.09L162.34-13.65Q162.34-14.71 162.16-15.39Q161.97-16.07 161.54-16.48Q161.11-16.89 160.40-17.06Q159.69-17.23 158.63-17.23L158.63-17.23Q157.58-17.23 156.63-16.99Q155.68-16.76 154.98-16.48L154.98-16.48Q154.14-16.15 153.44-15.74L153.44-15.74Q153.01-16.35 152.75-16.90Q152.50-17.46 152.36-17.91L152.36-17.91Q152.19-18.42 152.13-18.89L152.13-18.89Q153.07-19.36 154.14-19.71L154.14-19.71Q155.08-20.02 156.30-20.27Q157.52-20.53 158.87-20.53L158.87-20.53Q161.09-20.53 162.56-20.14Q164.02-19.75 164.89-18.96Q165.76-18.16 166.10-16.96Q166.45-15.76 166.45-14.12L166.45-14.12L166.45-3.22L168.09-1.23L168.09 0L164.47 0L162.97-1.74L162.27-1.74Q162.17-1.64 161.75-1.30Q161.33-0.96 160.67-0.58Q160.02-0.20 159.19 0.10Q158.36 0.39 157.42 0.39L157.42 0.39Q155.96 0.39 154.77-0.05Q153.57-0.49 152.72-1.30Q151.88-2.11 151.42-3.23Q150.96-4.36 150.96-5.70ZM155.21-6.05L155.21-6.05Q155.21-5.16 155.47-4.56Q155.72-3.96 156.18-3.61Q156.64-3.26 157.29-3.13Q157.95-2.99 158.75-2.99L158.75-2.99Q159.49-2.99 160.15-3.17Q160.80-3.36 161.29-3.59L161.29-3.59Q161.86-3.85 162.34-4.20L162.34-4.20L162.34-9.45L158.42-9.20Q157.50-9.14 156.88-8.89Q156.27-8.63 155.90-8.22Q155.53-7.81 155.37-7.26Q155.21-6.70 155.21-6.05Z M171.50-3.36L171.50-28.11L175.55-28.11L175.55-3.28L176.70-2.46L176.70 0L175.59 0L175.55-0.04L175.55 0Q173.61 0 172.56-0.78Q171.50-1.56 171.50-3.36L171.50-3.36Z M182.07-5.59L182.07-16.93L179.51-16.93Q179.49-17.15 179.47-17.40L179.47-17.40Q179.45-17.62 179.44-17.91Q179.43-18.20 179.43-18.55L179.43-18.55Q179.43-18.91 179.45-19.21Q179.47-19.51 179.51-19.96L179.51-19.96L182.07-19.96L182.07-23.07L184.32-25.61L186.05-25.61L186.05-19.96L191.58-19.96Q191.62-19.77 191.65-19.49Q191.68-19.22 191.68-18.96L191.68-18.96Q191.68-18.52 191.59-18.14Q191.50-17.77 191.41-17.50L191.41-17.50Q191.29-17.19 191.13-16.93L191.13-16.93L186.05-16.93L186.05-5.61Q186.05-4.18 186.53-3.54Q187.01-2.89 188.07-2.89L188.07-2.89Q188.52-2.89 189.01-3.00Q189.51-3.11 189.96-3.26L189.96-3.26Q190.47-3.44 191.00-3.65L191.00-3.65Q191.39-3.14 191.61-2.66Q191.84-2.17 191.93-1.78L191.93-1.78Q192.05-1.33 192.07-0.94L192.07-0.94Q191.52-0.57 190.84-0.27L190.84-0.27Q190.23-0.02 189.39 0.19Q188.55 0.39 187.46 0.39L187.46 0.39Q185.94 0.39 184.91 0.01Q183.89-0.37 183.25-1.12Q182.62-1.88 182.34-3.00Q182.07-4.12 182.07-5.59L182.07-5.59Z M195.68 0L195.68-28.13L199.88-28.13L199.88-21.56L199.69-18.57L199.80-18.57Q199.94-18.69 200.46-19.01Q200.98-19.34 201.75-19.67Q202.52-20 203.49-20.25Q204.45-20.51 205.49-20.51L205.49-20.51Q207.13-20.51 208.39-20.02Q209.65-19.53 210.51-18.62Q211.37-17.71 211.81-16.45Q212.25-15.18 212.25-13.59L212.25-13.59L212.25 0L208.05 0L208.05-13.18Q208.05-15.31 207.20-16.32Q206.35-17.32 204.39-17.32L204.39-17.32Q203.46-17.32 202.65-17.16Q201.84-16.99 201.21-16.78L201.21-16.78Q200.49-16.54 199.88-16.23L199.88-16.23L199.88 0L195.68 0Z"/></g>
</svg>
</g></svg></svg>