<svg id="patient" xmlns="http://www.w3.org/2000/svg" width="512" height="512" viewBox="0 0 512 512">
  <g id="Group_4" data-name="Group 4">
    <g id="Group_2" data-name="Group 2" transform="translate(85.333)">
      <path id="Path_2" data-name="Path 2" d="M110.667,213.333A106.667,106.667,0,1,1,217.333,106.667,106.788,106.788,0,0,1,110.667,213.333Zm0-192A85.333,85.333,0,1,0,196,106.667,85.419,85.419,0,0,0,110.667,21.333Z" transform="translate(-4)" fill="#02367c"/>
    </g>
    <g id="Group_3" data-name="Group 3" transform="translate(0 256)">
      <path id="Path_3" data-name="Path 3" d="M138.667,204h-128A10.671,10.671,0,0,1,0,193.333V108A96.117,96.117,0,0,1,96,12H288a95.591,95.591,0,0,1,69.184,29.568A10.669,10.669,0,1,1,341.7,56.245,74.207,74.207,0,0,0,288,33.333H96A74.749,74.749,0,0,0,21.333,108v74.667H138.667a10.667,10.667,0,1,1,0,21.333Z" transform="translate(0 -12)" fill="#02367c"/>
    </g>
  </g>
  <g id="Group_5" data-name="Group 5" transform="translate(192 341.333)">
    <path id="Path_4" data-name="Path 4" d="M126.333,186.667a10.645,10.645,0,0,1-9.536-5.888L77.075,101.333H19.667a10.667,10.667,0,0,1,0-21.333h64A10.684,10.684,0,0,1,93.2,85.888l32.384,64.768L180.52,22.464A10.68,10.68,0,0,1,190.013,16a11.206,11.206,0,0,1,9.856,5.888L260.925,144h57.408a10.667,10.667,0,0,1,0,21.333h-64a10.684,10.684,0,0,1-9.536-5.888L191.08,52.011,136.147,180.2a10.68,10.68,0,0,1-9.493,6.464h-.32Z" transform="translate(-9 -16)" fill="#02367c"/>
  </g>
</svg>
